<svg width="240" height="240" viewBox="0 0 240 240" fill="none" xmlns="http://www.w3.org/2000/svg">
<g filter="url(#filter0_i_85_307)">
<g clip-path="url(#clip0_85_307)">
<rect width="240" height="240" rx="40" fill="#ECECEC"/>
<g filter="url(#filter1_i_85_307)">
<path d="M120.14 120.28C143.966 120.28 163.28 100.966 163.28 77.14C163.28 53.3144 143.966 34 120.14 34C96.3144 34 77 53.3144 77 77.14C77 100.966 96.3144 120.28 120.14 120.28Z" fill="#4F5D73"/>
<g opacity="0.2">
<path d="M144.406 78.6229C141.44 78.6229 139.014 76.1963 139.014 73.2304C139.014 72.6912 139.148 72.2868 139.148 71.8823H106.524C106.659 72.2868 106.659 72.826 106.659 73.2304C106.659 76.1963 104.232 78.6229 101.266 78.6229C100.862 78.6229 100.322 78.4881 99.918 78.4881V89.5428C100.322 89.4079 100.862 89.4079 101.266 89.4079C104.232 89.4079 106.659 91.8346 106.659 94.8004C106.659 95.2049 106.524 95.7441 106.524 96.1486H139.148C139.014 95.7441 139.014 95.2049 139.014 94.8004C139.014 91.8346 141.44 89.4079 144.406 89.4079C144.945 89.4079 145.35 89.5428 145.754 89.5428V78.4881C145.35 78.4881 144.811 78.6229 144.406 78.6229ZM122.836 91.9694C118.387 91.9694 114.747 88.3294 114.747 83.8806C114.747 79.4318 118.387 75.7919 122.836 75.7919C127.285 75.7919 130.925 79.4318 130.925 83.8806C130.925 88.3294 127.285 91.9694 122.836 91.9694Z" fill="#231F20"/>
<path d="M144.406 67.7031H101.266C100.862 67.7031 100.592 67.7031 100.188 67.8379C97.7609 68.3772 95.8735 70.5342 95.8735 73.0956V73.5001V94.1264V94.5308C95.8735 97.4967 98.3002 99.9233 101.266 99.9233H101.67H143.867H144.271C146.967 99.9233 149.124 98.0359 149.529 95.6093C149.799 95.3397 149.799 95.0701 149.799 94.6656V73.0956C149.799 70.1298 147.372 67.7031 144.406 67.7031ZM144.406 89.2731C141.44 89.2731 139.014 91.6997 139.014 94.6656C139.014 95.0701 139.148 95.6093 139.148 96.0138H106.524C106.659 95.6093 106.659 95.0701 106.659 94.6656C106.659 91.6997 104.232 89.2731 101.266 89.2731C100.862 89.2731 100.322 89.4079 99.9179 89.4079V78.3533C100.322 78.4881 100.862 78.4881 101.266 78.4881C104.232 78.4881 106.659 76.0615 106.659 73.0956C106.659 72.5564 106.524 72.1519 106.524 71.7475H139.148C139.014 72.1519 139.014 72.6912 139.014 73.0956C139.014 76.0615 141.44 78.4881 144.406 78.4881C144.945 78.4881 145.35 78.3533 145.754 78.3533V89.4079C145.35 89.2731 144.81 89.2731 144.406 89.2731Z" fill="#231F20"/>
<path d="M122.836 91.9694C127.303 91.9694 130.925 88.3479 130.925 83.8806C130.925 79.4133 127.303 75.7919 122.836 75.7919C118.369 75.7919 114.747 79.4133 114.747 83.8806C114.747 88.3479 118.369 91.9694 122.836 91.9694Z" fill="#231F20"/>
</g>
<path d="M101.266 96.0137C98.9742 96.0137 97.2217 94.2612 97.2217 91.9694V70.3994C97.2217 68.1076 98.9742 66.355 101.266 66.355H144.406C146.698 66.355 148.45 68.1076 148.45 70.3994V91.9694C148.45 94.2612 146.698 96.0137 144.406 96.0137H101.266Z" fill="#76C2AF"/>
<path d="M144.406 67.7031C145.889 67.7031 147.102 68.9164 147.102 70.3994V91.9694C147.102 93.4523 145.889 94.6656 144.406 94.6656H101.266C99.7831 94.6656 98.5698 93.4523 98.5698 91.9694V70.3994C98.5698 68.9164 99.7831 67.7031 101.266 67.7031H144.406ZM144.406 65.0069H101.266C98.3002 65.0069 95.8735 67.4335 95.8735 70.3994V91.9694C95.8735 94.9352 98.3002 97.3619 101.266 97.3619H144.406C147.372 97.3619 149.799 94.9352 149.799 91.9694V70.3994C149.799 67.4335 147.372 65.0069 144.406 65.0069Z" fill="#E0E0D1"/>
<path d="M122.836 89.2731C127.304 89.2731 130.925 85.6517 130.925 81.1844C130.925 76.7171 127.304 73.0956 122.836 73.0956C118.369 73.0956 114.748 76.7171 114.748 81.1844C114.748 85.6517 118.369 89.2731 122.836 89.2731Z" fill="#4F5D73"/>
<path d="M144.406 75.7919C147.384 75.7919 149.799 73.3776 149.799 70.3994C149.799 67.4212 147.384 65.0069 144.406 65.0069C141.428 65.0069 139.014 67.4212 139.014 70.3994C139.014 73.3776 141.428 75.7919 144.406 75.7919Z" fill="#E0E0D1"/>
<path d="M101.266 75.7919C104.244 75.7919 106.659 73.3776 106.659 70.3994C106.659 67.4212 104.244 65.0069 101.266 65.0069C98.2878 65.0069 95.8735 67.4212 95.8735 70.3994C95.8735 73.3776 98.2878 75.7919 101.266 75.7919Z" fill="#E0E0D1"/>
<path d="M144.406 97.3619C147.384 97.3619 149.799 94.9476 149.799 91.9694C149.799 88.9912 147.384 86.5769 144.406 86.5769C141.428 86.5769 139.014 88.9912 139.014 91.9694C139.014 94.9476 141.428 97.3619 144.406 97.3619Z" fill="#E0E0D1"/>
<path d="M101.266 97.3619C104.244 97.3619 106.659 94.9476 106.659 91.9694C106.659 88.9912 104.244 86.5769 101.266 86.5769C98.2878 86.5769 95.8735 88.9912 95.8735 91.9694C95.8735 94.9476 98.2878 97.3619 101.266 97.3619Z" fill="#E0E0D1"/>
<g opacity="0.2">
<path d="M141.71 73.2304C138.744 73.2304 136.318 70.8038 136.318 67.8379C136.318 67.2987 136.453 66.8943 136.453 66.4898H103.828C103.963 66.8943 103.963 67.4335 103.963 67.8379C103.963 70.8038 101.536 73.2304 98.5703 73.2304C98.1659 73.2304 97.6266 73.0956 97.2222 73.0956V84.1503C97.6266 84.0154 98.1659 84.0154 98.5703 84.0154C101.536 84.0154 103.963 86.4421 103.963 89.4079C103.963 89.8124 103.828 90.3516 103.828 90.7561H136.453C136.318 90.3516 136.318 89.8124 136.318 89.4079C136.318 86.4421 138.744 84.0154 141.71 84.0154C142.25 84.0154 142.654 84.1503 143.058 84.1503V73.0956C142.654 73.0956 142.115 73.2304 141.71 73.2304ZM120.14 86.5769C115.691 86.5769 112.052 82.9369 112.052 78.4881C112.052 74.0393 115.691 70.3994 120.14 70.3994C124.589 70.3994 128.229 74.0393 128.229 78.4881C128.229 82.9369 124.589 86.5769 120.14 86.5769Z" fill="#231F20"/>
<path d="M141.71 62.3106H98.5702C98.1658 62.3106 97.8962 62.3106 97.4917 62.4454C95.0651 62.9847 93.1777 65.1417 93.1777 67.7031V68.1076V88.7339V89.1383C93.1777 92.1042 95.6044 94.5308 98.5702 94.5308H98.9747H141.171H141.575C144.272 94.5308 146.429 92.6434 146.833 90.2168C147.103 89.9472 147.103 89.6776 147.103 89.2731V67.7031C147.103 64.7372 144.676 62.3106 141.71 62.3106ZM141.71 83.8806C138.744 83.8806 136.318 86.3072 136.318 89.2731C136.318 89.6776 136.453 90.2168 136.453 90.6212H103.828C103.963 90.2168 103.963 89.6776 103.963 89.2731C103.963 86.3072 101.536 83.8806 98.5702 83.8806C98.1658 83.8806 97.6265 84.0154 97.2221 84.0154V72.9608C97.6265 73.0956 98.1658 73.0956 98.5702 73.0956C101.536 73.0956 103.963 70.669 103.963 67.7031C103.963 67.1639 103.828 66.7594 103.828 66.355H136.453C136.318 66.7594 136.318 67.2987 136.318 67.7031C136.318 70.669 138.744 73.0956 141.71 73.0956C142.249 73.0956 142.654 72.9608 143.058 72.9608V84.0154C142.654 83.8806 142.115 83.8806 141.71 83.8806Z" fill="#231F20"/>
<path d="M120.14 86.5769C124.607 86.5769 128.229 82.9554 128.229 78.4881C128.229 74.0208 124.607 70.3994 120.14 70.3994C115.673 70.3994 112.051 74.0208 112.051 78.4881C112.051 82.9554 115.673 86.5769 120.14 86.5769Z" fill="#231F20"/>
</g>
<path d="M95.874 90.6212C93.5822 90.6212 91.8296 88.8687 91.8296 86.5769V65.0069C91.8296 62.7151 93.5822 60.9625 95.874 60.9625H139.014C141.306 60.9625 143.058 62.7151 143.058 65.0069V86.5769C143.058 88.8687 141.306 90.6212 139.014 90.6212H95.874Z" fill="#76C2AF"/>
<path d="M139.014 62.3106C140.497 62.3106 141.71 63.5239 141.71 65.0069V86.5769C141.71 88.0598 140.497 89.2731 139.014 89.2731H95.8739C94.391 89.2731 93.1777 88.0598 93.1777 86.5769V65.0069C93.1777 63.5239 94.391 62.3106 95.8739 62.3106H139.014ZM139.014 59.6144H95.8739C92.9081 59.6144 90.4814 62.041 90.4814 65.0069V86.5769C90.4814 89.5428 92.9081 91.9694 95.8739 91.9694H139.014C141.98 91.9694 144.406 89.5428 144.406 86.5769V65.0069C144.406 62.041 141.98 59.6144 139.014 59.6144Z" fill="#E0E0D1"/>
<path d="M117.444 83.8806C121.911 83.8806 125.532 80.2592 125.532 75.7919C125.532 71.3246 121.911 67.7031 117.444 67.7031C112.976 67.7031 109.355 71.3246 109.355 75.7919C109.355 80.2592 112.976 83.8806 117.444 83.8806Z" fill="#4F5D73"/>
<path d="M139.014 70.3994C141.992 70.3994 144.406 67.9851 144.406 65.0069C144.406 62.0287 141.992 59.6144 139.014 59.6144C136.035 59.6144 133.621 62.0287 133.621 65.0069C133.621 67.9851 136.035 70.3994 139.014 70.3994Z" fill="#E0E0D1"/>
<path d="M95.8739 70.3994C98.8521 70.3994 101.266 67.9851 101.266 65.0069C101.266 62.0287 98.8521 59.6144 95.8739 59.6144C92.8957 59.6144 90.4814 62.0287 90.4814 65.0069C90.4814 67.9851 92.8957 70.3994 95.8739 70.3994Z" fill="#E0E0D1"/>
<path d="M139.014 91.9694C141.992 91.9694 144.406 89.5551 144.406 86.5769C144.406 83.5987 141.992 81.1844 139.014 81.1844C136.035 81.1844 133.621 83.5987 133.621 86.5769C133.621 89.5551 136.035 91.9694 139.014 91.9694Z" fill="#E0E0D1"/>
<path d="M95.8739 91.9694C98.8521 91.9694 101.266 89.5551 101.266 86.5769C101.266 83.5987 98.8521 81.1844 95.8739 81.1844C92.8957 81.1844 90.4814 83.5987 90.4814 86.5769C90.4814 89.5551 92.8957 91.9694 95.8739 91.9694Z" fill="#E0E0D1"/>
</g>
<path d="M29.8726 155.902H25.6162V153.667H29.8726C30.6138 153.667 31.2127 153.547 31.6694 153.308C32.1261 153.068 32.4593 152.739 32.6689 152.319C32.8861 151.893 32.9946 151.406 32.9946 150.859C32.9946 150.343 32.8861 149.86 32.6689 149.411C32.4593 148.954 32.1261 148.587 31.6694 148.31C31.2127 148.033 30.6138 147.895 29.8726 147.895H26.481V162H23.6621V145.648H29.8726C31.1379 145.648 32.2122 145.873 33.0957 146.322C33.9867 146.764 34.6642 147.378 35.1284 148.164C35.5926 148.943 35.8247 149.834 35.8247 150.837C35.8247 151.893 35.5926 152.799 35.1284 153.555C34.6642 154.311 33.9867 154.891 33.0957 155.295C32.2122 155.7 31.1379 155.902 29.8726 155.902ZM40.7998 152.162V162H38.0933V149.849H40.6763L40.7998 152.162ZM44.5171 149.77L44.4946 152.286C44.3299 152.256 44.1502 152.233 43.9556 152.218C43.7684 152.203 43.5812 152.196 43.394 152.196C42.9299 152.196 42.5218 152.263 42.1699 152.398C41.818 152.525 41.5223 152.712 41.2827 152.959C41.0506 153.199 40.8709 153.491 40.7437 153.835C40.6164 154.18 40.5415 154.565 40.519 154.992L39.9014 155.037C39.9014 154.273 39.9762 153.566 40.126 152.915C40.2757 152.263 40.5003 151.69 40.7998 151.196C41.1068 150.702 41.4886 150.317 41.9453 150.04C42.4095 149.763 42.9448 149.624 43.5513 149.624C43.716 149.624 43.8919 149.639 44.0791 149.669C44.2738 149.699 44.4198 149.733 44.5171 149.77ZM51.3452 162.225C50.4468 162.225 49.6344 162.079 48.9082 161.787C48.1895 161.487 47.5755 161.072 47.0664 160.54C46.5648 160.008 46.1792 159.383 45.9097 158.665C45.6401 157.946 45.5054 157.171 45.5054 156.34V155.891C45.5054 154.94 45.6439 154.079 45.9209 153.308C46.1979 152.536 46.5835 151.878 47.0776 151.331C47.5718 150.777 48.1558 150.354 48.8296 150.062C49.5034 149.77 50.2334 149.624 51.0195 149.624C51.888 149.624 52.6479 149.77 53.2993 150.062C53.9507 150.354 54.4897 150.766 54.9165 151.297C55.3507 151.821 55.6727 152.447 55.8823 153.173C56.0994 153.899 56.208 154.7 56.208 155.576V156.733H46.8193V154.79H53.5352V154.577C53.5202 154.09 53.4229 153.633 53.2432 153.207C53.071 152.78 52.8052 152.435 52.4458 152.173C52.0864 151.911 51.6073 151.78 51.0083 151.78C50.5591 151.78 50.1585 151.878 49.8066 152.072C49.4622 152.259 49.174 152.533 48.9419 152.892C48.7098 153.251 48.5301 153.686 48.4028 154.195C48.283 154.696 48.2231 155.262 48.2231 155.891V156.34C48.2231 156.871 48.2943 157.366 48.4365 157.822C48.5863 158.271 48.8034 158.665 49.0879 159.001C49.3724 159.338 49.7168 159.604 50.1211 159.799C50.5254 159.986 50.9858 160.08 51.5024 160.08C52.1538 160.08 52.734 159.949 53.2432 159.687C53.7523 159.424 54.194 159.054 54.5684 158.575L55.9946 159.956C55.7326 160.338 55.3919 160.705 54.9727 161.057C54.5534 161.401 54.0405 161.682 53.4341 161.899C52.8351 162.116 52.1388 162.225 51.3452 162.225ZM61.0371 152.185V166.672H58.3306V149.849H60.8237L61.0371 152.185ZM68.9546 155.812V156.048C68.9546 156.931 68.8498 157.751 68.6401 158.507C68.438 159.256 68.1348 159.911 67.7305 160.473C67.3337 161.027 66.8433 161.457 66.2593 161.764C65.6753 162.071 65.0015 162.225 64.2378 162.225C63.4816 162.225 62.819 162.086 62.25 161.809C61.6885 161.525 61.2131 161.124 60.8237 160.607C60.4344 160.091 60.12 159.484 59.8804 158.788C59.6483 158.084 59.4836 157.313 59.3862 156.475V155.565C59.4836 154.674 59.6483 153.865 59.8804 153.139C60.12 152.413 60.4344 151.788 60.8237 151.264C61.2131 150.74 61.6885 150.335 62.25 150.051C62.8115 149.766 63.4666 149.624 64.2153 149.624C64.979 149.624 65.6566 149.774 66.248 150.073C66.8395 150.365 67.3374 150.785 67.7417 151.331C68.146 151.87 68.4492 152.521 68.6514 153.285C68.8535 154.041 68.9546 154.884 68.9546 155.812ZM66.248 156.048V155.812C66.248 155.25 66.1956 154.73 66.0908 154.251C65.986 153.764 65.8213 153.338 65.5967 152.971C65.3721 152.604 65.0838 152.319 64.7319 152.117C64.3875 151.908 63.972 151.803 63.4854 151.803C63.0062 151.803 62.5944 151.885 62.25 152.05C61.9056 152.207 61.6174 152.428 61.3853 152.712C61.1532 152.997 60.9735 153.33 60.8462 153.712C60.7189 154.086 60.6291 154.494 60.5767 154.936V157.115C60.6665 157.654 60.82 158.148 61.0371 158.597C61.2542 159.046 61.5612 159.406 61.958 159.675C62.3623 159.937 62.8789 160.068 63.5078 160.068C63.9945 160.068 64.41 159.964 64.7544 159.754C65.0988 159.544 65.3796 159.256 65.5967 158.889C65.8213 158.515 65.986 158.084 66.0908 157.598C66.1956 157.111 66.248 156.594 66.248 156.048ZM78.1074 159.563V153.768C78.1074 153.334 78.0288 152.959 77.8716 152.645C77.7144 152.331 77.4748 152.087 77.1528 151.915C76.8384 151.743 76.4416 151.657 75.9624 151.657C75.5207 151.657 75.1388 151.732 74.8169 151.881C74.495 152.031 74.2441 152.233 74.0645 152.488C73.8848 152.742 73.7949 153.031 73.7949 153.353H71.0996C71.0996 152.873 71.2157 152.409 71.4478 151.96C71.6799 151.511 72.0168 151.11 72.4585 150.758C72.9002 150.406 73.4281 150.129 74.042 149.927C74.6559 149.725 75.3447 149.624 76.1084 149.624C77.0218 149.624 77.8304 149.778 78.5342 150.084C79.2454 150.391 79.8032 150.856 80.2075 151.477C80.6193 152.091 80.8252 152.862 80.8252 153.791V159.192C80.8252 159.746 80.8626 160.244 80.9375 160.686C81.0199 161.12 81.1359 161.498 81.2856 161.82V162H78.5117C78.3844 161.708 78.2834 161.337 78.2085 160.888C78.1411 160.431 78.1074 159.99 78.1074 159.563ZM78.5005 154.61L78.5229 156.284H76.5801C76.0785 156.284 75.6367 156.332 75.2549 156.43C74.873 156.52 74.5549 156.654 74.3003 156.834C74.0457 157.014 73.8548 157.231 73.7275 157.485C73.6003 157.74 73.5366 158.028 73.5366 158.35C73.5366 158.672 73.6115 158.968 73.7612 159.237C73.911 159.499 74.1281 159.705 74.4126 159.855C74.7046 160.005 75.0565 160.08 75.4683 160.08C76.0223 160.08 76.5052 159.967 76.917 159.743C77.3363 159.511 77.6657 159.23 77.9053 158.9C78.1449 158.563 78.2721 158.245 78.2871 157.946L79.1631 159.147C79.0732 159.454 78.9198 159.784 78.7026 160.136C78.4855 160.488 78.201 160.825 77.8491 161.146C77.5047 161.461 77.0892 161.719 76.6025 161.921C76.1234 162.124 75.5693 162.225 74.9404 162.225C74.1468 162.225 73.4393 162.067 72.8179 161.753C72.1965 161.431 71.7098 161 71.3579 160.461C71.006 159.915 70.8301 159.297 70.8301 158.608C70.8301 157.965 70.9499 157.396 71.1895 156.901C71.4365 156.4 71.7959 155.98 72.2676 155.644C72.7467 155.307 73.3307 155.052 74.0195 154.88C74.7083 154.7 75.4945 154.61 76.3779 154.61H78.5005ZM86.373 152.162V162H83.6665V149.849H86.2495L86.373 152.162ZM90.0903 149.77L90.0679 152.286C89.9032 152.256 89.7235 152.233 89.5288 152.218C89.3416 152.203 89.1545 152.196 88.9673 152.196C88.5031 152.196 88.0951 152.263 87.7432 152.398C87.3913 152.525 87.0955 152.712 86.856 152.959C86.6239 153.199 86.4442 153.491 86.3169 153.835C86.1896 154.18 86.1147 154.565 86.0923 154.992L85.4746 155.037C85.4746 154.273 85.5495 153.566 85.6992 152.915C85.849 152.263 86.0736 151.69 86.373 151.196C86.68 150.702 87.0618 150.317 87.5186 150.04C87.9827 149.763 88.5181 149.624 89.1245 149.624C89.2892 149.624 89.4652 149.639 89.6523 149.669C89.847 149.699 89.993 149.733 90.0903 149.77ZM96.9185 162.225C96.02 162.225 95.2077 162.079 94.4814 161.787C93.7627 161.487 93.1488 161.072 92.6396 160.54C92.138 160.008 91.7524 159.383 91.4829 158.665C91.2134 157.946 91.0786 157.171 91.0786 156.34V155.891C91.0786 154.94 91.2171 154.079 91.4941 153.308C91.7712 152.536 92.1567 151.878 92.6509 151.331C93.145 150.777 93.729 150.354 94.4028 150.062C95.0767 149.77 95.8066 149.624 96.5928 149.624C97.4613 149.624 98.2212 149.77 98.8726 150.062C99.5239 150.354 100.063 150.766 100.49 151.297C100.924 151.821 101.246 152.447 101.456 153.173C101.673 153.899 101.781 154.7 101.781 155.576V156.733H92.3926V154.79H99.1084V154.577C99.0934 154.09 98.9961 153.633 98.8164 153.207C98.6442 152.78 98.3784 152.435 98.019 152.173C97.6597 151.911 97.1805 151.78 96.5815 151.78C96.1323 151.78 95.7318 151.878 95.3799 152.072C95.0355 152.259 94.7472 152.533 94.5151 152.892C94.283 153.251 94.1034 153.686 93.9761 154.195C93.8563 154.696 93.7964 155.262 93.7964 155.891V156.34C93.7964 156.871 93.8675 157.366 94.0098 157.822C94.1595 158.271 94.3766 158.665 94.6611 159.001C94.9456 159.338 95.29 159.604 95.6943 159.799C96.0986 159.986 96.5591 160.08 97.0757 160.08C97.7271 160.08 98.3073 159.949 98.8164 159.687C99.3255 159.424 99.7673 159.054 100.142 158.575L101.568 159.956C101.306 160.338 100.965 160.705 100.546 161.057C100.127 161.401 99.6138 161.682 99.0073 161.899C98.4084 162.116 97.7121 162.225 96.9185 162.225ZM109.89 145.648H115.673C116.916 145.648 117.976 145.836 118.852 146.21C119.728 146.584 120.398 147.138 120.862 147.872C121.333 148.598 121.569 149.497 121.569 150.567C121.569 151.383 121.42 152.102 121.12 152.724C120.821 153.345 120.398 153.869 119.851 154.296C119.305 154.715 118.653 155.041 117.897 155.273L117.043 155.688H111.844L111.821 153.454H115.718C116.392 153.454 116.954 153.334 117.403 153.094C117.852 152.855 118.189 152.529 118.414 152.117C118.646 151.698 118.762 151.226 118.762 150.702C118.762 150.133 118.649 149.639 118.425 149.22C118.208 148.793 117.871 148.467 117.414 148.243C116.957 148.011 116.377 147.895 115.673 147.895H112.708V162H109.89V145.648ZM119.222 162L115.381 154.655L118.335 154.644L122.232 161.854V162H119.222ZM129.464 162.225C128.566 162.225 127.754 162.079 127.027 161.787C126.309 161.487 125.695 161.072 125.186 160.54C124.684 160.008 124.298 159.383 124.029 158.665C123.759 157.946 123.625 157.171 123.625 156.34V155.891C123.625 154.94 123.763 154.079 124.04 153.308C124.317 152.536 124.703 151.878 125.197 151.331C125.691 150.777 126.275 150.354 126.949 150.062C127.623 149.77 128.353 149.624 129.139 149.624C130.007 149.624 130.767 149.77 131.418 150.062C132.07 150.354 132.609 150.766 133.036 151.297C133.47 151.821 133.792 152.447 134.001 153.173C134.219 153.899 134.327 154.7 134.327 155.576V156.733H124.938V154.79H131.654V154.577C131.639 154.09 131.542 153.633 131.362 153.207C131.19 152.78 130.924 152.435 130.565 152.173C130.206 151.911 129.726 151.78 129.127 151.78C128.678 151.78 128.278 151.878 127.926 152.072C127.581 152.259 127.293 152.533 127.061 152.892C126.829 153.251 126.649 153.686 126.522 154.195C126.402 154.696 126.342 155.262 126.342 155.891V156.34C126.342 156.871 126.413 157.366 126.556 157.822C126.705 158.271 126.923 158.665 127.207 159.001C127.492 159.338 127.836 159.604 128.24 159.799C128.645 159.986 129.105 160.08 129.622 160.08C130.273 160.08 130.853 159.949 131.362 159.687C131.871 159.424 132.313 159.054 132.688 158.575L134.114 159.956C133.852 160.338 133.511 160.705 133.092 161.057C132.673 161.401 132.16 161.682 131.553 161.899C130.954 162.116 130.258 162.225 129.464 162.225ZM142.009 149.849V151.825H135.158V149.849H142.009ZM137.135 146.873H139.841V158.642C139.841 159.016 139.894 159.305 139.999 159.507C140.111 159.701 140.264 159.833 140.459 159.9C140.654 159.967 140.882 160.001 141.144 160.001C141.331 160.001 141.511 159.99 141.683 159.967C141.855 159.945 141.994 159.922 142.099 159.9L142.11 161.966C141.885 162.034 141.623 162.094 141.324 162.146C141.032 162.198 140.695 162.225 140.313 162.225C139.692 162.225 139.141 162.116 138.662 161.899C138.183 161.674 137.809 161.311 137.539 160.81C137.27 160.308 137.135 159.642 137.135 158.811V146.873ZM146.995 149.849V162H144.277V149.849H146.995ZM144.098 146.659C144.098 146.247 144.232 145.907 144.502 145.637C144.779 145.36 145.161 145.222 145.647 145.222C146.127 145.222 146.505 145.36 146.782 145.637C147.059 145.907 147.197 146.247 147.197 146.659C147.197 147.063 147.059 147.4 146.782 147.67C146.505 147.939 146.127 148.074 145.647 148.074C145.161 148.074 144.779 147.939 144.502 147.67C144.232 147.4 144.098 147.063 144.098 146.659ZM152.678 152.162V162H149.971V149.849H152.554L152.678 152.162ZM156.395 149.77L156.373 152.286C156.208 152.256 156.028 152.233 155.833 152.218C155.646 152.203 155.459 152.196 155.272 152.196C154.808 152.196 154.4 152.263 154.048 152.398C153.696 152.525 153.4 152.712 153.161 152.959C152.929 153.199 152.749 153.491 152.622 153.835C152.494 154.18 152.419 154.565 152.397 154.992L151.779 155.037C151.779 154.273 151.854 153.566 152.004 152.915C152.154 152.263 152.378 151.69 152.678 151.196C152.985 150.702 153.367 150.317 153.823 150.04C154.287 149.763 154.823 149.624 155.429 149.624C155.594 149.624 155.77 149.639 155.957 149.669C156.152 149.699 156.298 149.733 156.395 149.77ZM163.223 162.225C162.325 162.225 161.512 162.079 160.786 161.787C160.067 161.487 159.453 161.072 158.944 160.54C158.443 160.008 158.057 159.383 157.788 158.665C157.518 157.946 157.383 157.171 157.383 156.34V155.891C157.383 154.94 157.522 154.079 157.799 153.308C158.076 152.536 158.461 151.878 158.956 151.331C159.45 150.777 160.034 150.354 160.708 150.062C161.381 149.77 162.111 149.624 162.897 149.624C163.766 149.624 164.526 149.77 165.177 150.062C165.829 150.354 166.368 150.766 166.794 151.297C167.229 151.821 167.551 152.447 167.76 153.173C167.977 153.899 168.086 154.7 168.086 155.576V156.733H158.697V154.79H165.413V154.577C165.398 154.09 165.301 153.633 165.121 153.207C164.949 152.78 164.683 152.435 164.324 152.173C163.964 151.911 163.485 151.78 162.886 151.78C162.437 151.78 162.036 151.878 161.685 152.072C161.34 152.259 161.052 152.533 160.82 152.892C160.588 153.251 160.408 153.686 160.281 154.195C160.161 154.696 160.101 155.262 160.101 155.891V156.34C160.101 156.871 160.172 157.366 160.314 157.822C160.464 158.271 160.681 158.665 160.966 159.001C161.25 159.338 161.595 159.604 161.999 159.799C162.403 159.986 162.864 160.08 163.38 160.08C164.032 160.08 164.612 159.949 165.121 159.687C165.63 159.424 166.072 159.054 166.446 158.575L167.873 159.956C167.611 160.338 167.27 160.705 166.851 161.057C166.431 161.401 165.918 161.682 165.312 161.899C164.713 162.116 164.017 162.225 163.223 162.225ZM172.904 152.319V162H170.197V149.849H172.747L172.904 152.319ZM172.466 155.475L171.545 155.464C171.545 154.625 171.65 153.85 171.859 153.139C172.069 152.428 172.376 151.81 172.78 151.286C173.185 150.755 173.686 150.347 174.285 150.062C174.892 149.77 175.592 149.624 176.385 149.624C176.939 149.624 177.445 149.706 177.901 149.871C178.366 150.028 178.766 150.279 179.103 150.624C179.447 150.968 179.709 151.41 179.889 151.949C180.076 152.488 180.17 153.139 180.17 153.903V162H177.463V154.139C177.463 153.547 177.374 153.083 177.194 152.746C177.022 152.409 176.771 152.17 176.441 152.027C176.119 151.878 175.734 151.803 175.285 151.803C174.776 151.803 174.341 151.9 173.982 152.095C173.63 152.289 173.342 152.555 173.117 152.892C172.893 153.229 172.728 153.618 172.623 154.06C172.518 154.502 172.466 154.973 172.466 155.475ZM180.001 154.756L178.732 155.037C178.732 154.303 178.833 153.611 179.036 152.959C179.245 152.301 179.549 151.724 179.945 151.23C180.35 150.728 180.847 150.335 181.439 150.051C182.03 149.766 182.708 149.624 183.472 149.624C184.093 149.624 184.647 149.71 185.134 149.882C185.628 150.047 186.047 150.309 186.392 150.668C186.736 151.028 186.998 151.496 187.178 152.072C187.357 152.641 187.447 153.33 187.447 154.139V162H184.729V154.127C184.729 153.514 184.64 153.038 184.46 152.701C184.288 152.364 184.041 152.132 183.719 152.005C183.397 151.87 183.011 151.803 182.562 151.803C182.143 151.803 181.772 151.881 181.45 152.039C181.136 152.188 180.87 152.402 180.653 152.679C180.436 152.948 180.271 153.259 180.159 153.611C180.054 153.963 180.001 154.345 180.001 154.756ZM195.589 162.225C194.691 162.225 193.879 162.079 193.152 161.787C192.434 161.487 191.82 161.072 191.311 160.54C190.809 160.008 190.423 159.383 190.154 158.665C189.884 157.946 189.75 157.171 189.75 156.34V155.891C189.75 154.94 189.888 154.079 190.165 153.308C190.442 152.536 190.828 151.878 191.322 151.331C191.816 150.777 192.4 150.354 193.074 150.062C193.748 149.77 194.478 149.624 195.264 149.624C196.132 149.624 196.892 149.77 197.543 150.062C198.195 150.354 198.734 150.766 199.161 151.297C199.595 151.821 199.917 152.447 200.126 153.173C200.344 153.899 200.452 154.7 200.452 155.576V156.733H191.063V154.79H197.779V154.577C197.764 154.09 197.667 153.633 197.487 153.207C197.315 152.78 197.049 152.435 196.69 152.173C196.331 151.911 195.851 151.78 195.252 151.78C194.803 151.78 194.403 151.878 194.051 152.072C193.706 152.259 193.418 152.533 193.186 152.892C192.954 153.251 192.774 153.686 192.647 154.195C192.527 154.696 192.467 155.262 192.467 155.891V156.34C192.467 156.871 192.538 157.366 192.681 157.822C192.83 158.271 193.048 158.665 193.332 159.001C193.617 159.338 193.961 159.604 194.365 159.799C194.77 159.986 195.23 160.08 195.747 160.08C196.398 160.08 196.978 159.949 197.487 159.687C197.996 159.424 198.438 159.054 198.812 158.575L200.239 159.956C199.977 160.338 199.636 160.705 199.217 161.057C198.798 161.401 198.285 161.682 197.678 161.899C197.079 162.116 196.383 162.225 195.589 162.225ZM205.248 152.443V162H202.541V149.849H205.09L205.248 152.443ZM204.765 155.475L203.889 155.464C203.896 154.603 204.016 153.813 204.248 153.094C204.488 152.375 204.817 151.758 205.236 151.241C205.663 150.725 206.172 150.328 206.764 150.051C207.355 149.766 208.014 149.624 208.74 149.624C209.324 149.624 209.852 149.706 210.324 149.871C210.803 150.028 211.211 150.287 211.548 150.646C211.892 151.005 212.154 151.473 212.334 152.05C212.514 152.619 212.604 153.319 212.604 154.15V162H209.886V154.139C209.886 153.555 209.8 153.094 209.627 152.757C209.463 152.413 209.219 152.17 208.897 152.027C208.583 151.878 208.19 151.803 207.718 151.803C207.254 151.803 206.839 151.9 206.472 152.095C206.105 152.289 205.794 152.555 205.54 152.892C205.292 153.229 205.102 153.618 204.967 154.06C204.832 154.502 204.765 154.973 204.765 155.475ZM220.937 149.849V151.825H214.086V149.849H220.937ZM216.062 146.873H218.769V158.642C218.769 159.016 218.821 159.305 218.926 159.507C219.039 159.701 219.192 159.833 219.387 159.9C219.581 159.967 219.81 160.001 220.072 160.001C220.259 160.001 220.439 159.99 220.611 159.967C220.783 159.945 220.922 159.922 221.026 159.9L221.038 161.966C220.813 162.034 220.551 162.094 220.251 162.146C219.959 162.198 219.623 162.225 219.241 162.225C218.619 162.225 218.069 162.116 217.59 161.899C217.111 161.674 216.736 161.311 216.467 160.81C216.197 160.308 216.062 159.642 216.062 158.811V146.873Z" fill="black"/>
</g>
<rect x="0.5" y="0.5" width="239" height="239" rx="39.5" stroke="black"/>
</g>
<defs>
<filter id="filter0_i_85_307" x="0" y="0" width="240" height="244" filterUnits="userSpaceOnUse" color-interpolation-filters="sRGB">
<feFlood flood-opacity="0" result="BackgroundImageFix"/>
<feBlend mode="normal" in="SourceGraphic" in2="BackgroundImageFix" result="shape"/>
<feColorMatrix in="SourceAlpha" type="matrix" values="0 0 0 0 0 0 0 0 0 0 0 0 0 0 0 0 0 0 127 0" result="hardAlpha"/>
<feOffset dy="4"/>
<feGaussianBlur stdDeviation="2"/>
<feComposite in2="hardAlpha" operator="arithmetic" k2="-1" k3="1"/>
<feColorMatrix type="matrix" values="0 0 0 0 0 0 0 0 0 0 0 0 0 0 0 0 0 0 0.25 0"/>
<feBlend mode="normal" in2="shape" result="effect1_innerShadow_85_307"/>
</filter>
<filter id="filter1_i_85_307" x="77" y="34" width="86.2798" height="90.28" filterUnits="userSpaceOnUse" color-interpolation-filters="sRGB">
<feFlood flood-opacity="0" result="BackgroundImageFix"/>
<feBlend mode="normal" in="SourceGraphic" in2="BackgroundImageFix" result="shape"/>
<feColorMatrix in="SourceAlpha" type="matrix" values="0 0 0 0 0 0 0 0 0 0 0 0 0 0 0 0 0 0 127 0" result="hardAlpha"/>
<feOffset dy="4"/>
<feGaussianBlur stdDeviation="2"/>
<feComposite in2="hardAlpha" operator="arithmetic" k2="-1" k3="1"/>
<feColorMatrix type="matrix" values="0 0 0 0 0 0 0 0 0 0 0 0 0 0 0 0 0 0 0.25 0"/>
<feBlend mode="normal" in2="shape" result="effect1_innerShadow_85_307"/>
</filter>
<clipPath id="clip0_85_307">
<rect width="240" height="240" rx="40" fill="white"/>
</clipPath>
</defs>
</svg>
