<svg width="248" height="248" viewBox="0 0 248 248" fill="none" xmlns="http://www.w3.org/2000/svg">
<g filter="url(#filter0_d_85_314)">
<rect x="4" width="240" height="240" rx="40" fill="#ECECEC"/>
<rect x="4.5" y="0.5" width="239" height="239" rx="39.5" stroke="black"/>
<path d="M124.14 120.28C147.966 120.28 167.28 100.966 167.28 77.14C167.28 53.3144 147.966 34 124.14 34C100.314 34 81 53.3144 81 77.14C81 100.966 100.314 120.28 124.14 120.28Z" fill="#E0E0D1"/>
<path opacity="0.2" d="M151.103 93.3175C151.103 96.2834 148.676 98.71 145.71 98.71H102.57C99.6044 98.71 97.1777 96.2834 97.1777 93.3175V69.0513C97.1777 66.0854 99.6044 63.6588 102.57 63.6588H145.71C148.676 63.6588 151.103 66.0854 151.103 69.0513V93.3175Z" fill="#231F20"/>
<path d="M132.229 56.9181V83.8806H116.051V56.9181H132.229ZM132.229 51.5256H116.051C113.085 51.5256 110.659 53.9523 110.659 56.9181V83.8806C110.659 86.8465 113.085 89.2731 116.051 89.2731H132.229C135.195 89.2731 137.621 86.8465 137.621 83.8806V56.9181C137.621 53.9523 135.195 51.5256 132.229 51.5256Z" fill="#4F5D73"/>
<path d="M97.1777 73.0956V90.6213C97.1777 93.5871 99.6044 96.0138 102.57 96.0138H145.71C148.676 96.0138 151.103 93.5871 151.103 90.6213V73.0956H97.1777Z" fill="#C75C5C"/>
<path d="M129.532 71.7475V75.7919H118.747V71.7475H129.532ZM129.532 66.355H118.747C115.782 66.355 113.355 68.7816 113.355 71.7475V75.7919C113.355 78.7577 115.782 81.1844 118.747 81.1844H129.532C132.498 81.1844 134.925 78.7577 134.925 75.7919V71.7475C134.925 68.7816 132.498 66.355 129.532 66.355Z" fill="#F5CF87"/>
<path opacity="0.2" d="M151.103 69.0513C151.103 66.0854 148.676 63.6588 145.71 63.6588H102.57C99.6044 63.6588 97.1777 66.0854 97.1777 69.0513V75.7919H151.103V69.0513Z" fill="#231F20"/>
<path d="M151.103 66.355C151.103 63.3891 148.676 60.9625 145.71 60.9625H102.57C99.6044 60.9625 97.1777 63.3891 97.1777 66.355V73.0956H151.103V66.355Z" fill="#C75C5C"/>
<path d="M46.2646 149.789C46.2646 149.452 46.2122 149.152 46.1074 148.89C46.0101 148.628 45.8341 148.389 45.5796 148.171C45.325 147.954 44.9657 147.745 44.5015 147.542C44.0448 147.333 43.4608 147.119 42.7495 146.902C41.9709 146.663 41.2521 146.397 40.5933 146.105C39.9419 145.806 39.3729 145.461 38.8862 145.072C38.3996 144.675 38.0215 144.222 37.752 143.713C37.4824 143.196 37.3477 142.601 37.3477 141.927C37.3477 141.261 37.4862 140.654 37.7632 140.108C38.0477 139.561 38.4482 139.09 38.9648 138.693C39.4889 138.289 40.1066 137.978 40.8179 137.761C41.5291 137.536 42.3153 137.424 43.1763 137.424C44.3892 137.424 45.4336 137.648 46.3096 138.098C47.193 138.547 47.8706 139.15 48.3423 139.906C48.8215 140.662 49.061 141.497 49.061 142.41H46.2646C46.2646 141.871 46.1486 141.396 45.9165 140.984C45.6919 140.565 45.3475 140.235 44.8833 139.996C44.4266 139.756 43.8464 139.636 43.1426 139.636C42.4762 139.636 41.9222 139.737 41.4805 139.939C41.0387 140.142 40.7093 140.415 40.4922 140.759C40.2751 141.104 40.1665 141.493 40.1665 141.927C40.1665 142.234 40.2376 142.515 40.3799 142.77C40.5221 143.017 40.7393 143.249 41.0312 143.466C41.3232 143.675 41.6901 143.874 42.1318 144.061C42.5736 144.248 43.0939 144.428 43.6929 144.6C44.5988 144.87 45.3887 145.169 46.0625 145.499C46.7363 145.82 47.2979 146.187 47.7471 146.599C48.1963 147.011 48.5332 147.479 48.7578 148.003C48.9824 148.52 49.0947 149.107 49.0947 149.766C49.0947 150.455 48.9562 151.076 48.6792 151.63C48.4022 152.177 48.0054 152.645 47.4888 153.034C46.9797 153.416 46.3657 153.712 45.647 153.921C44.9357 154.124 44.1421 154.225 43.2661 154.225C42.48 154.225 41.7051 154.12 40.9414 153.91C40.1852 153.701 39.4964 153.382 38.875 152.956C38.2536 152.521 37.7594 151.982 37.3926 151.338C37.0257 150.687 36.8423 149.927 36.8423 149.059H39.6611C39.6611 149.59 39.751 150.043 39.9307 150.417C40.1178 150.792 40.3761 151.099 40.7056 151.338C41.035 151.57 41.4168 151.743 41.8511 151.855C42.2928 151.967 42.7645 152.023 43.2661 152.023C43.925 152.023 44.4753 151.93 44.917 151.743C45.3662 151.556 45.7031 151.293 45.9277 150.957C46.1523 150.62 46.2646 150.23 46.2646 149.789ZM58.1689 151.563V145.768C58.1689 145.334 58.0903 144.959 57.9331 144.645C57.7759 144.331 57.5363 144.087 57.2144 143.915C56.8999 143.743 56.5031 143.657 56.0239 143.657C55.5822 143.657 55.2004 143.732 54.8784 143.881C54.5565 144.031 54.3057 144.233 54.126 144.488C53.9463 144.742 53.8564 145.031 53.8564 145.353H51.1611C51.1611 144.873 51.2772 144.409 51.5093 143.96C51.7414 143.511 52.0783 143.11 52.52 142.758C52.9618 142.406 53.4896 142.129 54.1035 141.927C54.7174 141.725 55.4062 141.624 56.1699 141.624C57.0833 141.624 57.8919 141.778 58.5957 142.084C59.307 142.391 59.8647 142.856 60.269 143.477C60.6808 144.091 60.8867 144.862 60.8867 145.791V151.192C60.8867 151.746 60.9242 152.244 60.999 152.686C61.0814 153.12 61.1974 153.498 61.3472 153.82V154H58.5732C58.446 153.708 58.3449 153.337 58.27 152.888C58.2026 152.431 58.1689 151.99 58.1689 151.563ZM58.562 146.61L58.5845 148.284H56.6416C56.14 148.284 55.6982 148.332 55.3164 148.43C54.9346 148.52 54.6164 148.654 54.3618 148.834C54.1073 149.014 53.9163 149.231 53.7891 149.485C53.6618 149.74 53.5981 150.028 53.5981 150.35C53.5981 150.672 53.673 150.968 53.8228 151.237C53.9725 151.499 54.1896 151.705 54.4741 151.855C54.7661 152.005 55.118 152.08 55.5298 152.08C56.0838 152.08 56.5667 151.967 56.9785 151.743C57.3978 151.511 57.7272 151.23 57.9668 150.9C58.2064 150.563 58.3337 150.245 58.3486 149.946L59.2246 151.147C59.1348 151.454 58.9813 151.784 58.7642 152.136C58.547 152.488 58.2625 152.825 57.9106 153.146C57.5662 153.461 57.1507 153.719 56.6641 153.921C56.1849 154.124 55.6309 154.225 55.002 154.225C54.2083 154.225 53.5008 154.067 52.8794 153.753C52.258 153.431 51.7713 153 51.4194 152.461C51.0675 151.915 50.8916 151.297 50.8916 150.608C50.8916 149.965 51.0114 149.396 51.251 148.901C51.498 148.4 51.8574 147.98 52.3291 147.644C52.8083 147.307 53.3923 147.052 54.0811 146.88C54.7699 146.7 55.556 146.61 56.4395 146.61H58.562ZM67.4902 151.855L70.4663 141.849H73.2739L69.0513 154H67.2993L67.4902 151.855ZM65.2104 141.849L68.2427 151.9L68.3887 154H66.6367L62.3916 141.849H65.2104ZM80.147 154.225C79.2485 154.225 78.4362 154.079 77.71 153.787C76.9912 153.487 76.3773 153.072 75.8682 152.54C75.3665 152.008 74.981 151.383 74.7114 150.665C74.4419 149.946 74.3071 149.171 74.3071 148.34V147.891C74.3071 146.94 74.4456 146.079 74.7227 145.308C74.9997 144.536 75.3853 143.878 75.8794 143.331C76.3735 142.777 76.9575 142.354 77.6313 142.062C78.3052 141.77 79.0352 141.624 79.8213 141.624C80.6898 141.624 81.4497 141.77 82.1011 142.062C82.7524 142.354 83.2915 142.766 83.7183 143.297C84.1525 143.821 84.4744 144.447 84.6841 145.173C84.9012 145.899 85.0098 146.7 85.0098 147.576V148.733H75.6211V146.79H82.3369V146.577C82.3219 146.09 82.2246 145.633 82.0449 145.207C81.8727 144.78 81.6069 144.435 81.2476 144.173C80.8882 143.911 80.409 143.78 79.8101 143.78C79.3608 143.78 78.9603 143.878 78.6084 144.072C78.264 144.259 77.9757 144.533 77.7437 144.892C77.5116 145.251 77.3319 145.686 77.2046 146.195C77.0848 146.696 77.0249 147.262 77.0249 147.891V148.34C77.0249 148.871 77.096 149.366 77.2383 149.822C77.388 150.271 77.6051 150.665 77.8896 151.001C78.1742 151.338 78.5186 151.604 78.9229 151.799C79.3271 151.986 79.7876 152.08 80.3042 152.08C80.9556 152.08 81.5358 151.949 82.0449 151.687C82.554 151.424 82.9958 151.054 83.3701 150.575L84.7964 151.956C84.5343 152.338 84.1937 152.705 83.7744 153.057C83.3551 153.401 82.8423 153.682 82.2358 153.899C81.6369 154.116 80.9406 154.225 80.147 154.225ZM96.5098 154H93.8032V140.681C93.8032 139.775 93.9717 139.015 94.3086 138.401C94.653 137.779 95.1434 137.312 95.7798 136.997C96.4162 136.675 97.1686 136.514 98.0371 136.514C98.3066 136.514 98.5724 136.533 98.8345 136.57C99.0965 136.6 99.3511 136.649 99.5981 136.716L99.5308 138.805C99.381 138.768 99.2163 138.742 99.0366 138.727C98.8644 138.712 98.6772 138.704 98.4751 138.704C98.0633 138.704 97.7077 138.783 97.4082 138.94C97.1162 139.09 96.8916 139.311 96.7344 139.603C96.5846 139.895 96.5098 140.254 96.5098 140.681V154ZM99.0142 141.849V143.825H91.939V141.849H99.0142ZM100.463 148.059V147.801C100.463 146.925 100.59 146.112 100.845 145.364C101.099 144.608 101.466 143.952 101.945 143.398C102.432 142.837 103.023 142.403 103.72 142.096C104.424 141.781 105.217 141.624 106.101 141.624C106.992 141.624 107.785 141.781 108.481 142.096C109.185 142.403 109.78 142.837 110.267 143.398C110.754 143.952 111.124 144.608 111.379 145.364C111.633 146.112 111.761 146.925 111.761 147.801V148.059C111.761 148.935 111.633 149.747 111.379 150.496C111.124 151.245 110.754 151.9 110.267 152.461C109.78 153.015 109.189 153.45 108.493 153.764C107.796 154.071 107.007 154.225 106.123 154.225C105.232 154.225 104.435 154.071 103.731 153.764C103.035 153.45 102.443 153.015 101.957 152.461C101.47 151.9 101.099 151.245 100.845 150.496C100.59 149.747 100.463 148.935 100.463 148.059ZM103.169 147.801V148.059C103.169 148.606 103.226 149.122 103.338 149.609C103.45 150.096 103.626 150.522 103.866 150.889C104.105 151.256 104.412 151.544 104.787 151.754C105.161 151.964 105.606 152.068 106.123 152.068C106.625 152.068 107.059 151.964 107.426 151.754C107.8 151.544 108.107 151.256 108.347 150.889C108.586 150.522 108.762 150.096 108.875 149.609C108.994 149.122 109.054 148.606 109.054 148.059V147.801C109.054 147.262 108.994 146.753 108.875 146.273C108.762 145.787 108.583 145.356 108.335 144.982C108.096 144.608 107.789 144.316 107.415 144.106C107.048 143.889 106.61 143.78 106.101 143.78C105.591 143.78 105.15 143.889 104.775 144.106C104.409 144.316 104.105 144.608 103.866 144.982C103.626 145.356 103.45 145.787 103.338 146.273C103.226 146.753 103.169 147.262 103.169 147.801ZM116.747 144.162V154H114.041V141.849H116.624L116.747 144.162ZM120.464 141.77L120.442 144.286C120.277 144.256 120.097 144.233 119.903 144.218C119.716 144.203 119.528 144.196 119.341 144.196C118.877 144.196 118.469 144.263 118.117 144.398C117.765 144.525 117.47 144.712 117.23 144.959C116.998 145.199 116.818 145.491 116.691 145.835C116.564 146.18 116.489 146.565 116.466 146.992L115.849 147.037C115.849 146.273 115.924 145.566 116.073 144.915C116.223 144.263 116.448 143.69 116.747 143.196C117.054 142.702 117.436 142.317 117.893 142.04C118.357 141.763 118.892 141.624 119.499 141.624C119.663 141.624 119.839 141.639 120.026 141.669C120.221 141.699 120.367 141.733 120.464 141.77ZM132.852 152.068C133.293 152.068 133.69 151.982 134.042 151.81C134.401 151.63 134.69 151.383 134.907 151.069C135.131 150.754 135.255 150.391 135.277 149.979H137.827C137.812 150.766 137.58 151.481 137.13 152.125C136.681 152.768 136.086 153.281 135.345 153.663C134.604 154.037 133.784 154.225 132.885 154.225C131.957 154.225 131.148 154.067 130.459 153.753C129.771 153.431 129.198 152.989 128.741 152.428C128.285 151.866 127.94 151.219 127.708 150.485C127.483 149.751 127.371 148.965 127.371 148.126V147.733C127.371 146.895 127.483 146.109 127.708 145.375C127.94 144.634 128.285 143.982 128.741 143.421C129.198 142.859 129.771 142.421 130.459 142.107C131.148 141.785 131.953 141.624 132.874 141.624C133.847 141.624 134.701 141.819 135.435 142.208C136.168 142.59 136.745 143.125 137.164 143.814C137.591 144.495 137.812 145.289 137.827 146.195H135.277C135.255 145.746 135.143 145.341 134.94 144.982C134.746 144.615 134.469 144.323 134.109 144.106C133.757 143.889 133.334 143.78 132.84 143.78C132.294 143.78 131.841 143.893 131.481 144.117C131.122 144.334 130.841 144.634 130.639 145.016C130.437 145.39 130.291 145.813 130.201 146.285C130.119 146.749 130.078 147.232 130.078 147.733V148.126C130.078 148.628 130.119 149.115 130.201 149.586C130.284 150.058 130.426 150.481 130.628 150.855C130.838 151.222 131.122 151.518 131.481 151.743C131.841 151.96 132.298 152.068 132.852 152.068ZM139.388 148.059V147.801C139.388 146.925 139.515 146.112 139.77 145.364C140.024 144.608 140.391 143.952 140.87 143.398C141.357 142.837 141.948 142.403 142.645 142.096C143.348 141.781 144.142 141.624 145.025 141.624C145.916 141.624 146.71 141.781 147.406 142.096C148.11 142.403 148.705 142.837 149.192 143.398C149.679 143.952 150.049 144.608 150.304 145.364C150.558 146.112 150.686 146.925 150.686 147.801V148.059C150.686 148.935 150.558 149.747 150.304 150.496C150.049 151.245 149.679 151.9 149.192 152.461C148.705 153.015 148.114 153.45 147.417 153.764C146.721 154.071 145.931 154.225 145.048 154.225C144.157 154.225 143.36 154.071 142.656 153.764C141.959 153.45 141.368 153.015 140.881 152.461C140.395 151.9 140.024 151.245 139.77 150.496C139.515 149.747 139.388 148.935 139.388 148.059ZM142.094 147.801V148.059C142.094 148.606 142.15 149.122 142.263 149.609C142.375 150.096 142.551 150.522 142.791 150.889C143.03 151.256 143.337 151.544 143.711 151.754C144.086 151.964 144.531 152.068 145.048 152.068C145.549 152.068 145.984 151.964 146.351 151.754C146.725 151.544 147.032 151.256 147.271 150.889C147.511 150.522 147.687 150.096 147.799 149.609C147.919 149.122 147.979 148.606 147.979 148.059V147.801C147.979 147.262 147.919 146.753 147.799 146.273C147.687 145.787 147.507 145.356 147.26 144.982C147.021 144.608 146.714 144.316 146.339 144.106C145.972 143.889 145.535 143.78 145.025 143.78C144.516 143.78 144.075 143.889 143.7 144.106C143.333 144.316 143.03 144.608 142.791 144.982C142.551 145.356 142.375 145.787 142.263 146.273C142.15 146.753 142.094 147.262 142.094 147.801ZM155.852 136.75V154H153.134V136.75H155.852ZM161.714 136.75V154H158.996V136.75H161.714ZM170.036 154.225C169.137 154.225 168.325 154.079 167.599 153.787C166.88 153.487 166.266 153.072 165.757 152.54C165.255 152.008 164.87 151.383 164.6 150.665C164.331 149.946 164.196 149.171 164.196 148.34V147.891C164.196 146.94 164.334 146.079 164.611 145.308C164.888 144.536 165.274 143.878 165.768 143.331C166.262 142.777 166.846 142.354 167.52 142.062C168.194 141.77 168.924 141.624 169.71 141.624C170.578 141.624 171.338 141.77 171.99 142.062C172.641 142.354 173.18 142.766 173.607 143.297C174.041 143.821 174.363 144.447 174.573 145.173C174.79 145.899 174.898 146.7 174.898 147.576V148.733H165.51V146.79H172.226V146.577C172.211 146.09 172.113 145.633 171.934 145.207C171.761 144.78 171.496 144.435 171.136 144.173C170.777 143.911 170.298 143.78 169.699 143.78C169.25 143.78 168.849 143.878 168.497 144.072C168.153 144.259 167.864 144.533 167.632 144.892C167.4 145.251 167.221 145.686 167.093 146.195C166.973 146.696 166.914 147.262 166.914 147.891V148.34C166.914 148.871 166.985 149.366 167.127 149.822C167.277 150.271 167.494 150.665 167.778 151.001C168.063 151.338 168.407 151.604 168.812 151.799C169.216 151.986 169.676 152.08 170.193 152.08C170.844 152.08 171.424 151.949 171.934 151.687C172.443 151.424 172.884 151.054 173.259 150.575L174.685 151.956C174.423 152.338 174.082 152.705 173.663 153.057C173.244 153.401 172.731 153.682 172.125 153.899C171.526 154.116 170.829 154.225 170.036 154.225ZM184.792 141.849H187.252V153.663C187.252 154.756 187.02 155.685 186.556 156.448C186.091 157.212 185.444 157.792 184.613 158.189C183.782 158.593 182.82 158.795 181.727 158.795C181.262 158.795 180.746 158.728 180.177 158.593C179.615 158.458 179.069 158.241 178.537 157.942C178.013 157.65 177.575 157.264 177.223 156.785L178.492 155.19C178.926 155.707 179.406 156.085 179.93 156.325C180.454 156.564 181.004 156.684 181.581 156.684C182.202 156.684 182.73 156.568 183.164 156.336C183.606 156.111 183.946 155.778 184.186 155.336C184.426 154.895 184.545 154.356 184.545 153.719V144.6L184.792 141.849ZM176.538 148.059V147.823C176.538 146.902 176.65 146.064 176.875 145.308C177.1 144.544 177.422 143.889 177.841 143.342C178.26 142.788 178.769 142.365 179.368 142.073C179.967 141.774 180.645 141.624 181.401 141.624C182.187 141.624 182.857 141.766 183.411 142.051C183.973 142.335 184.441 142.743 184.815 143.275C185.189 143.799 185.481 144.428 185.691 145.162C185.908 145.888 186.069 146.696 186.174 147.587V148.34C186.076 149.208 185.912 150.002 185.68 150.721C185.448 151.439 185.141 152.061 184.759 152.585C184.377 153.109 183.905 153.513 183.344 153.798C182.79 154.082 182.135 154.225 181.378 154.225C180.637 154.225 179.967 154.071 179.368 153.764C178.777 153.457 178.268 153.027 177.841 152.473C177.422 151.919 177.1 151.267 176.875 150.519C176.65 149.762 176.538 148.943 176.538 148.059ZM179.245 147.823V148.059C179.245 148.613 179.297 149.13 179.402 149.609C179.514 150.088 179.683 150.511 179.907 150.878C180.139 151.237 180.431 151.522 180.783 151.731C181.143 151.934 181.566 152.035 182.052 152.035C182.689 152.035 183.209 151.9 183.613 151.63C184.025 151.361 184.34 150.998 184.557 150.541C184.781 150.077 184.938 149.56 185.028 148.991V146.958C184.983 146.517 184.89 146.105 184.748 145.723C184.613 145.341 184.429 145.008 184.197 144.724C183.965 144.432 183.673 144.207 183.321 144.05C182.969 143.885 182.554 143.803 182.075 143.803C181.588 143.803 181.165 143.908 180.806 144.117C180.446 144.327 180.151 144.615 179.918 144.982C179.694 145.349 179.525 145.776 179.413 146.262C179.301 146.749 179.245 147.269 179.245 147.823ZM195.417 154.225C194.518 154.225 193.706 154.079 192.979 153.787C192.261 153.487 191.647 153.072 191.138 152.54C190.636 152.008 190.25 151.383 189.981 150.665C189.711 149.946 189.577 149.171 189.577 148.34V147.891C189.577 146.94 189.715 146.079 189.992 145.308C190.269 144.536 190.655 143.878 191.149 143.331C191.643 142.777 192.227 142.354 192.901 142.062C193.575 141.77 194.305 141.624 195.091 141.624C195.959 141.624 196.719 141.77 197.371 142.062C198.022 142.354 198.561 142.766 198.988 143.297C199.422 143.821 199.744 144.447 199.954 145.173C200.171 145.899 200.279 146.7 200.279 147.576V148.733H190.891V146.79H197.606V146.577C197.591 146.09 197.494 145.633 197.314 145.207C197.142 144.78 196.876 144.435 196.517 144.173C196.158 143.911 195.679 143.78 195.08 143.78C194.63 143.78 194.23 143.878 193.878 144.072C193.534 144.259 193.245 144.533 193.013 144.892C192.781 145.251 192.601 145.686 192.474 146.195C192.354 146.696 192.294 147.262 192.294 147.891V148.34C192.294 148.871 192.366 149.366 192.508 149.822C192.658 150.271 192.875 150.665 193.159 151.001C193.444 151.338 193.788 151.604 194.192 151.799C194.597 151.986 195.057 152.08 195.574 152.08C196.225 152.08 196.805 151.949 197.314 151.687C197.824 151.424 198.265 151.054 198.64 150.575L200.066 151.956C199.804 152.338 199.463 152.705 199.044 153.057C198.625 153.401 198.112 153.682 197.505 153.899C196.906 154.116 196.21 154.225 195.417 154.225Z" fill="black"/>
</g>
<defs>
<filter id="filter0_d_85_314" x="0" y="0" width="248" height="248" filterUnits="userSpaceOnUse" color-interpolation-filters="sRGB">
<feFlood flood-opacity="0" result="BackgroundImageFix"/>
<feColorMatrix in="SourceAlpha" type="matrix" values="0 0 0 0 0 0 0 0 0 0 0 0 0 0 0 0 0 0 127 0" result="hardAlpha"/>
<feOffset dy="4"/>
<feGaussianBlur stdDeviation="2"/>
<feComposite in2="hardAlpha" operator="out"/>
<feColorMatrix type="matrix" values="0 0 0 0 0 0 0 0 0 0 0 0 0 0 0 0 0 0 0.25 0"/>
<feBlend mode="normal" in2="BackgroundImageFix" result="effect1_dropShadow_85_314"/>
<feBlend mode="normal" in="SourceGraphic" in2="effect1_dropShadow_85_314" result="shape"/>
</filter>
</defs>
</svg>
