<svg width="248" height="248" viewBox="0 0 248 248" fill="none" xmlns="http://www.w3.org/2000/svg">
<g filter="url(#filter0_d_85_315)">
<rect x="4" width="240" height="240" rx="40" fill="#ECECEC"/>
<rect x="4.5" y="0.5" width="239" height="239" rx="39.5" stroke="black"/>
<g filter="url(#filter1_d_85_315)">
<path d="M124.14 121.28C147.966 121.28 167.28 101.966 167.28 78.14C167.28 54.3144 147.966 35 124.14 35C100.314 35 81 54.3144 81 78.14C81 101.966 100.314 121.28 124.14 121.28Z" fill="#4F5D73"/>
<path d="M102.57 83.5325C102.57 85.0154 101.357 86.2287 99.874 86.2287C98.391 86.2287 97.1777 85.0154 97.1777 83.5325V80.8362C97.1777 79.3533 98.391 78.14 99.874 78.14C101.357 78.14 102.57 79.3533 102.57 80.8362V83.5325Z" fill="#C75C5C"/>
<path d="M113.355 72.7475C113.355 74.2304 112.142 75.4437 110.659 75.4437C109.176 75.4437 107.962 74.2304 107.962 72.7475V70.0512C107.962 68.5683 109.176 67.355 110.659 67.355C112.142 67.355 113.355 68.5683 113.355 70.0512V72.7475Z" fill="#F5CF87"/>
<path d="M140.317 72.7475C140.317 74.2304 139.104 75.4437 137.621 75.4437C136.138 75.4437 134.925 74.2304 134.925 72.7475V70.0512C134.925 68.5683 136.138 67.355 137.621 67.355C139.104 67.355 140.317 68.5683 140.317 70.0512V72.7475Z" fill="#F5CF87"/>
<path d="M145.71 83.5325C145.71 85.0154 146.923 86.2287 148.406 86.2287C149.889 86.2287 151.102 85.0154 151.102 83.5325V80.8362C151.102 79.3533 149.889 78.14 148.406 78.14C146.923 78.14 145.71 79.3533 145.71 80.8362V83.5325Z" fill="#76C2AF"/>
<path opacity="0.2" d="M124.14 78.9489L147.058 85.4199C150.968 86.6332 151.103 84.8806 151.103 82.1844V83.8021C151.103 81.1059 151.238 79.2185 148.676 77.7356L124.14 66.0069L99.6044 77.7356C97.1777 79.2185 97.1777 81.1059 97.1777 83.8021V82.1844C97.1777 84.8806 97.3125 86.6332 101.222 85.4199L124.14 78.9489Z" fill="#231F20"/>
<path d="M124.14 76.2526L147.058 82.7236C150.968 83.9369 151.103 82.1844 151.103 79.4881V81.1059C151.103 78.4096 151.238 76.5222 148.676 75.0393L124.14 63.3106L99.6044 75.0393C97.1777 76.5222 97.1777 78.4096 97.1777 81.1059V79.4881C97.1777 82.1844 97.3125 83.9369 101.222 82.7236L124.14 76.2526Z" fill="#E0E0D1"/>
<path opacity="0.2" d="M124.14 63.3106L117.399 66.5461L117.939 78.0052L124.14 76.2526L130.341 78.0052L130.881 66.5461L124.14 63.3106Z" fill="#231F20"/>
<path d="M128.184 93.7782C128.184 95.9352 127.78 97.6878 125.488 97.6878H122.792C120.5 97.6878 120.096 95.9352 120.096 93.7782L118.748 57.5137C118.748 55.3567 121.848 48.3464 124.14 48.3464C126.432 48.3464 129.533 55.3567 129.533 57.5137L128.184 93.7782Z" fill="#E0E0D1"/>
<path opacity="0.2" d="M138.97 100.788L124.14 91.6212L109.311 100.788C107.693 102.002 107.963 103.889 107.963 106.046C107.963 106.046 108.232 108.473 110.659 107.529L124.14 102.406L137.621 107.664C140.048 108.608 140.318 106.181 140.318 106.181C140.318 103.889 140.452 102.137 138.97 100.788Z" fill="#231F20"/>
<path d="M138.97 98.0923L124.14 88.925L109.311 98.0923C107.693 99.3056 107.963 101.193 107.963 103.35C107.963 103.35 108.232 105.777 110.659 104.833L124.14 99.71L137.621 104.968C140.048 105.911 140.318 103.485 140.318 103.485C140.318 101.193 140.452 99.4404 138.97 98.0923Z" fill="#E0E0D1"/>
<path opacity="0.2" d="M126.836 103.754C126.836 105.237 125.623 106.451 124.14 106.451C122.657 106.451 121.444 105.237 121.444 103.754V97.0138C121.444 95.5308 122.657 94.3175 124.14 94.3175C125.623 94.3175 126.836 95.5308 126.836 97.0138V103.754Z" fill="#231F20"/>
<path d="M126.836 101.058C126.836 102.541 125.623 103.754 124.14 103.754C122.657 103.754 121.444 102.541 121.444 101.058V94.3175C121.444 92.8346 122.657 91.6212 124.14 91.6212C125.623 91.6212 126.836 92.8346 126.836 94.3175V101.058Z" fill="#E0E0D1"/>
<path d="M124.14 56.57C125.758 56.57 127.106 54.9523 127.78 52.5256C126.701 50.3686 125.218 48.4813 124.14 48.4813C123.061 48.4813 121.579 50.3686 120.5 52.5256C121.174 54.9523 122.522 56.57 124.14 56.57Z" fill="#77B3D4"/>
</g>
<path d="M73.1187 145.227V163H70.0791V145.227H73.1187ZM78.6973 145.227V147.668H64.5493V145.227H78.6973ZM86.5586 160.351V154.052C86.5586 153.58 86.4731 153.173 86.3022 152.832C86.1313 152.49 85.8709 152.225 85.521 152.038C85.1792 151.851 84.7479 151.757 84.2271 151.757C83.7469 151.757 83.3319 151.839 82.9819 152.001C82.632 152.164 82.3594 152.384 82.1641 152.661C81.9688 152.937 81.8711 153.251 81.8711 153.601H78.9414C78.9414 153.08 79.0675 152.575 79.3198 152.087C79.5721 151.599 79.9383 151.163 80.4185 150.781C80.8986 150.398 81.4723 150.097 82.1396 149.877C82.807 149.658 83.5557 149.548 84.3857 149.548C85.3786 149.548 86.2575 149.715 87.0225 150.048C87.7956 150.382 88.4019 150.887 88.8413 151.562C89.2889 152.229 89.5127 153.068 89.5127 154.077V159.948C89.5127 160.55 89.5534 161.092 89.6348 161.572C89.7243 162.044 89.8504 162.455 90.0132 162.805V163H86.998C86.8597 162.683 86.7498 162.28 86.6685 161.792C86.5952 161.295 86.5586 160.815 86.5586 160.351ZM86.9858 154.968L87.0103 156.787H84.8984C84.3532 156.787 83.873 156.84 83.458 156.945C83.043 157.043 82.6971 157.189 82.4204 157.385C82.1437 157.58 81.9362 157.816 81.7979 158.093C81.6595 158.369 81.5903 158.683 81.5903 159.033C81.5903 159.383 81.6717 159.704 81.8345 159.997C81.9972 160.282 82.2332 160.506 82.5425 160.668C82.8599 160.831 83.2424 160.913 83.6899 160.913C84.2922 160.913 84.8171 160.791 85.2646 160.546C85.7204 160.294 86.0785 159.989 86.3389 159.631C86.5993 159.265 86.7376 158.919 86.7539 158.593L87.7061 159.899C87.6084 160.233 87.4416 160.591 87.2056 160.974C86.9696 161.356 86.6603 161.722 86.2778 162.072C85.9035 162.414 85.4518 162.695 84.9229 162.915C84.402 163.134 83.7998 163.244 83.1162 163.244C82.2536 163.244 81.4845 163.073 80.8091 162.731C80.1336 162.382 79.6047 161.914 79.2222 161.328C78.8397 160.734 78.6484 160.062 78.6484 159.313C78.6484 158.614 78.7786 157.995 79.0391 157.458C79.3076 156.913 79.6982 156.457 80.2109 156.091C80.7318 155.725 81.3665 155.448 82.1152 155.261C82.8639 155.065 83.7184 154.968 84.6787 154.968H86.9858ZM95.5552 144.25V163H92.6011V144.25H95.5552ZM103.758 149.792L98.0088 156.164L94.8594 159.387L94.0903 156.896L96.4707 153.955L100.206 149.792H103.758ZM100.841 163L96.5562 156.799L98.4116 154.736L104.247 163H100.841ZM111.205 163.244C110.228 163.244 109.345 163.085 108.556 162.768C107.774 162.443 107.107 161.991 106.554 161.413C106.008 160.835 105.589 160.156 105.296 159.375C105.003 158.593 104.857 157.751 104.857 156.848V156.359C104.857 155.326 105.007 154.39 105.309 153.552C105.61 152.714 106.029 151.997 106.566 151.403C107.103 150.801 107.738 150.341 108.47 150.024C109.203 149.707 109.996 149.548 110.851 149.548C111.795 149.548 112.621 149.707 113.329 150.024C114.037 150.341 114.623 150.789 115.086 151.367C115.558 151.936 115.908 152.616 116.136 153.405C116.372 154.195 116.49 155.065 116.49 156.018V157.275H106.285V155.163H113.585V154.931C113.569 154.402 113.463 153.906 113.268 153.442C113.08 152.978 112.792 152.604 112.401 152.319C112.01 152.034 111.489 151.892 110.838 151.892C110.35 151.892 109.915 151.997 109.532 152.209C109.158 152.412 108.845 152.709 108.592 153.1C108.34 153.491 108.145 153.963 108.006 154.516C107.876 155.061 107.811 155.676 107.811 156.359V156.848C107.811 157.425 107.888 157.963 108.043 158.459C108.206 158.947 108.442 159.375 108.751 159.741C109.06 160.107 109.435 160.396 109.874 160.607C110.313 160.811 110.814 160.913 111.375 160.913C112.083 160.913 112.714 160.77 113.268 160.485C113.821 160.201 114.301 159.798 114.708 159.277L116.258 160.778C115.973 161.193 115.603 161.592 115.147 161.975C114.692 162.349 114.134 162.654 113.475 162.89C112.824 163.126 112.067 163.244 111.205 163.244ZM132.457 160.351V154.052C132.457 153.58 132.372 153.173 132.201 152.832C132.03 152.49 131.769 152.225 131.419 152.038C131.078 151.851 130.646 151.757 130.125 151.757C129.645 151.757 129.23 151.839 128.88 152.001C128.53 152.164 128.258 152.384 128.062 152.661C127.867 152.937 127.77 153.251 127.77 153.601H124.84C124.84 153.08 124.966 152.575 125.218 152.087C125.471 151.599 125.837 151.163 126.317 150.781C126.797 150.398 127.371 150.097 128.038 149.877C128.705 149.658 129.454 149.548 130.284 149.548C131.277 149.548 132.156 149.715 132.921 150.048C133.694 150.382 134.3 150.887 134.74 151.562C135.187 152.229 135.411 153.068 135.411 154.077V159.948C135.411 160.55 135.452 161.092 135.533 161.572C135.623 162.044 135.749 162.455 135.912 162.805V163H132.896C132.758 162.683 132.648 162.28 132.567 161.792C132.494 161.295 132.457 160.815 132.457 160.351ZM132.884 154.968L132.909 156.787H130.797C130.252 156.787 129.771 156.84 129.356 156.945C128.941 157.043 128.596 157.189 128.319 157.385C128.042 157.58 127.835 157.816 127.696 158.093C127.558 158.369 127.489 158.683 127.489 159.033C127.489 159.383 127.57 159.704 127.733 159.997C127.896 160.282 128.132 160.506 128.441 160.668C128.758 160.831 129.141 160.913 129.588 160.913C130.191 160.913 130.715 160.791 131.163 160.546C131.619 160.294 131.977 159.989 132.237 159.631C132.498 159.265 132.636 158.919 132.652 158.593L133.604 159.899C133.507 160.233 133.34 160.591 133.104 160.974C132.868 161.356 132.559 161.722 132.176 162.072C131.802 162.414 131.35 162.695 130.821 162.915C130.3 163.134 129.698 163.244 129.015 163.244C128.152 163.244 127.383 163.073 126.708 162.731C126.032 162.382 125.503 161.914 125.121 161.328C124.738 160.734 124.547 160.062 124.547 159.313C124.547 158.614 124.677 157.995 124.938 157.458C125.206 156.913 125.597 156.457 126.109 156.091C126.63 155.725 127.265 155.448 128.014 155.261C128.762 155.065 129.617 154.968 130.577 154.968H132.884ZM150.768 149.792V151.94H143.321V149.792H150.768ZM145.47 146.557H148.412V159.35C148.412 159.757 148.469 160.07 148.583 160.29C148.705 160.502 148.871 160.644 149.083 160.717C149.295 160.791 149.543 160.827 149.828 160.827C150.031 160.827 150.226 160.815 150.414 160.791C150.601 160.766 150.751 160.742 150.865 160.717L150.877 162.963C150.633 163.037 150.348 163.102 150.023 163.159C149.706 163.216 149.339 163.244 148.924 163.244C148.249 163.244 147.651 163.126 147.13 162.89C146.609 162.646 146.202 162.251 145.909 161.706C145.616 161.161 145.47 160.437 145.47 159.533V146.557ZM155.992 152.307V163H153.05V149.792H155.858L155.992 152.307ZM160.033 149.707L160.008 152.441C159.829 152.408 159.634 152.384 159.422 152.368C159.219 152.351 159.015 152.343 158.812 152.343C158.307 152.343 157.864 152.417 157.481 152.563C157.099 152.701 156.778 152.905 156.517 153.173C156.265 153.434 156.069 153.751 155.931 154.125C155.793 154.5 155.711 154.919 155.687 155.383L155.016 155.432C155.016 154.602 155.097 153.833 155.26 153.125C155.423 152.417 155.667 151.794 155.992 151.257C156.326 150.72 156.741 150.301 157.237 150C157.742 149.698 158.324 149.548 158.983 149.548C159.162 149.548 159.353 149.564 159.557 149.597C159.768 149.629 159.927 149.666 160.033 149.707ZM165.025 149.792V163H162.071V149.792H165.025ZM161.876 146.325C161.876 145.878 162.022 145.507 162.315 145.214C162.617 144.913 163.032 144.763 163.561 144.763C164.081 144.763 164.492 144.913 164.793 145.214C165.095 145.507 165.245 145.878 165.245 146.325C165.245 146.765 165.095 147.131 164.793 147.424C164.492 147.717 164.081 147.863 163.561 147.863C163.032 147.863 162.617 147.717 162.315 147.424C162.022 147.131 161.876 146.765 161.876 146.325ZM171.202 152.331V168.078H168.26V149.792H170.97L171.202 152.331ZM179.808 156.274V156.53C179.808 157.491 179.694 158.382 179.466 159.204C179.247 160.017 178.917 160.729 178.478 161.34C178.046 161.942 177.513 162.41 176.878 162.744C176.244 163.077 175.511 163.244 174.681 163.244C173.859 163.244 173.139 163.094 172.521 162.792C171.91 162.483 171.393 162.048 170.97 161.486C170.547 160.925 170.205 160.266 169.945 159.509C169.693 158.744 169.514 157.906 169.408 156.994V156.005C169.514 155.037 169.693 154.158 169.945 153.369C170.205 152.579 170.547 151.9 170.97 151.33C171.393 150.76 171.91 150.321 172.521 150.012C173.131 149.702 173.843 149.548 174.657 149.548C175.487 149.548 176.223 149.711 176.866 150.036C177.509 150.354 178.05 150.809 178.49 151.403C178.929 151.989 179.259 152.697 179.479 153.527C179.698 154.349 179.808 155.265 179.808 156.274ZM176.866 156.53V156.274C176.866 155.664 176.809 155.098 176.695 154.577C176.581 154.048 176.402 153.584 176.158 153.186C175.914 152.787 175.601 152.478 175.218 152.258C174.844 152.03 174.392 151.916 173.863 151.916C173.342 151.916 172.895 152.006 172.521 152.185C172.146 152.355 171.833 152.596 171.581 152.905C171.328 153.214 171.133 153.576 170.995 153.991C170.856 154.398 170.759 154.842 170.702 155.322V157.69C170.799 158.276 170.966 158.813 171.202 159.301C171.438 159.79 171.772 160.18 172.203 160.473C172.643 160.758 173.204 160.9 173.888 160.9C174.417 160.9 174.868 160.786 175.243 160.559C175.617 160.331 175.922 160.017 176.158 159.619C176.402 159.212 176.581 158.744 176.695 158.215C176.809 157.686 176.866 157.124 176.866 156.53Z" fill="black"/>
</g>
<defs>
<filter id="filter0_d_85_315" x="0" y="0" width="248" height="248" filterUnits="userSpaceOnUse" color-interpolation-filters="sRGB">
<feFlood flood-opacity="0" result="BackgroundImageFix"/>
<feColorMatrix in="SourceAlpha" type="matrix" values="0 0 0 0 0 0 0 0 0 0 0 0 0 0 0 0 0 0 127 0" result="hardAlpha"/>
<feOffset dy="4"/>
<feGaussianBlur stdDeviation="2"/>
<feComposite in2="hardAlpha" operator="out"/>
<feColorMatrix type="matrix" values="0 0 0 0 0 0 0 0 0 0 0 0 0 0 0 0 0 0 0.25 0"/>
<feBlend mode="normal" in2="BackgroundImageFix" result="effect1_dropShadow_85_315"/>
<feBlend mode="normal" in="SourceGraphic" in2="effect1_dropShadow_85_315" result="shape"/>
</filter>
<filter id="filter1_d_85_315" x="77" y="35" width="94.2798" height="94.28" filterUnits="userSpaceOnUse" color-interpolation-filters="sRGB">
<feFlood flood-opacity="0" result="BackgroundImageFix"/>
<feColorMatrix in="SourceAlpha" type="matrix" values="0 0 0 0 0 0 0 0 0 0 0 0 0 0 0 0 0 0 127 0" result="hardAlpha"/>
<feOffset dy="4"/>
<feGaussianBlur stdDeviation="2"/>
<feComposite in2="hardAlpha" operator="out"/>
<feColorMatrix type="matrix" values="0 0 0 0 0 0 0 0 0 0 0 0 0 0 0 0 0 0 0.25 0"/>
<feBlend mode="normal" in2="BackgroundImageFix" result="effect1_dropShadow_85_315"/>
<feBlend mode="normal" in="SourceGraphic" in2="effect1_dropShadow_85_315" result="shape"/>
</filter>
</defs>
</svg>
