<svg width="248" height="248" viewBox="0 0 248 248" fill="none" xmlns="http://www.w3.org/2000/svg">
<g filter="url(#filter0_d_85_306)">
<g clip-path="url(#clip0_85_306)">
<rect x="4" width="240" height="240" rx="40" fill="#ECECEC"/>
<path d="M15.7612 148.328L19.0181 135.648H20.7251L20.5342 138.917L17.0527 152H15.2783L15.7612 148.328ZM13.3242 135.648L15.9634 148.227L16.1992 152H14.3125L10.5278 135.648H13.3242ZM24.4199 148.193L27.0254 135.648H29.833L26.0483 152H24.1616L24.4199 148.193ZM21.3877 135.648L24.6108 148.361L25.0825 152H23.3081L19.8828 138.917L19.7031 135.648H21.3877ZM34.5498 139.849V152H31.832V139.849H34.5498ZM31.6523 136.659C31.6523 136.247 31.7871 135.907 32.0566 135.637C32.3337 135.36 32.7155 135.222 33.2021 135.222C33.6813 135.222 34.0594 135.36 34.3364 135.637C34.6134 135.907 34.752 136.247 34.752 136.659C34.752 137.063 34.6134 137.4 34.3364 137.67C34.0594 137.939 33.6813 138.074 33.2021 138.074C32.7155 138.074 32.3337 137.939 32.0566 137.67C31.7871 137.4 31.6523 137.063 31.6523 136.659ZM40.2324 142.185V156.672H37.5259V139.849H40.019L40.2324 142.185ZM48.1499 145.812V146.048C48.1499 146.931 48.0451 147.751 47.8354 148.507C47.6333 149.256 47.3301 149.911 46.9258 150.473C46.529 151.027 46.0386 151.457 45.4546 151.764C44.8706 152.071 44.1968 152.225 43.4331 152.225C42.6769 152.225 42.0143 152.086 41.4453 151.809C40.8838 151.525 40.4084 151.124 40.019 150.607C39.6297 150.091 39.3153 149.484 39.0757 148.788C38.8436 148.084 38.6789 147.313 38.5815 146.475V145.565C38.6789 144.674 38.8436 143.865 39.0757 143.139C39.3153 142.413 39.6297 141.788 40.019 141.264C40.4084 140.74 40.8838 140.335 41.4453 140.051C42.0068 139.766 42.6619 139.624 43.4106 139.624C44.1743 139.624 44.8519 139.774 45.4434 140.073C46.0348 140.365 46.5327 140.785 46.937 141.331C47.3413 141.87 47.6445 142.521 47.8467 143.285C48.0488 144.041 48.1499 144.884 48.1499 145.812ZM45.4434 146.048V145.812C45.4434 145.25 45.391 144.73 45.2861 144.251C45.1813 143.764 45.0166 143.338 44.792 142.971C44.5674 142.604 44.2791 142.319 43.9272 142.117C43.5828 141.908 43.1673 141.803 42.6807 141.803C42.2015 141.803 41.7897 141.885 41.4453 142.05C41.1009 142.207 40.8127 142.428 40.5806 142.712C40.3485 142.997 40.1688 143.33 40.0415 143.712C39.9142 144.086 39.8244 144.494 39.772 144.936V147.115C39.8618 147.654 40.0153 148.148 40.2324 148.597C40.4495 149.046 40.7565 149.406 41.1533 149.675C41.5576 149.937 42.0742 150.068 42.7031 150.068C43.1898 150.068 43.6053 149.964 43.9497 149.754C44.2941 149.544 44.5749 149.256 44.792 148.889C45.0166 148.515 45.1813 148.084 45.2861 147.598C45.391 147.111 45.4434 146.594 45.4434 146.048ZM55.8091 152.225C54.9106 152.225 54.0983 152.079 53.3721 151.787C52.6533 151.487 52.0394 151.072 51.5303 150.54C51.0286 150.008 50.6431 149.383 50.3735 148.665C50.104 147.946 49.9692 147.171 49.9692 146.34V145.891C49.9692 144.94 50.1077 144.079 50.3848 143.308C50.6618 142.536 51.0474 141.878 51.5415 141.331C52.0356 140.777 52.6196 140.354 53.2935 140.062C53.9673 139.77 54.6973 139.624 55.4834 139.624C56.3519 139.624 57.1118 139.77 57.7632 140.062C58.4146 140.354 58.9536 140.766 59.3804 141.297C59.8146 141.821 60.1366 142.447 60.3462 143.173C60.5633 143.899 60.6719 144.7 60.6719 145.576V146.733H51.2832V144.79H57.999V144.577C57.984 144.09 57.8867 143.633 57.707 143.207C57.5348 142.78 57.269 142.435 56.9097 142.173C56.5503 141.911 56.0711 141.78 55.4722 141.78C55.0229 141.78 54.6224 141.878 54.2705 142.072C53.9261 142.259 53.6379 142.533 53.4058 142.892C53.1737 143.251 52.994 143.686 52.8667 144.195C52.7469 144.696 52.687 145.262 52.687 145.891V146.34C52.687 146.871 52.7581 147.366 52.9004 147.822C53.0501 148.271 53.2673 148.665 53.5518 149.001C53.8363 149.338 54.1807 149.604 54.585 149.799C54.9893 149.986 55.4497 150.08 55.9663 150.08C56.6177 150.08 57.1979 149.949 57.707 149.687C58.2161 149.424 58.6579 149.054 59.0322 148.575L60.4585 149.956C60.1965 150.338 59.8558 150.705 59.4365 151.057C59.0173 151.401 58.5044 151.682 57.8979 151.899C57.299 152.116 56.6027 152.225 55.8091 152.225ZM73.4746 150.068C73.9163 150.068 74.3132 149.982 74.665 149.81C75.0244 149.63 75.3127 149.383 75.5298 149.069C75.7544 148.754 75.8779 148.391 75.9004 147.979H78.4497C78.4347 148.766 78.2026 149.481 77.7534 150.125C77.3042 150.768 76.709 151.281 75.9678 151.663C75.2266 152.037 74.4067 152.225 73.5083 152.225C72.5799 152.225 71.7713 152.067 71.0825 151.753C70.3937 151.431 69.821 150.989 69.3643 150.428C68.9076 149.866 68.5632 149.219 68.3311 148.485C68.1064 147.751 67.9941 146.965 67.9941 146.126V145.733C67.9941 144.895 68.1064 144.109 68.3311 143.375C68.5632 142.634 68.9076 141.982 69.3643 141.421C69.821 140.859 70.3937 140.421 71.0825 140.107C71.7713 139.785 72.5762 139.624 73.4971 139.624C74.4704 139.624 75.3239 139.819 76.0576 140.208C76.7913 140.59 77.3678 141.125 77.7871 141.814C78.2139 142.495 78.4347 143.289 78.4497 144.195H75.9004C75.8779 143.746 75.7656 143.341 75.5635 142.982C75.3688 142.615 75.0918 142.323 74.7324 142.106C74.3805 141.889 73.9575 141.78 73.4634 141.78C72.9168 141.78 72.4639 141.893 72.1045 142.117C71.7451 142.334 71.4644 142.634 71.2622 143.016C71.0601 143.39 70.9141 143.813 70.8242 144.285C70.7419 144.749 70.7007 145.232 70.7007 145.733V146.126C70.7007 146.628 70.7419 147.115 70.8242 147.586C70.9066 148.058 71.0488 148.481 71.251 148.855C71.4606 149.222 71.7451 149.518 72.1045 149.743C72.4639 149.96 72.9206 150.068 73.4746 150.068ZM83.2451 142.162V152H80.5386V139.849H83.1216L83.2451 142.162ZM86.9624 139.77L86.9399 142.286C86.7752 142.256 86.5955 142.233 86.4009 142.218C86.2137 142.203 86.0265 142.196 85.8394 142.196C85.3752 142.196 84.9671 142.263 84.6152 142.398C84.2633 142.525 83.9676 142.712 83.728 142.959C83.4959 143.199 83.3162 143.491 83.189 143.835C83.0617 144.18 82.9868 144.565 82.9644 144.992L82.3467 145.037C82.3467 144.273 82.4215 143.566 82.5713 142.915C82.721 142.263 82.9456 141.69 83.2451 141.196C83.5521 140.702 83.9339 140.317 84.3906 140.04C84.8548 139.763 85.3901 139.624 85.9966 139.624C86.1613 139.624 86.3372 139.639 86.5244 139.669C86.7191 139.699 86.8651 139.733 86.9624 139.77ZM93.7905 152.225C92.8921 152.225 92.0798 152.079 91.3535 151.787C90.6348 151.487 90.0208 151.072 89.5117 150.54C89.0101 150.008 88.6245 149.383 88.355 148.665C88.0854 147.946 87.9507 147.171 87.9507 146.34V145.891C87.9507 144.94 88.0892 144.079 88.3662 143.308C88.6432 142.536 89.0288 141.878 89.5229 141.331C90.0171 140.777 90.6011 140.354 91.2749 140.062C91.9487 139.77 92.6787 139.624 93.4648 139.624C94.3333 139.624 95.0933 139.77 95.7446 140.062C96.396 140.354 96.9351 140.766 97.3618 141.297C97.7961 141.821 98.118 142.447 98.3276 143.173C98.5448 143.899 98.6533 144.7 98.6533 145.576V146.733H89.2646V144.79H95.9805V144.577C95.9655 144.09 95.8682 143.633 95.6885 143.207C95.5163 142.78 95.2505 142.435 94.8911 142.173C94.5317 141.911 94.0526 141.78 93.4536 141.78C93.0044 141.78 92.6038 141.878 92.252 142.072C91.9076 142.259 91.6193 142.533 91.3872 142.892C91.1551 143.251 90.9754 143.686 90.8481 144.195C90.7284 144.696 90.6685 145.262 90.6685 145.891V146.34C90.6685 146.871 90.7396 147.366 90.8818 147.822C91.0316 148.271 91.2487 148.665 91.5332 149.001C91.8177 149.338 92.1621 149.604 92.5664 149.799C92.9707 149.986 93.4312 150.08 93.9478 150.08C94.5991 150.08 95.1794 149.949 95.6885 149.687C96.1976 149.424 96.6393 149.054 97.0137 148.575L98.4399 149.956C98.1779 150.338 97.8372 150.705 97.418 151.057C96.9987 151.401 96.4858 151.682 95.8794 151.899C95.2804 152.116 94.5841 152.225 93.7905 152.225ZM108.177 149.484V134.75H110.895V152H108.435L108.177 149.484ZM100.271 146.059V145.823C100.271 144.902 100.379 144.064 100.596 143.308C100.813 142.544 101.128 141.889 101.54 141.342C101.951 140.788 102.453 140.365 103.044 140.073C103.636 139.774 104.302 139.624 105.043 139.624C105.777 139.624 106.421 139.766 106.975 140.051C107.529 140.335 108.001 140.743 108.39 141.275C108.779 141.799 109.09 142.428 109.322 143.162C109.554 143.888 109.719 144.696 109.816 145.587V146.34C109.719 147.208 109.554 148.002 109.322 148.721C109.09 149.439 108.779 150.061 108.39 150.585C108.001 151.109 107.525 151.513 106.964 151.798C106.41 152.082 105.762 152.225 105.021 152.225C104.287 152.225 103.625 152.071 103.033 151.764C102.449 151.457 101.951 151.027 101.54 150.473C101.128 149.919 100.813 149.267 100.596 148.519C100.379 147.762 100.271 146.943 100.271 146.059ZM102.977 145.823V146.059C102.977 146.613 103.026 147.13 103.123 147.609C103.228 148.088 103.389 148.511 103.606 148.878C103.823 149.237 104.104 149.522 104.448 149.731C104.8 149.934 105.219 150.035 105.706 150.035C106.32 150.035 106.825 149.9 107.222 149.63C107.619 149.361 107.93 148.998 108.154 148.541C108.386 148.077 108.544 147.56 108.626 146.991V144.958C108.581 144.517 108.487 144.105 108.345 143.723C108.21 143.341 108.027 143.008 107.795 142.724C107.563 142.432 107.275 142.207 106.93 142.05C106.593 141.885 106.193 141.803 105.729 141.803C105.234 141.803 104.815 141.908 104.471 142.117C104.126 142.327 103.842 142.615 103.617 142.982C103.4 143.349 103.239 143.776 103.134 144.262C103.029 144.749 102.977 145.269 102.977 145.823ZM116.622 139.849V152H113.904V139.849H116.622ZM113.725 136.659C113.725 136.247 113.859 135.907 114.129 135.637C114.406 135.36 114.788 135.222 115.274 135.222C115.754 135.222 116.132 135.36 116.409 135.637C116.686 135.907 116.824 136.247 116.824 136.659C116.824 137.063 116.686 137.4 116.409 137.67C116.132 137.939 115.754 138.074 115.274 138.074C114.788 138.074 114.406 137.939 114.129 137.67C113.859 137.4 113.725 137.063 113.725 136.659ZM125.157 139.849V141.825H118.307V139.849H125.157ZM120.283 136.873H122.99V148.642C122.99 149.016 123.042 149.305 123.147 149.507C123.259 149.701 123.413 149.833 123.607 149.9C123.802 149.967 124.03 150.001 124.292 150.001C124.48 150.001 124.659 149.99 124.832 149.967C125.004 149.945 125.142 149.922 125.247 149.9L125.258 151.966C125.034 152.034 124.772 152.094 124.472 152.146C124.18 152.198 123.843 152.225 123.461 152.225C122.84 152.225 122.29 152.116 121.811 151.899C121.331 151.674 120.957 151.311 120.688 150.81C120.418 150.308 120.283 149.642 120.283 148.811V136.873ZM137.938 150.068C138.379 150.068 138.776 149.982 139.128 149.81C139.487 149.63 139.776 149.383 139.993 149.069C140.217 148.754 140.341 148.391 140.363 147.979H142.913C142.898 148.766 142.666 149.481 142.216 150.125C141.767 150.768 141.172 151.281 140.431 151.663C139.689 152.037 138.87 152.225 137.971 152.225C137.043 152.225 136.234 152.067 135.545 151.753C134.857 151.431 134.284 150.989 133.827 150.428C133.37 149.866 133.026 149.219 132.794 148.485C132.569 147.751 132.457 146.965 132.457 146.126V145.733C132.457 144.895 132.569 144.109 132.794 143.375C133.026 142.634 133.37 141.982 133.827 141.421C134.284 140.859 134.857 140.421 135.545 140.107C136.234 139.785 137.039 139.624 137.96 139.624C138.933 139.624 139.787 139.819 140.521 140.208C141.254 140.59 141.831 141.125 142.25 141.814C142.677 142.495 142.898 143.289 142.913 144.195H140.363C140.341 143.746 140.229 143.341 140.026 142.982C139.832 142.615 139.555 142.323 139.195 142.106C138.843 141.889 138.42 141.78 137.926 141.78C137.38 141.78 136.927 141.893 136.567 142.117C136.208 142.334 135.927 142.634 135.725 143.016C135.523 143.39 135.377 143.813 135.287 144.285C135.205 144.749 135.164 145.232 135.164 145.733V146.126C135.164 146.628 135.205 147.115 135.287 147.586C135.369 148.058 135.512 148.481 135.714 148.855C135.924 149.222 136.208 149.518 136.567 149.743C136.927 149.96 137.383 150.068 137.938 150.068ZM151.841 149.563V143.768C151.841 143.334 151.762 142.959 151.605 142.645C151.448 142.331 151.208 142.087 150.886 141.915C150.572 141.743 150.175 141.657 149.696 141.657C149.254 141.657 148.872 141.732 148.55 141.881C148.228 142.031 147.978 142.233 147.798 142.488C147.618 142.742 147.528 143.031 147.528 143.353H144.833C144.833 142.873 144.949 142.409 145.181 141.96C145.413 141.511 145.75 141.11 146.192 140.758C146.634 140.406 147.161 140.129 147.775 139.927C148.389 139.725 149.078 139.624 149.842 139.624C150.755 139.624 151.564 139.778 152.268 140.084C152.979 140.391 153.537 140.856 153.941 141.477C154.353 142.091 154.559 142.862 154.559 143.791V149.192C154.559 149.746 154.596 150.244 154.671 150.686C154.753 151.12 154.869 151.498 155.019 151.82V152H152.245C152.118 151.708 152.017 151.337 151.942 150.888C151.875 150.431 151.841 149.99 151.841 149.563ZM152.234 144.61L152.256 146.284H150.313C149.812 146.284 149.37 146.332 148.988 146.43C148.606 146.52 148.288 146.654 148.034 146.834C147.779 147.014 147.588 147.231 147.461 147.485C147.334 147.74 147.27 148.028 147.27 148.35C147.27 148.672 147.345 148.968 147.495 149.237C147.644 149.499 147.861 149.705 148.146 149.855C148.438 150.005 148.79 150.08 149.202 150.08C149.756 150.08 150.239 149.967 150.65 149.743C151.07 149.511 151.399 149.23 151.639 148.9C151.878 148.563 152.006 148.245 152.021 147.946L152.896 149.147C152.807 149.454 152.653 149.784 152.436 150.136C152.219 150.488 151.934 150.825 151.583 151.146C151.238 151.461 150.823 151.719 150.336 151.921C149.857 152.124 149.303 152.225 148.674 152.225C147.88 152.225 147.173 152.067 146.551 151.753C145.93 151.431 145.443 151 145.091 150.461C144.739 149.915 144.563 149.297 144.563 148.608C144.563 147.965 144.683 147.396 144.923 146.901C145.17 146.4 145.529 145.98 146.001 145.644C146.48 145.307 147.064 145.052 147.753 144.88C148.442 144.7 149.228 144.61 150.111 144.61H152.234ZM160.106 142.162V152H157.4V139.849H159.983L160.106 142.162ZM163.824 139.77L163.801 142.286C163.637 142.256 163.457 142.233 163.262 142.218C163.075 142.203 162.888 142.196 162.701 142.196C162.236 142.196 161.828 142.263 161.477 142.398C161.125 142.525 160.829 142.712 160.589 142.959C160.357 143.199 160.178 143.491 160.05 143.835C159.923 144.18 159.848 144.565 159.826 144.992L159.208 145.037C159.208 144.273 159.283 143.566 159.433 142.915C159.582 142.263 159.807 141.69 160.106 141.196C160.413 140.702 160.795 140.317 161.252 140.04C161.716 139.763 162.251 139.624 162.858 139.624C163.023 139.624 163.199 139.639 163.386 139.669C163.58 139.699 163.726 139.733 163.824 139.77ZM172.707 149.484V134.75H175.425V152H172.965L172.707 149.484ZM164.801 146.059V145.823C164.801 144.902 164.909 144.064 165.126 143.308C165.344 142.544 165.658 141.889 166.07 141.342C166.482 140.788 166.983 140.365 167.575 140.073C168.166 139.774 168.833 139.624 169.574 139.624C170.307 139.624 170.951 139.766 171.505 140.051C172.059 140.335 172.531 140.743 172.92 141.275C173.31 141.799 173.62 142.428 173.853 143.162C174.085 143.888 174.249 144.696 174.347 145.587V146.34C174.249 147.208 174.085 148.002 173.853 148.721C173.62 149.439 173.31 150.061 172.92 150.585C172.531 151.109 172.056 151.513 171.494 151.798C170.94 152.082 170.292 152.225 169.551 152.225C168.818 152.225 168.155 152.071 167.563 151.764C166.979 151.457 166.482 151.027 166.07 150.473C165.658 149.919 165.344 149.267 165.126 148.519C164.909 147.762 164.801 146.943 164.801 146.059ZM167.507 145.823V146.059C167.507 146.613 167.556 147.13 167.653 147.609C167.758 148.088 167.919 148.511 168.136 148.878C168.353 149.237 168.634 149.522 168.979 149.731C169.33 149.934 169.75 150.035 170.236 150.035C170.85 150.035 171.356 149.9 171.752 149.63C172.149 149.361 172.46 148.998 172.685 148.541C172.917 148.077 173.074 147.56 173.156 146.991V144.958C173.111 144.517 173.018 144.105 172.875 143.723C172.741 143.341 172.557 143.008 172.325 142.724C172.093 142.432 171.805 142.207 171.46 142.05C171.124 141.885 170.723 141.803 170.259 141.803C169.765 141.803 169.345 141.908 169.001 142.117C168.657 142.327 168.372 142.615 168.147 142.982C167.93 143.349 167.769 143.776 167.665 144.262C167.56 144.749 167.507 145.269 167.507 145.823ZM191.395 149.484V134.75H194.112V152H191.653L191.395 149.484ZM183.488 146.059V145.823C183.488 144.902 183.597 144.064 183.814 143.308C184.031 142.544 184.346 141.889 184.757 141.342C185.169 140.788 185.671 140.365 186.262 140.073C186.854 139.774 187.52 139.624 188.261 139.624C188.995 139.624 189.639 139.766 190.193 140.051C190.747 140.335 191.219 140.743 191.608 141.275C191.997 141.799 192.308 142.428 192.54 143.162C192.772 143.888 192.937 144.696 193.034 145.587V146.34C192.937 147.208 192.772 148.002 192.54 148.721C192.308 149.439 191.997 150.061 191.608 150.585C191.219 151.109 190.743 151.513 190.182 151.798C189.628 152.082 188.98 152.225 188.239 152.225C187.505 152.225 186.842 152.071 186.251 151.764C185.667 151.457 185.169 151.027 184.757 150.473C184.346 149.919 184.031 149.267 183.814 148.519C183.597 147.762 183.488 146.943 183.488 146.059ZM186.195 145.823V146.059C186.195 146.613 186.243 147.13 186.341 147.609C186.446 148.088 186.607 148.511 186.824 148.878C187.041 149.237 187.322 149.522 187.666 149.731C188.018 149.934 188.437 150.035 188.924 150.035C189.538 150.035 190.043 149.9 190.44 149.63C190.837 149.361 191.147 148.998 191.372 148.541C191.604 148.077 191.761 147.56 191.844 146.991V144.958C191.799 144.517 191.705 144.105 191.563 143.723C191.428 143.341 191.245 143.008 191.013 142.724C190.781 142.432 190.492 142.207 190.148 142.05C189.811 141.885 189.41 141.803 188.946 141.803C188.452 141.803 188.033 141.908 187.688 142.117C187.344 142.327 187.06 142.615 186.835 142.982C186.618 143.349 186.457 143.776 186.352 144.262C186.247 144.749 186.195 145.269 186.195 145.823ZM202.299 152.225C201.401 152.225 200.589 152.079 199.862 151.787C199.144 151.487 198.53 151.072 198.021 150.54C197.519 150.008 197.133 149.383 196.864 148.665C196.594 147.946 196.459 147.171 196.459 146.34V145.891C196.459 144.94 196.598 144.079 196.875 143.308C197.152 142.536 197.538 141.878 198.032 141.331C198.526 140.777 199.11 140.354 199.784 140.062C200.458 139.77 201.188 139.624 201.974 139.624C202.842 139.624 203.602 139.77 204.253 140.062C204.905 140.354 205.444 140.766 205.871 141.297C206.305 141.821 206.627 142.447 206.836 143.173C207.054 143.899 207.162 144.7 207.162 145.576V146.733H197.773V144.79H204.489V144.577C204.474 144.09 204.377 143.633 204.197 143.207C204.025 142.78 203.759 142.435 203.4 142.173C203.041 141.911 202.561 141.78 201.962 141.78C201.513 141.78 201.113 141.878 200.761 142.072C200.416 142.259 200.128 142.533 199.896 142.892C199.664 143.251 199.484 143.686 199.357 144.195C199.237 144.696 199.177 145.262 199.177 145.891V146.34C199.177 146.871 199.248 147.366 199.391 147.822C199.54 148.271 199.757 148.665 200.042 149.001C200.326 149.338 200.671 149.604 201.075 149.799C201.479 149.986 201.94 150.08 202.457 150.08C203.108 150.08 203.688 149.949 204.197 149.687C204.706 149.424 205.148 149.054 205.522 148.575L206.949 149.956C206.687 150.338 206.346 150.705 205.927 151.057C205.507 151.401 204.995 151.682 204.388 151.899C203.789 152.116 203.093 152.225 202.299 152.225ZM209.285 134.75H211.991V149.406L211.733 152H209.285V134.75ZM219.92 145.812V146.048C219.92 146.946 219.819 147.774 219.617 148.53C219.422 149.278 219.123 149.93 218.718 150.484C218.321 151.038 217.827 151.468 217.236 151.775C216.652 152.075 215.974 152.225 215.203 152.225C214.447 152.225 213.788 152.082 213.227 151.798C212.665 151.513 212.193 151.109 211.812 150.585C211.437 150.061 211.134 149.436 210.902 148.709C210.67 147.983 210.505 147.182 210.408 146.306V145.554C210.505 144.67 210.67 143.869 210.902 143.15C211.134 142.424 211.437 141.799 211.812 141.275C212.193 140.743 212.661 140.335 213.215 140.051C213.777 139.766 214.432 139.624 215.181 139.624C215.959 139.624 216.644 139.774 217.236 140.073C217.835 140.373 218.333 140.799 218.729 141.354C219.126 141.9 219.422 142.551 219.617 143.308C219.819 144.064 219.92 144.899 219.92 145.812ZM217.213 146.048V145.812C217.213 145.265 217.168 144.753 217.079 144.273C216.989 143.787 216.839 143.36 216.629 142.993C216.427 142.626 216.15 142.338 215.798 142.128C215.454 141.911 215.023 141.803 214.507 141.803C214.028 141.803 213.616 141.885 213.271 142.05C212.927 142.215 212.639 142.439 212.407 142.724C212.175 143.008 211.991 143.338 211.856 143.712C211.729 144.086 211.643 144.491 211.598 144.925V146.958C211.666 147.519 211.808 148.036 212.025 148.507C212.25 148.972 212.564 149.346 212.968 149.63C213.373 149.907 213.893 150.046 214.529 150.046C215.031 150.046 215.454 149.945 215.798 149.743C216.143 149.541 216.416 149.26 216.618 148.9C216.828 148.534 216.978 148.107 217.067 147.62C217.165 147.133 217.213 146.609 217.213 146.048ZM227.781 139.849V141.825H220.931V139.849H227.781ZM222.907 136.873H225.614V148.642C225.614 149.016 225.666 149.305 225.771 149.507C225.883 149.701 226.037 149.833 226.231 149.9C226.426 149.967 226.654 150.001 226.917 150.001C227.104 150.001 227.283 149.99 227.456 149.967C227.628 149.945 227.766 149.922 227.871 149.9L227.882 151.966C227.658 152.034 227.396 152.094 227.096 152.146C226.804 152.198 226.467 152.225 226.085 152.225C225.464 152.225 224.914 152.116 224.435 151.899C223.955 151.674 223.581 151.311 223.312 150.81C223.042 150.308 222.907 149.642 222.907 148.811V136.873Z" fill="black"/>
<path d="M124.14 120.28C147.966 120.28 167.28 100.966 167.28 77.14C167.28 53.3144 147.966 34 124.14 34C100.314 34 81 53.3144 81 77.14C81 100.966 100.314 120.28 124.14 120.28Z" fill="#77B3D4"/>
<path opacity="0.2" d="M151.103 94.6656C151.103 97.6315 148.676 100.058 145.71 100.058H102.57C99.6044 100.058 97.1777 97.6315 97.1777 94.6656V67.7031C97.1777 64.7372 99.6044 62.3106 102.57 62.3106H145.71C148.676 62.3106 151.103 64.7372 151.103 67.7031V94.6656Z" fill="#231F20"/>
<path d="M151.103 91.9694C151.103 94.9353 148.676 97.3619 145.71 97.3619H102.57C99.6044 97.3619 97.1777 94.9353 97.1777 91.9694V65.0069C97.1777 62.041 99.6044 59.6144 102.57 59.6144H145.71C148.676 59.6144 151.103 62.041 151.103 65.0069V91.9694Z" fill="white"/>
<path d="M97.1777 67.7031H151.103V75.7919H97.1777V67.7031Z" fill="#4F5D73"/>
<path d="M132.229 91.9694C133.718 91.9694 134.925 90.7622 134.925 89.2731C134.925 87.784 133.718 86.5769 132.229 86.5769C130.74 86.5769 129.533 87.784 129.533 89.2731C129.533 90.7622 130.74 91.9694 132.229 91.9694Z" fill="#E0995E"/>
<path d="M143.014 91.9694C144.503 91.9694 145.71 90.7622 145.71 89.2731C145.71 87.784 144.503 86.5769 143.014 86.5769C141.525 86.5769 140.317 87.784 140.317 89.2731C140.317 90.7622 141.525 91.9694 143.014 91.9694Z" fill="#E0995E"/>
<path d="M121.444 91.9694C122.933 91.9694 124.14 90.7622 124.14 89.2731C124.14 87.784 122.933 86.5769 121.444 86.5769C119.955 86.5769 118.748 87.784 118.748 89.2731C118.748 90.7622 119.955 91.9694 121.444 91.9694Z" fill="#E0995E"/>
</g>
<rect x="4.5" y="0.5" width="239" height="239" rx="39.5" stroke="black"/>
</g>
<defs>
<filter id="filter0_d_85_306" x="0" y="0" width="248" height="248" filterUnits="userSpaceOnUse" color-interpolation-filters="sRGB">
<feFlood flood-opacity="0" result="BackgroundImageFix"/>
<feColorMatrix in="SourceAlpha" type="matrix" values="0 0 0 0 0 0 0 0 0 0 0 0 0 0 0 0 0 0 127 0" result="hardAlpha"/>
<feOffset dy="4"/>
<feGaussianBlur stdDeviation="2"/>
<feComposite in2="hardAlpha" operator="out"/>
<feColorMatrix type="matrix" values="0 0 0 0 0 0 0 0 0 0 0 0 0 0 0 0 0 0 0.25 0"/>
<feBlend mode="normal" in2="BackgroundImageFix" result="effect1_dropShadow_85_306"/>
<feBlend mode="normal" in="SourceGraphic" in2="effect1_dropShadow_85_306" result="shape"/>
</filter>
<clipPath id="clip0_85_306">
<rect x="4" width="240" height="240" rx="40" fill="white"/>
</clipPath>
</defs>
</svg>
