<svg width="220" height="85" viewBox="0 0 220 85" fill="none" xmlns="http://www.w3.org/2000/svg">
<mask id="path-1-inside-1_155_443" fill="white">
<path d="M6.40869 52.7124C6.40869 58.3976 8.93229 61.2402 13.9795 61.2402C18.9014 61.2402 21.3623 58.3976 21.3623 52.7124C21.3623 47.1183 18.9014 44.3213 13.9795 44.3213C8.93229 44.3213 6.40869 47.1183 6.40869 52.7124ZM1.70898 52.8149C1.70898 44.5321 5.79915 40.3906 13.9795 40.3906C22.0345 40.3906 26.062 44.5321 26.062 52.8149C26.062 61.0522 22.0345 65.1709 13.9795 65.1709C6.16374 65.1709 2.07357 61.0522 1.70898 52.8149ZM34.4531 60.3174C35.5811 60.9326 36.7944 61.2402 38.0933 61.2402C40.7935 61.2402 42.1436 59.3433 42.1436 55.5493C42.1436 52.325 40.651 50.7129 37.666 50.7129C36.3786 50.7129 35.3076 50.7926 34.4531 50.9521V60.3174ZM29.9243 47.7905C32.3055 47.3006 34.8234 47.0557 37.478 47.0557C43.5734 47.0557 46.6211 49.8983 46.6211 55.5835C46.6211 61.8612 43.7842 65 38.1104 65C36.9027 65 35.6836 64.7152 34.4531 64.1455V71.4941H29.9243V47.7905ZM57.627 47.0557C63.0729 47.0557 65.7959 49.8356 65.7959 55.3955C65.7959 56.1361 65.7446 56.8766 65.6421 57.6172H53.7305C53.7305 60.1465 55.5876 61.4111 59.3018 61.4111C61.1133 61.4111 62.9248 61.2402 64.7363 60.8984V64.4873C63.1527 64.8291 61.2272 65 58.96 65C52.4544 65 49.2017 61.9409 49.2017 55.8228C49.2017 49.978 52.0101 47.0557 57.627 47.0557ZM53.7305 54.4727H61.3867V54.3359C61.3867 51.8522 60.1335 50.6104 57.627 50.6104C55.2344 50.6104 53.9355 51.8978 53.7305 54.4727ZM69.1968 65V47.0557H72.7002L73.2642 49.6875C74.9845 47.9329 76.9442 47.0557 79.1431 47.0557C83.3927 47.0557 85.5176 49.266 85.5176 53.6865V65H80.9888V53.6865C80.9888 51.7041 80.0033 50.7129 78.0322 50.7129C76.5625 50.7129 75.127 51.2996 73.7256 52.4731V65H69.1968Z"/>
</mask>
<path d="M6.40869 52.7124C6.40869 58.3976 8.93229 61.2402 13.9795 61.2402C18.9014 61.2402 21.3623 58.3976 21.3623 52.7124C21.3623 47.1183 18.9014 44.3213 13.9795 44.3213C8.93229 44.3213 6.40869 47.1183 6.40869 52.7124ZM1.70898 52.8149C1.70898 44.5321 5.79915 40.3906 13.9795 40.3906C22.0345 40.3906 26.062 44.5321 26.062 52.8149C26.062 61.0522 22.0345 65.1709 13.9795 65.1709C6.16374 65.1709 2.07357 61.0522 1.70898 52.8149ZM34.4531 60.3174C35.5811 60.9326 36.7944 61.2402 38.0933 61.2402C40.7935 61.2402 42.1436 59.3433 42.1436 55.5493C42.1436 52.325 40.651 50.7129 37.666 50.7129C36.3786 50.7129 35.3076 50.7926 34.4531 50.9521V60.3174ZM29.9243 47.7905C32.3055 47.3006 34.8234 47.0557 37.478 47.0557C43.5734 47.0557 46.6211 49.8983 46.6211 55.5835C46.6211 61.8612 43.7842 65 38.1104 65C36.9027 65 35.6836 64.7152 34.4531 64.1455V71.4941H29.9243V47.7905ZM57.627 47.0557C63.0729 47.0557 65.7959 49.8356 65.7959 55.3955C65.7959 56.1361 65.7446 56.8766 65.6421 57.6172H53.7305C53.7305 60.1465 55.5876 61.4111 59.3018 61.4111C61.1133 61.4111 62.9248 61.2402 64.7363 60.8984V64.4873C63.1527 64.8291 61.2272 65 58.96 65C52.4544 65 49.2017 61.9409 49.2017 55.8228C49.2017 49.978 52.0101 47.0557 57.627 47.0557ZM53.7305 54.4727H61.3867V54.3359C61.3867 51.8522 60.1335 50.6104 57.627 50.6104C55.2344 50.6104 53.9355 51.8978 53.7305 54.4727ZM69.1968 65V47.0557H72.7002L73.2642 49.6875C74.9845 47.9329 76.9442 47.0557 79.1431 47.0557C83.3927 47.0557 85.5176 49.266 85.5176 53.6865V65H80.9888V53.6865C80.9888 51.7041 80.0033 50.7129 78.0322 50.7129C76.5625 50.7129 75.127 51.2996 73.7256 52.4731V65H69.1968Z" fill="#2F3437"/>
<path d="M1.70898 52.8149H0.708984V52.8371L0.709962 52.8592L1.70898 52.8149ZM5.40869 52.7124C5.40869 55.6818 6.06515 58.0956 7.55357 59.7722C9.06214 61.4714 11.2689 62.2402 13.9795 62.2402V60.2402C11.6429 60.2402 10.0642 59.5877 9.04921 58.4444C8.01404 57.2783 7.40869 55.4282 7.40869 52.7124H5.40869ZM13.9795 62.2402C16.6352 62.2402 18.7976 61.4666 20.2726 59.7628C21.7238 58.0865 22.3623 55.6766 22.3623 52.7124H20.3623C20.3623 55.4334 19.7703 57.2874 18.7606 58.4538C17.7747 59.5925 16.2457 60.2402 13.9795 60.2402V62.2402ZM22.3623 52.7124C22.3623 49.7905 21.7224 47.4122 20.2674 45.7585C18.7909 44.0804 16.6302 43.3213 13.9795 43.3213V45.3213C16.2507 45.3213 17.7814 45.9607 18.7658 47.0796C19.7718 48.223 20.3623 50.0403 20.3623 52.7124H22.3623ZM13.9795 43.3213C11.2737 43.3213 9.06875 44.0758 7.55893 45.7492C6.06674 47.4031 5.40869 49.7852 5.40869 52.7124H7.40869C7.40869 50.0455 8.01245 48.2321 9.04386 47.089C10.0576 45.9653 11.6381 45.3213 13.9795 45.3213V43.3213ZM2.70898 52.8149C2.70898 48.8245 3.69397 46.016 5.48811 44.1994C7.27998 42.3851 10.0466 41.3906 13.9795 41.3906V39.3906C9.73201 39.3906 6.36341 40.4669 4.06511 42.794C1.76909 45.1188 0.708984 48.5225 0.708984 52.8149H2.70898ZM13.9795 41.3906C17.8457 41.3906 20.5633 42.3829 22.3245 44.1939C24.0907 46.0101 25.062 48.8208 25.062 52.8149H27.062C27.062 48.5262 26.0196 45.1248 23.7583 42.7995C21.492 40.4691 18.1683 39.3906 13.9795 39.3906V41.3906ZM25.062 52.8149C25.062 56.785 24.0914 59.5778 22.3264 61.3828C20.5655 63.1836 17.8471 64.1709 13.9795 64.1709V66.1709C18.1669 66.1709 21.4898 65.0989 23.7564 62.7811C26.0189 60.4674 27.062 57.0822 27.062 52.8149H25.062ZM13.9795 64.1709C10.2429 64.1709 7.55913 63.1893 5.7596 61.3773C3.95142 59.5565 2.8839 56.7449 2.70801 52.7707L0.709962 52.8592C0.89865 57.1223 2.05851 60.4887 4.34049 62.7866C6.63114 65.0932 9.90033 66.1709 13.9795 66.1709V64.1709ZM34.4531 60.3174H33.4531V60.911L33.9743 61.1953L34.4531 60.3174ZM34.4531 50.9521L34.2696 49.9691L33.4531 50.1215V50.9521H34.4531ZM29.9243 47.7905L29.7228 46.811L28.9243 46.9753V47.7905H29.9243ZM34.4531 64.1455L34.8732 63.238L33.4531 62.5806V64.1455H34.4531ZM34.4531 71.4941V72.4941H35.4531V71.4941H34.4531ZM29.9243 71.4941H28.9243V72.4941H29.9243V71.4941ZM33.9743 61.1953C35.2508 61.8915 36.629 62.2402 38.0933 62.2402V60.2402C36.9598 60.2402 35.9114 59.9737 34.932 59.4395L33.9743 61.1953ZM38.0933 62.2402C39.7076 62.2402 41.0511 61.6543 41.9457 60.3974C42.7958 59.203 43.1436 57.5346 43.1436 55.5493H41.1436C41.1436 57.358 40.8163 58.5351 40.3163 59.2377C39.8607 59.8777 39.1791 60.2402 38.0933 60.2402V62.2402ZM43.1436 55.5493C43.1436 53.8014 42.7406 52.304 41.758 51.2426C40.7619 50.1667 39.3333 49.7129 37.666 49.7129V51.7129C38.9837 51.7129 39.7939 52.0651 40.2904 52.6014C40.8003 53.1521 41.1436 54.073 41.1436 55.5493H43.1436ZM37.666 49.7129C36.3434 49.7129 35.206 49.7943 34.2696 49.9691L34.6366 51.9352C35.4093 51.7909 36.4138 51.7129 37.666 51.7129V49.7129ZM33.4531 50.9521V60.3174H35.4531V50.9521H33.4531ZM30.1258 48.77C32.435 48.2949 34.885 48.0557 37.478 48.0557V46.0557C34.7618 46.0557 32.176 46.3063 29.7228 46.811L30.1258 48.77ZM37.478 48.0557C40.3882 48.0557 42.3846 48.7357 43.6533 49.9189C44.9087 51.0899 45.6211 52.9136 45.6211 55.5835H47.6211C47.6211 52.5682 46.8096 50.1279 45.0174 48.4563C43.2383 46.797 40.6632 46.0557 37.478 46.0557V48.0557ZM45.6211 55.5835C45.6211 58.5918 44.9392 60.6613 43.7515 61.9753C42.5812 63.2702 40.7656 64 38.1104 64V66C41.129 66 43.5687 65.1604 45.2353 63.3164C46.8845 61.4916 47.6211 58.8529 47.6211 55.5835H45.6211ZM38.1104 64C37.0647 64 35.9883 63.7543 34.8732 63.238L34.033 65.053C35.3789 65.6761 36.7407 66 38.1104 66V64ZM33.4531 64.1455V71.4941H35.4531V64.1455H33.4531ZM34.4531 70.4941H29.9243V72.4941H34.4531V70.4941ZM30.9243 71.4941V47.7905H28.9243V71.4941H30.9243ZM65.6421 57.6172V58.6172H66.5132L66.6326 57.7543L65.6421 57.6172ZM53.7305 57.6172V56.6172H52.7305V57.6172H53.7305ZM64.7363 60.8984H65.7363V59.6921L64.5509 59.9158L64.7363 60.8984ZM64.7363 64.4873L64.9473 65.4648L65.7363 65.2945V64.4873H64.7363ZM53.7305 54.4727L52.7336 54.3933L52.6477 55.4727H53.7305V54.4727ZM61.3867 54.4727V55.4727H62.3867V54.4727H61.3867ZM57.627 48.0557C60.1905 48.0557 61.9307 48.7086 63.0393 49.8404C64.1516 50.976 64.7959 52.7646 64.7959 55.3955H66.7959C66.7959 52.4666 66.0787 50.0852 64.468 48.4409C62.8537 46.7927 60.5094 46.0557 57.627 46.0557V48.0557ZM64.7959 55.3955C64.7959 56.0898 64.7478 56.7845 64.6515 57.48L66.6326 57.7543C66.7414 56.9688 66.7959 56.1824 66.7959 55.3955H64.7959ZM65.6421 56.6172H53.7305V58.6172H65.6421V56.6172ZM52.7305 57.6172C52.7305 59.1642 53.3206 60.4449 54.5604 61.2892C55.7314 62.0866 57.3624 62.4111 59.3018 62.4111V60.4111C57.5269 60.4111 56.3722 60.1033 55.6862 59.6361C55.0689 59.2158 54.7305 58.5995 54.7305 57.6172H52.7305ZM59.3018 62.4111C61.1766 62.4111 63.0502 62.2342 64.9217 61.8811L64.5509 59.9158C62.7994 60.2462 61.05 60.4111 59.3018 60.4111V62.4111ZM63.7363 60.8984V64.4873H65.7363V60.8984H63.7363ZM64.5254 63.5098C63.0324 63.832 61.1821 64 58.96 64V66C61.2723 66 63.273 65.8262 64.9473 65.4648L64.5254 63.5098ZM58.96 64C55.8466 64 53.6976 63.2668 52.3263 61.9772C50.9666 60.6985 50.2017 58.7115 50.2017 55.8228H48.2017C48.2017 59.0522 49.0631 61.6538 50.9562 63.4342C52.8377 65.2036 55.5678 66 58.96 66V64ZM50.2017 55.8228C50.2017 53.0448 50.8696 51.1467 52.029 49.9403C53.1812 48.7414 54.983 48.0557 57.627 48.0557V46.0557C54.654 46.0557 52.2432 46.8311 50.587 48.5545C48.9379 50.2705 48.2017 52.756 48.2017 55.8228H50.2017ZM53.7305 55.4727H61.3867V53.4727H53.7305V55.4727ZM62.3867 54.4727V54.3359H60.3867V54.4727H62.3867ZM62.3867 54.3359C62.3867 52.9376 62.0329 51.7057 61.1506 50.8314C60.27 49.9588 59.0321 49.6104 57.627 49.6104V51.6104C58.7284 51.6104 59.3703 51.8828 59.7429 52.2521C60.1139 52.6197 60.3867 53.2505 60.3867 54.3359H62.3867ZM57.627 49.6104C56.2514 49.6104 55.0436 49.9844 54.1544 50.8657C53.2766 51.7358 52.8474 52.9647 52.7336 54.3933L54.7273 54.5521C54.8186 53.4058 55.1414 52.7035 55.5624 52.2861C55.9721 51.8801 56.6099 51.6104 57.627 51.6104V49.6104ZM69.1968 65H68.1968V66H69.1968V65ZM69.1968 47.0557V46.0557H68.1968V47.0557H69.1968ZM72.7002 47.0557L73.678 46.8461L73.5086 46.0557H72.7002V47.0557ZM73.2642 49.6875L72.2864 49.897L72.6761 51.7156L73.9782 50.3876L73.2642 49.6875ZM85.5176 65V66H86.5176V65H85.5176ZM80.9888 65H79.9888V66H80.9888V65ZM73.7256 52.4731L73.0836 51.7065L72.7256 52.0062V52.4731H73.7256ZM73.7256 65V66H74.7256V65H73.7256ZM70.1968 65V47.0557H68.1968V65H70.1968ZM69.1968 48.0557H72.7002V46.0557H69.1968V48.0557ZM71.7224 47.2652L72.2864 49.897L74.242 49.478L73.678 46.8461L71.7224 47.2652ZM73.9782 50.3876C75.5347 48.8001 77.2456 48.0557 79.1431 48.0557V46.0557C76.6428 46.0557 74.4343 47.0657 72.5501 48.9874L73.9782 50.3876ZM79.1431 48.0557C81.1035 48.0557 82.3926 48.5634 83.203 49.4064C84.0205 50.2568 84.5176 51.6207 84.5176 53.6865H86.5176C86.5176 51.3317 85.9522 49.3803 84.6449 48.0203C83.3304 46.6531 81.4323 46.0557 79.1431 46.0557V48.0557ZM84.5176 53.6865V65H86.5176V53.6865H84.5176ZM85.5176 64H80.9888V66H85.5176V64ZM81.9888 65V53.6865H79.9888V65H81.9888ZM81.9888 53.6865C81.9888 52.5426 81.7039 51.5007 80.9588 50.7512C80.2125 50.0007 79.1733 49.7129 78.0322 49.7129V51.7129C78.8621 51.7129 79.3012 51.9207 79.5405 52.1614C79.7808 52.4031 79.9888 52.848 79.9888 53.6865H81.9888ZM78.0322 49.7129C76.2748 49.7129 74.6197 50.4201 73.0836 51.7065L74.3676 53.2398C75.6342 52.1792 76.8502 51.7129 78.0322 51.7129V49.7129ZM72.7256 52.4731V65H74.7256V52.4731H72.7256ZM73.7256 64H69.1968V66H73.7256V64Z" fill="black" mask="url(#path-1-inside-1_155_443)"/>
<path d="M106.58 40.5615V65H103.418V40.5615H106.58ZM112.578 65V47.0557H114.714L115.278 49.3457C117.113 47.819 119.129 47.0557 121.328 47.0557C125.806 47.0557 128.044 49.283 128.044 53.7378V65H124.883V53.6865C124.883 51.0205 123.556 49.6875 120.901 49.6875C119.089 49.6875 117.369 50.4451 115.74 51.9604V65H112.578ZM130.625 47.0557H134.043L139.187 61.1206L144.297 47.0557H147.715L140.417 65H137.478L130.625 47.0557ZM157.678 47.0557C162.782 47.0557 165.334 49.5793 165.334 54.6265C165.334 55.3442 165.283 56.1133 165.181 56.9336H152.585C152.585 60.6022 154.727 62.4365 159.011 62.4365C161.051 62.4365 162.862 62.2087 164.446 61.7529V64.3164C162.862 64.7721 160.937 65 158.669 65C152.506 65 149.424 61.9409 149.424 55.8228C149.424 49.978 152.175 47.0557 157.678 47.0557ZM152.585 54.3018H162.292C162.224 51.1572 160.686 49.585 157.678 49.585C154.488 49.585 152.791 51.1572 152.585 54.3018ZM169.419 64.1455V61.4111C171.527 62.0947 173.657 62.4365 175.811 62.4365C178.67 62.4365 180.1 61.582 180.1 59.873C180.1 58.278 179.103 57.4805 177.109 57.4805H174.546C170.672 57.4805 168.735 55.7145 168.735 52.1826C168.735 48.7646 171.225 47.0557 176.204 47.0557C178.346 47.0557 180.47 47.3405 182.578 47.9102V50.6445C180.47 49.9609 178.346 49.6191 176.204 49.6191C173.219 49.6191 171.726 50.4736 171.726 52.1826C171.726 53.7777 172.666 54.5752 174.546 54.5752H177.109C181.211 54.5752 183.262 56.3411 183.262 59.873C183.262 63.291 180.778 65 175.811 65C173.657 65 171.527 64.7152 169.419 64.1455ZM187.534 44.1504H189.517L190.2 47.0557H195.054V49.6191H190.696V59.9243C190.696 61.5991 191.419 62.4365 192.866 62.4365H195.054V65H192.046C189.038 65 187.534 63.3879 187.534 60.1636V44.1504Z" fill="#007A60"/>
<path d="M144.539 51.1036L156.982 19.5376L176.696 38.2154L186.122 10.1056" stroke="#007A60" stroke-width="3" stroke-miterlimit="10"/>
<path d="M189.591 1.57736L189.455 16.3468L186.499 10.7962L181.621 10.9807L189.591 1.57736Z" fill="#007A60"/>
</svg>
