<svg width="90" height="90" viewBox="0 0 90 90" fill="none" xmlns="http://www.w3.org/2000/svg">
<g clip-path="url(#clip0_15_90)">
<path d="M37.6876 38.4375C37.1211 38.4616 36.5649 38.5972 36.0509 38.8365C35.5368 39.0758 35.075 39.4141 34.6919 39.832C34.3087 40.25 34.0118 40.7394 33.818 41.2723C33.6242 41.8052 33.5374 42.371 33.5626 42.9375C33.5374 43.504 33.6242 44.0698 33.818 44.6027C34.0118 45.1356 34.3087 45.625 34.6919 46.043C35.075 46.4609 35.5368 46.7992 36.0509 47.0385C36.5649 47.2778 37.1211 47.4134 37.6876 47.4375C38.8811 47.4375 40.0257 46.9634 40.8696 46.1195C41.7135 45.2756 42.1876 44.131 42.1876 42.9375C42.1876 41.744 41.7135 40.5994 40.8696 39.7555C40.0257 38.9116 38.8811 38.4375 37.6876 38.4375Z" fill="#7289DA"/>
<path d="M52.5 38.4375C51.5978 38.3621 50.6938 38.5605 49.9062 39.0069C49.1185 39.4533 48.4839 40.1269 48.0851 40.9397C47.6863 41.7525 47.5419 42.6666 47.6709 43.5627C47.7998 44.4588 48.196 45.2952 48.8078 45.9626C49.4196 46.63 50.2184 47.0973 51.1 47.3035C51.9815 47.5098 52.9047 47.4453 53.7491 47.1186C54.5934 46.7918 55.3195 46.218 55.8326 45.4721C56.3457 44.7262 56.6218 43.8428 56.625 42.9375C56.6501 42.371 56.5634 41.8052 56.3696 41.2723C56.1758 40.7394 55.8788 40.25 55.4957 39.832C55.1126 39.4141 54.6508 39.0757 54.1367 38.8365C53.6227 38.5972 53.0665 38.4616 52.5 38.4375Z" fill="#7289DA"/>
<path d="M72.1875 3.75H17.8125C15.5747 3.75 13.4286 4.63895 11.8463 6.22129C10.2639 7.80362 9.375 9.94974 9.375 12.1875V68.0625C9.375 70.3003 10.2639 72.4464 11.8463 74.0287C13.4286 75.611 15.5747 76.5 17.8125 76.5H63.9375L61.6875 68.8125L66.9375 73.875L71.8125 78.375L80.625 86.25V12.1875C80.625 9.94974 79.7361 7.80362 78.1537 6.22129C76.5714 4.63895 74.4253 3.75 72.1875 3.75ZM56.625 57.5625L53.8125 54.1875C56.8126 53.5059 59.4717 51.7776 61.3125 49.3125C59.8294 50.2693 58.2601 51.0854 56.625 51.75C54.7036 52.6033 52.6904 53.2325 50.625 53.625C47.156 54.2841 43.594 54.2841 40.125 53.625C38.0765 53.1673 36.0696 52.5402 34.125 51.75L31.125 50.4375H30.75C30.75 50.25 30.75 50.25 30.5625 50.25L29.4375 49.5C31.1843 51.8929 33.6994 53.6137 36.5625 54.375L33.9375 57.75C31.4982 57.8183 29.079 57.2904 26.8899 56.2122C24.7007 55.134 22.8077 53.5379 21.375 51.5625C21.5044 43.2078 23.5575 34.9952 27.375 27.5625C30.62 24.9246 34.6336 23.4112 38.8125 23.25L39.1875 23.625C35.2838 24.6697 31.6428 26.5221 28.5 29.0625L30.9375 27.9375C33.7912 26.4507 36.9166 25.5578 40.125 25.3125H40.875C43.5551 25.0312 46.2574 25.0312 48.9375 25.3125C53.2969 25.7233 57.5172 27.0662 61.3125 29.25C58.3808 26.7525 54.9179 24.957 51.1875 24L51.75 23.4375C55.9289 23.5987 59.9425 25.1121 63.1875 27.75C66.8967 35.2142 68.883 43.4158 69 51.75C69 51.75 65.625 57.375 56.625 57.5625Z" fill="#7289DA"/>
</g>
<defs>
<clipPath id="clip0_15_90">
<rect width="90" height="90" fill="white"/>
</clipPath>
</defs>
</svg>
