<svg width="801" height="838" viewBox="0 0 801 838" fill="none" xmlns="http://www.w3.org/2000/svg">
<path d="M65 250.75V232.859L88.25 212L99.875 223.625L111.5 184.875L134.75 212L150.25 196.5L138.625 184.875H169.625V215.875L158 204.25L134.75 227.5L115.375 204.25L103.75 243L88.25 227.5L65 250.75Z" fill="#37BE83"/>
<path d="M169.625 301.125H158V250.75L169.625 262.375V301.125ZM146.375 301.125H134.75V274L146.375 262.375V301.125ZM123.125 301.125H111.5V277.875L117.313 254.625L123.125 262.375V301.125ZM99.875 301.125H88.25V274L99.875 285.625V301.125ZM76.625 301.125H65V297.25L76.625 285.625V301.125Z" fill="#007A60"/>
<path d="M95.9889 411.188C99.7372 419.155 105.339 426.77 112.667 433.861C97.3066 431.554 84.5352 422.18 77.5994 409.214L95.9887 411.188H95.9889ZM112.388 339.765C97.4239 342.109 84.9631 351.151 77.9928 363.668L95.9933 361.896C99.6953 354.09 105.212 346.661 112.388 339.765L112.388 339.765ZM118.032 362.133L118.281 339.244H118.23C110.18 346.272 104.053 353.879 99.9702 361.93L118.031 362.133L118.032 362.133ZM79.1549 369.24L75.8297 369.21L72.5422 369.168L72.2842 392.94L58.9743 369.024L51.5536 368.943L51.1899 402.772L54.4984 402.819L57.7899 402.848L58.0523 378.462L71.7474 403.001L78.796 403.081L79.1556 369.239L79.1549 369.24ZM110.788 375.591L110.818 372.574L110.856 369.579L85.9453 369.312L85.5817 403.154L111.267 403.425L111.3 400.417L111.33 397.417L92.7188 397.218L92.8118 388.389L109.359 388.566L109.388 385.664L109.418 382.745L92.8709 382.571L92.9516 375.396L110.788 375.59V375.591ZM144.558 394.51L139.922 369.896L132.395 369.807L127.297 394.527L121.907 369.701L114.558 369.616L123.612 403.559L126.967 403.593L130.33 403.636L135.928 377.041L141.076 403.746L144.453 403.792L147.803 403.826L157.585 370.086L150.439 370.009L144.558 394.51L144.558 394.51ZM121.915 339.286H121.865L121.62 362.171L139.694 362.361C135.776 354.221 129.819 346.487 121.916 339.286H121.915ZM160.517 362.581C152.995 350.026 140.159 341.318 125.197 339.551C134.781 346.974 140.133 354.517 143.674 362.403L160.517 362.581L160.517 362.581ZM125.452 433.996C140.804 432.029 153.697 422.993 160.926 410.311L142.617 411.691C138.695 419.573 132.924 427.062 125.453 433.996L125.452 433.996ZM138.61 411.649L121.09 411.459L120.853 433.315C128.562 426.601 134.523 419.311 138.61 411.649L138.61 411.649ZM185.267 387.898C183.617 386.438 180.35 385.127 175.438 383.988C172.054 383.176 169.841 382.512 168.809 381.937C167.755 381.382 167.227 380.591 167.239 379.572C167.248 378.18 167.768 377.05 168.796 376.276C169.808 375.527 171.22 375.142 173.01 375.167C175.083 375.184 176.759 375.684 178.041 376.627C179.314 377.579 180.004 378.852 180.105 380.469L186.989 380.553C186.769 377.148 185.478 374.457 183.118 372.434C180.77 370.412 177.689 369.384 173.899 369.346C169.854 369.3 166.626 370.234 164.227 372.113C161.833 374.013 160.619 376.635 160.585 379.902C160.555 382.834 161.427 385 163.199 386.409C164.997 387.809 168.576 389.146 173.924 390.394C176.835 391.071 178.726 391.735 179.615 392.328C180.512 392.937 180.96 393.867 180.947 395.154C180.935 396.444 180.288 397.434 179.014 398.153C177.736 398.864 175.981 399.211 173.717 399.186C171.53 399.16 169.816 398.665 168.606 397.68C167.38 396.71 166.753 395.336 166.694 393.521L159.887 393.449C160.01 397.104 161.275 399.93 163.661 401.936C166.051 403.958 169.39 404.978 173.658 405.02C177.935 405.062 181.316 404.186 183.837 402.333C186.367 400.489 187.637 397.988 187.67 394.807C187.721 391.651 186.909 389.341 185.267 387.898L185.267 387.898ZM117.27 433.256L117.507 411.425L99.9873 411.235C103.922 418.977 109.714 426.389 117.27 433.256L117.27 433.256Z" fill="#37BE83"/>
<path fill-rule="evenodd" clip-rule="evenodd" d="M123.356 522.489H159.261L163.749 526.977V545.198H168.417L172.905 549.687V558.394L168.417 562.882H163.749V589.811L159.261 594.299H131.255L108.815 619.073L101.095 615.842V594.299H78.6543L74.1662 588.554V562.882H69.6781L65.1899 558.394V549.687L69.6781 545.198H74.1662V525.72L78.9236 522.489H114.829V512.256C113.422 511.507 112.24 510.397 111.404 509.041C110.567 507.684 110.108 506.129 110.071 504.536C110.071 502.155 111.017 499.872 112.7 498.189C114.384 496.505 116.667 495.56 119.048 495.56C121.428 495.56 123.711 496.505 125.395 498.189C127.078 499.872 128.024 502.155 128.024 504.536C127.95 506.074 127.482 507.567 126.665 508.872C125.847 510.176 124.708 511.249 123.356 511.986V522.489ZM154.953 558.394V531.465H83.1425V584.066L105.583 585.322H110.071V604.98L126.229 586.669L129.37 585.322H154.953V558.394ZM135.923 562.971C132.562 566.341 128.286 568.65 123.625 569.614V569.524C119.737 570.268 115.727 570.052 111.941 568.894C108.156 567.737 104.71 565.673 101.903 562.882L95.6195 569.255C98.6714 572.307 102.307 574.712 106.301 576.346C110.341 578.034 114.667 578.913 119.048 578.949C127.725 578.896 136.038 575.449 142.206 569.345L135.923 562.971ZM105.493 544.929H96.5171V553.905H105.493V544.929ZM132.422 544.929H141.398V553.905H132.422V544.929Z" fill="#007A60"/>
<g clip-path="url(#clip0_18_73)">
<path d="M123.003 671.314C121.22 670.464 119.136 670.464 117.371 671.305L73.1932 692.838H167.161L123.003 671.314ZM161.674 697.896H151.684V762.446H161.674V697.896ZM166.285 697.896V762.446H171.646C173.778 762.446 175.506 763.995 175.506 765.904V772.82C175.506 774.73 173.778 776.279 171.646 776.279H68.7084C66.5768 776.279 64.8482 774.73 64.8482 772.82V765.904C64.8482 763.995 66.5768 762.446 68.7084 762.446H74.0697V697.896H69.0434C64.6041 697.896 63.2161 692.023 67.1972 690.112L115.09 666.768C118.302 665.236 122.054 665.236 125.284 666.777L173.145 690.106C177.14 692.011 175.756 697.896 171.312 697.896H166.285ZM122.483 697.896V762.446H132.473V697.896H122.483ZM117.872 697.896H107.882V762.446H117.872V697.896ZM137.083 697.896V762.446H147.073V697.896H137.083ZM93.2812 697.896V762.446H103.271V697.896H93.2812ZM88.6704 697.896H78.6805V762.446H88.6704V697.896ZM120.177 689.289C123.844 689.289 126.817 686.399 126.817 682.834C126.817 679.269 123.844 676.379 120.177 676.379C116.51 676.379 113.538 679.269 113.538 682.834C113.538 686.399 116.51 689.289 120.177 689.289ZM120.177 684.986C118.955 684.986 117.964 684.022 117.964 682.834C117.964 681.646 118.955 680.682 120.177 680.682C121.4 680.682 122.39 681.646 122.39 682.834C122.39 684.022 121.4 684.986 120.177 684.986ZM170.36 771.668V767.057H69.9951V771.668H170.36Z" fill="#37BE83"/>
</g>
<path d="M216.946 211V190.053H225.735C229.817 190.053 231.858 191.972 231.858 195.81C231.858 199.589 228.592 201.996 222.059 203.031L221.795 201.625C227.361 200.854 230.145 198.954 230.145 195.927C230.145 192.919 228.592 191.415 225.486 191.415H218.484V211H216.946ZM235.462 211V195.619H236.561L236.751 198.168C238.294 196.469 240.013 195.619 241.907 195.619V196.85C240.071 196.85 238.436 197.743 237 199.53V211H235.462ZM245.584 203.251C245.584 207.636 247.464 209.828 251.224 209.828C254.983 209.828 256.863 207.636 256.863 203.251C256.863 198.944 254.983 196.791 251.224 196.791C247.464 196.791 245.584 198.944 245.584 203.251ZM244.046 203.31C244.046 198.085 246.438 195.473 251.224 195.473C256.009 195.473 258.401 198.085 258.401 203.31C258.401 208.524 256.009 211.132 251.224 211.132C246.458 211.132 244.065 208.524 244.046 203.31ZM260.159 195.619H261.917L267.542 209.667L273.196 195.619H274.954L268.406 211H266.619L260.159 195.619ZM279.422 190.053V191.811H277.591V190.053H279.422ZM279.275 195.619V211H277.737V195.619H279.275ZM295.477 197.875C293.992 197.348 292.449 197.084 290.848 197.084C287.068 197.084 285.179 199.022 285.179 202.899C285.179 207.382 287.068 209.623 290.848 209.623C292.449 209.623 293.992 209.433 295.477 209.052V197.875ZM297.015 210.077C295.345 210.692 293.24 211 290.701 211C285.926 211 283.538 208.334 283.538 203.002C283.538 198.08 285.97 195.619 290.833 195.619C292.356 195.619 293.904 195.863 295.477 196.352V190.053H297.015V210.077ZM303.68 190.053V191.811H301.849V190.053H303.68ZM303.533 195.619V211H301.995V195.619H303.533ZM308.528 211V195.619H309.627L309.817 197.582C311.78 196.273 313.704 195.619 315.589 195.619C319.329 195.619 321.199 197.235 321.199 200.468V211H319.661V200.424C319.661 198.139 318.279 196.996 315.516 196.996C313.67 196.996 311.854 197.646 310.066 198.944V211H308.528ZM337.063 197.348C335.647 197.113 334.256 196.996 332.889 196.996C328.738 196.996 326.663 199.062 326.663 203.192C326.663 207.421 328.602 209.535 332.479 209.535C333.885 209.535 335.413 209.271 337.063 208.744V197.348ZM338.602 211C338.602 214.711 336.341 216.566 331.819 216.566C329.925 216.566 328.245 216.322 326.78 215.834V214.516C328.274 215.004 329.964 215.248 331.849 215.248C335.325 215.248 337.063 213.832 337.063 211V210.268C335.325 210.756 333.792 211 332.464 211C327.601 211 325.169 208.407 325.169 203.222C325.169 198.153 327.781 195.619 333.006 195.619C334.988 195.619 336.854 195.829 338.602 196.249V211ZM350.628 211V195.619H351.727L351.917 198.168C353.46 196.469 355.179 195.619 357.073 195.619V196.85C355.237 196.85 353.602 197.743 352.166 199.53V211H350.628ZM366.141 195.619C370.35 195.619 372.454 197.948 372.454 202.606C372.454 202.938 372.444 203.285 372.425 203.646H360.75C360.75 207.67 362.879 209.682 367.137 209.682C368.885 209.682 370.438 209.438 371.795 208.949V210.268C370.438 210.756 368.885 211 367.137 211C361.854 211 359.212 208.378 359.212 203.134C359.212 198.124 361.521 195.619 366.141 195.619ZM360.75 202.27H370.975C370.916 198.695 369.305 196.908 366.141 196.908C362.723 196.908 360.926 198.695 360.75 202.27ZM375.53 206.649C375.53 203.593 377.562 202.064 381.624 202.064C383.06 202.064 384.593 202.162 386.224 202.357V200.468C386.224 198.114 384.744 196.938 381.785 196.938C380.203 196.938 378.582 197.182 376.922 197.67V196.352C378.582 195.863 380.203 195.619 381.785 195.619C385.77 195.619 387.762 197.211 387.762 200.395V211H386.824L386.473 209.477C384.549 210.492 382.684 211 380.877 211C377.312 211 375.53 209.55 375.53 206.649ZM381.624 203.383C378.587 203.383 377.068 204.457 377.068 206.605C377.068 208.656 378.338 209.682 380.877 209.682C382.752 209.682 384.534 209.184 386.224 208.188V203.676C384.593 203.48 383.06 203.383 381.624 203.383ZM394.295 190.053V211H392.757V190.053H394.295ZM405.882 202.65V203.969H398.558V202.65H405.882ZM409.778 193.129H410.862L411.141 195.619H415.755V196.938H411.272V206.649C411.272 208.671 412.015 209.682 413.499 209.682H415.755V211H413.528C411.028 211 409.778 209.618 409.778 206.854V193.129ZM421.014 190.053V191.811H419.183V190.053H421.014ZM420.867 195.619V211H419.329V195.619H420.867ZM425.862 211V195.619H426.961L427.122 197.553C428.694 196.264 430.398 195.619 432.234 195.619C434.656 195.619 436.224 196.322 436.937 197.729C438.704 196.322 440.496 195.619 442.312 195.619C445.75 195.619 447.469 197.323 447.469 200.731V211H445.931V200.731C445.931 198.241 444.72 196.996 442.298 196.996C440.364 196.996 438.768 197.66 437.508 198.988V211H435.97V200.482C435.97 198.158 434.72 196.996 432.22 196.996C430.403 196.996 428.797 197.66 427.4 198.988V211H425.862ZM458.367 195.619C462.576 195.619 464.681 197.948 464.681 202.606C464.681 202.938 464.671 203.285 464.651 203.646H452.977C452.977 207.67 455.105 209.682 459.363 209.682C461.111 209.682 462.664 209.438 464.021 208.949V210.268C462.664 210.756 461.111 211 459.363 211C454.08 211 451.438 208.378 451.438 203.134C451.438 198.124 453.748 195.619 458.367 195.619ZM452.977 202.27H463.201C463.143 198.695 461.531 196.908 458.367 196.908C454.949 196.908 453.152 198.695 452.977 202.27ZM475.96 211V195.619H477.059L477.22 197.553C478.792 196.264 480.496 195.619 482.332 195.619C484.754 195.619 486.321 196.322 487.034 197.729C488.802 196.322 490.594 195.619 492.41 195.619C495.848 195.619 497.566 197.323 497.566 200.731V211H496.028V200.731C496.028 198.241 494.817 196.996 492.396 196.996C490.462 196.996 488.865 197.66 487.605 198.988V211H486.067V200.482C486.067 198.158 484.817 196.996 482.317 196.996C480.501 196.996 478.895 197.66 477.498 198.988V211H475.96ZM501.39 206.649C501.39 203.593 503.421 202.064 507.483 202.064C508.919 202.064 510.452 202.162 512.083 202.357V200.468C512.083 198.114 510.604 196.938 507.645 196.938C506.062 196.938 504.441 197.182 502.781 197.67V196.352C504.441 195.863 506.062 195.619 507.645 195.619C511.629 195.619 513.621 197.211 513.621 200.395V211H512.684L512.332 209.477C510.408 210.492 508.543 211 506.736 211C503.172 211 501.39 209.55 501.39 206.649ZM507.483 203.383C504.446 203.383 502.928 204.457 502.928 206.605C502.928 208.656 504.197 209.682 506.736 209.682C508.611 209.682 510.394 209.184 512.083 208.188V203.676C510.452 203.48 508.919 203.383 507.483 203.383ZM518.323 211V195.619H519.422L519.612 198.168C521.155 196.469 522.874 195.619 524.769 195.619V196.85C522.933 196.85 521.297 197.743 519.861 199.53V211H518.323ZM527.493 211V190.053H529.031V196.967C530.818 196.068 532.786 195.619 534.935 195.619C538.567 195.619 540.384 197.099 540.384 200.058C540.384 202.304 538.772 203.837 535.55 204.657L540.765 211H538.509L533.616 204.628V203.705C537.103 203.305 538.846 202.084 538.846 200.043C538.846 197.973 537.43 196.938 534.598 196.938C532.713 196.938 530.857 197.396 529.031 198.314V211H527.493ZM550.037 195.619C554.246 195.619 556.351 197.948 556.351 202.606C556.351 202.938 556.341 203.285 556.321 203.646H544.646C544.646 207.67 546.775 209.682 551.033 209.682C552.781 209.682 554.334 209.438 555.691 208.949V210.268C554.334 210.756 552.781 211 551.033 211C545.75 211 543.108 208.378 543.108 203.134C543.108 198.124 545.418 195.619 550.037 195.619ZM544.646 202.27H554.871C554.812 198.695 553.201 196.908 550.037 196.908C546.619 196.908 544.822 198.695 544.646 202.27ZM560.247 193.129H561.331L561.609 195.619H566.224V196.938H561.741V206.649C561.741 208.671 562.483 209.682 563.968 209.682H566.224V211H563.997C561.497 211 560.247 209.618 560.247 206.854V193.129ZM587.991 197.348C586.478 197.113 585.037 196.996 583.67 196.996C579.617 196.996 577.591 199.062 577.591 203.192C577.591 207.421 579.529 209.535 583.406 209.535C584.812 209.535 586.341 209.271 587.991 208.744V197.348ZM589.529 216.566H587.991V210.268C586.253 210.756 584.72 211 583.392 211C578.528 211 576.097 208.407 576.097 203.222C576.097 198.153 578.66 195.619 583.787 195.619C585.867 195.619 587.781 195.829 589.529 196.249V216.566ZM606.902 195.619V211H605.774L605.599 209.037C603.831 210.346 601.858 211 599.681 211C596.048 211 594.231 209.091 594.231 205.272V195.619H595.77V205.316C595.77 208.188 597.098 209.623 599.754 209.623C601.697 209.623 603.567 208.974 605.364 207.675V195.619H606.902ZM612.41 203.251C612.41 207.636 614.29 209.828 618.05 209.828C621.81 209.828 623.689 207.636 623.689 203.251C623.689 198.944 621.81 196.791 618.05 196.791C614.29 196.791 612.41 198.944 612.41 203.251ZM610.872 203.31C610.872 198.085 613.265 195.473 618.05 195.473C622.835 195.473 625.228 198.085 625.228 203.31C625.228 208.524 622.835 211.132 618.05 211.132C613.284 211.132 610.892 208.524 610.872 203.31ZM629.124 193.129H630.208L630.486 195.619H635.101V196.938H630.618V206.649C630.618 208.671 631.36 209.682 632.845 209.682H635.101V211H632.874C630.374 211 629.124 209.618 629.124 206.854V193.129ZM644.578 195.619C648.787 195.619 650.892 197.948 650.892 202.606C650.892 202.938 650.882 203.285 650.862 203.646H639.188C639.188 207.67 641.316 209.682 645.574 209.682C647.322 209.682 648.875 209.438 650.232 208.949V210.268C648.875 210.756 647.322 211 645.574 211C640.291 211 637.649 208.378 637.649 203.134C637.649 198.124 639.959 195.619 644.578 195.619ZM639.188 202.27H649.412C649.354 198.695 647.742 196.908 644.578 196.908C641.16 196.908 639.363 198.695 639.188 202.27ZM654.554 210.268V208.803C656.263 209.389 657.942 209.682 659.593 209.682C662.825 209.682 664.441 208.656 664.441 206.605C664.441 204.945 663.245 204.115 660.853 204.115H658.89C655.667 204.115 654.056 202.748 654.056 200.014C654.056 197.084 656.189 195.619 660.457 195.619C662.098 195.619 663.772 195.863 665.481 196.352V197.816C663.772 197.23 662.098 196.938 660.457 196.938C657.215 196.938 655.594 197.963 655.594 200.014C655.594 201.771 656.692 202.65 658.89 202.65H660.853C664.271 202.65 665.979 203.969 665.979 206.605C665.979 209.535 663.851 211 659.593 211C657.942 211 656.263 210.756 654.554 210.268ZM671.692 208.29L669.495 214.662H667.957L670.154 208.29H671.692ZM285.647 224.053V225.811H283.816V224.053H285.647ZM285.501 229.619V245H283.963V229.619H285.501ZM290.496 245V229.619H291.595L291.785 231.582C293.748 230.273 295.672 229.619 297.557 229.619C301.297 229.619 303.167 231.235 303.167 234.468V245H301.629V234.424C301.629 232.139 300.247 230.996 297.483 230.996C295.638 230.996 293.821 231.646 292.034 232.944V245H290.496ZM307.811 227.129H308.895L309.173 229.619H313.787V230.938H309.305V240.649C309.305 242.671 310.047 243.682 311.531 243.682H313.787V245H311.561C309.061 245 307.811 243.618 307.811 240.854V227.129ZM323.265 229.619C327.474 229.619 329.578 231.948 329.578 236.606C329.578 236.938 329.568 237.285 329.549 237.646H317.874C317.874 241.67 320.003 243.682 324.261 243.682C326.009 243.682 327.562 243.438 328.919 242.949V244.268C327.562 244.756 326.009 245 324.261 245C318.978 245 316.336 242.378 316.336 237.134C316.336 232.124 318.646 229.619 323.265 229.619ZM317.874 236.27H328.099C328.04 232.695 326.429 230.908 323.265 230.908C319.847 230.908 318.05 232.695 317.874 236.27ZM333.533 245V229.619H334.632L334.822 232.168C336.365 230.469 338.084 229.619 339.979 229.619V230.85C338.143 230.85 336.507 231.743 335.071 233.53V245H333.533ZM342.85 245V229.619H343.948L344.139 231.582C346.102 230.273 348.025 229.619 349.91 229.619C353.65 229.619 355.521 231.235 355.521 234.468V245H353.982V234.424C353.982 232.139 352.601 230.996 349.837 230.996C347.991 230.996 346.175 231.646 344.388 232.944V245H342.85ZM359.344 240.649C359.344 237.593 361.375 236.064 365.438 236.064C366.873 236.064 368.406 236.162 370.037 236.357V234.468C370.037 232.114 368.558 230.938 365.599 230.938C364.017 230.938 362.396 231.182 360.735 231.67V230.352C362.396 229.863 364.017 229.619 365.599 229.619C369.583 229.619 371.575 231.211 371.575 234.395V245H370.638L370.286 243.477C368.362 244.492 366.497 245 364.69 245C361.126 245 359.344 243.55 359.344 240.649ZM365.438 237.383C362.4 237.383 360.882 238.457 360.882 240.605C360.882 242.656 362.151 243.682 364.69 243.682C366.565 243.682 368.348 243.184 370.037 242.188V237.676C368.406 237.48 366.873 237.383 365.438 237.383ZM376.219 227.129H377.303L377.581 229.619H382.195V230.938H377.713V240.649C377.713 242.671 378.455 243.682 379.939 243.682H382.195V245H379.969C377.469 245 376.219 243.618 376.219 240.854V227.129ZM387.454 224.053V225.811H385.623V224.053H387.454ZM387.308 229.619V245H385.77V229.619H387.308ZM393.108 237.251C393.108 241.636 394.988 243.828 398.748 243.828C402.508 243.828 404.388 241.636 404.388 237.251C404.388 232.944 402.508 230.791 398.748 230.791C394.988 230.791 393.108 232.944 393.108 237.251ZM391.57 237.31C391.57 232.085 393.963 229.473 398.748 229.473C403.533 229.473 405.926 232.085 405.926 237.31C405.926 242.524 403.533 245.132 398.748 245.132C393.982 245.132 391.59 242.524 391.57 237.31ZM409.881 245V229.619H410.979L411.17 231.582C413.133 230.273 415.057 229.619 416.941 229.619C420.682 229.619 422.552 231.235 422.552 234.468V245H421.014V234.424C421.014 232.139 419.632 230.996 416.868 230.996C415.022 230.996 413.206 231.646 411.419 232.944V245H409.881ZM426.375 240.649C426.375 237.593 428.406 236.064 432.469 236.064C433.904 236.064 435.438 236.162 437.068 236.357V234.468C437.068 232.114 435.589 230.938 432.63 230.938C431.048 230.938 429.427 231.182 427.767 231.67V230.352C429.427 229.863 431.048 229.619 432.63 229.619C436.614 229.619 438.606 231.211 438.606 234.395V245H437.669L437.317 243.477C435.394 244.492 433.528 245 431.722 245C428.157 245 426.375 243.55 426.375 240.649ZM432.469 237.383C429.432 237.383 427.913 238.457 427.913 240.605C427.913 242.656 429.183 243.682 431.722 243.682C433.597 243.682 435.379 243.184 437.068 242.188V237.676C435.438 237.48 433.904 237.383 432.469 237.383ZM445.14 224.053V245H443.602V224.053H445.14ZM463.655 229.619C467.864 229.619 469.969 231.948 469.969 236.606C469.969 236.938 469.959 237.285 469.939 237.646H458.265C458.265 241.67 460.394 243.682 464.651 243.682C466.399 243.682 467.952 243.438 469.31 242.949V244.268C467.952 244.756 466.399 245 464.651 245C459.368 245 456.727 242.378 456.727 237.134C456.727 232.124 459.036 229.619 463.655 229.619ZM458.265 236.27H468.489C468.431 232.695 466.819 230.908 463.655 230.908C460.237 230.908 458.44 232.695 458.265 236.27ZM478.069 237.31L472.093 229.619H473.924L478.978 236.123L484.031 229.619H485.862L479.9 237.31L485.862 245H484.031L478.978 238.496L473.924 245H472.093L478.069 237.31ZM499.852 244.561C498.582 244.854 497.215 245 495.75 245C490.574 245 487.986 242.339 487.986 237.017C487.986 232.085 490.574 229.619 495.75 229.619C497.215 229.619 498.582 229.766 499.852 230.059V231.377C498.484 231.084 497.166 230.938 495.896 230.938C491.746 230.938 489.671 232.964 489.671 237.017C489.671 241.46 491.746 243.682 495.896 243.682C497.166 243.682 498.484 243.535 499.852 243.242V244.561ZM503.455 245V224.053H504.993V231.289C506.79 230.176 508.631 229.619 510.516 229.619C514.256 229.619 516.126 231.528 516.126 235.347V245H514.588V234.717C514.588 232.236 513.206 230.996 510.442 230.996C508.597 230.996 506.78 231.646 504.993 232.944V245H503.455ZM519.949 240.649C519.949 237.593 521.98 236.064 526.043 236.064C527.479 236.064 529.012 236.162 530.643 236.357V234.468C530.643 232.114 529.163 230.938 526.204 230.938C524.622 230.938 523.001 231.182 521.341 231.67V230.352C523.001 229.863 524.622 229.619 526.204 229.619C530.188 229.619 532.181 231.211 532.181 234.395V245H531.243L530.892 243.477C528.968 244.492 527.103 245 525.296 245C521.731 245 519.949 243.55 519.949 240.649ZM526.043 237.383C523.006 237.383 521.487 238.457 521.487 240.605C521.487 242.656 522.757 243.682 525.296 243.682C527.171 243.682 528.953 243.184 530.643 242.188V237.676C529.012 237.48 527.479 237.383 526.043 237.383ZM536.883 245V229.619H537.981L538.172 231.582C540.135 230.273 542.059 229.619 543.943 229.619C547.684 229.619 549.554 231.235 549.554 234.468V245H548.016V234.424C548.016 232.139 546.634 230.996 543.87 230.996C542.024 230.996 540.208 231.646 538.421 232.944V245H536.883ZM565.418 231.348C564.002 231.113 562.61 230.996 561.243 230.996C557.093 230.996 555.018 233.062 555.018 237.192C555.018 241.421 556.956 243.535 560.833 243.535C562.239 243.535 563.768 243.271 565.418 242.744V231.348ZM566.956 245C566.956 248.711 564.695 250.566 560.174 250.566C558.279 250.566 556.6 250.322 555.135 249.834V248.516C556.629 249.004 558.318 249.248 560.203 249.248C563.68 249.248 565.418 247.832 565.418 245V244.268C563.68 244.756 562.146 245 560.818 245C555.955 245 553.523 242.407 553.523 237.222C553.523 232.153 556.136 229.619 561.36 229.619C563.343 229.619 565.208 229.829 566.956 230.249V245ZM577.854 229.619C582.063 229.619 584.168 231.948 584.168 236.606C584.168 236.938 584.158 237.285 584.139 237.646H572.464C572.464 241.67 574.593 243.682 578.851 243.682C580.599 243.682 582.151 243.438 583.509 242.949V244.268C582.151 244.756 580.599 245 578.851 245C573.567 245 570.926 242.378 570.926 237.134C570.926 232.124 573.235 229.619 577.854 229.619ZM572.464 236.27H582.688C582.63 232.695 581.019 230.908 577.854 230.908C574.437 230.908 572.64 232.695 572.464 236.27ZM587.83 244.268V242.803C589.539 243.389 591.219 243.682 592.869 243.682C596.102 243.682 597.718 242.656 597.718 240.605C597.718 238.945 596.521 238.115 594.129 238.115H592.166C588.943 238.115 587.332 236.748 587.332 234.014C587.332 231.084 589.466 229.619 593.733 229.619C595.374 229.619 597.049 229.863 598.758 230.352V231.816C597.049 231.23 595.374 230.938 593.733 230.938C590.491 230.938 588.87 231.963 588.87 234.014C588.87 235.771 589.969 236.65 592.166 236.65H594.129C597.547 236.65 599.256 237.969 599.256 240.605C599.256 243.535 597.127 245 592.869 245C591.219 245 589.539 244.756 587.83 244.268ZM604.969 242.29L602.771 248.662H601.233L603.431 242.29H604.969ZM360.369 274.649C360.369 271.593 362.4 270.064 366.463 270.064C367.898 270.064 369.432 270.162 371.062 270.357V268.468C371.062 266.114 369.583 264.938 366.624 264.938C365.042 264.938 363.421 265.182 361.761 265.67V264.352C363.421 263.863 365.042 263.619 366.624 263.619C370.608 263.619 372.601 265.211 372.601 268.395V279H371.663L371.312 277.477C369.388 278.492 367.522 279 365.716 279C362.151 279 360.369 277.55 360.369 274.649ZM366.463 271.383C363.426 271.383 361.907 272.457 361.907 274.605C361.907 276.656 363.177 277.682 365.716 277.682C367.591 277.682 369.373 277.184 371.062 276.188V271.676C369.432 271.48 367.898 271.383 366.463 271.383ZM377.303 279V263.619H378.401L378.592 265.582C380.555 264.273 382.479 263.619 384.363 263.619C388.104 263.619 389.974 265.235 389.974 268.468V279H388.436V268.424C388.436 266.139 387.054 264.996 384.29 264.996C382.444 264.996 380.628 265.646 378.841 266.944V279H377.303ZM405.882 265.875C404.397 265.348 402.854 265.084 401.253 265.084C397.474 265.084 395.584 267.022 395.584 270.899C395.584 275.382 397.474 277.623 401.253 277.623C402.854 277.623 404.397 277.433 405.882 277.052V265.875ZM407.42 278.077C405.75 278.692 403.646 279 401.106 279C396.331 279 393.943 276.334 393.943 271.002C393.943 266.08 396.375 263.619 401.238 263.619C402.762 263.619 404.31 263.863 405.882 264.352V258.053H407.42V278.077ZM418.553 274.649C418.553 271.593 420.584 270.064 424.646 270.064C426.082 270.064 427.615 270.162 429.246 270.357V268.468C429.246 266.114 427.767 264.938 424.808 264.938C423.226 264.938 421.604 265.182 419.944 265.67V264.352C421.604 263.863 423.226 263.619 424.808 263.619C428.792 263.619 430.784 265.211 430.784 268.395V279H429.847L429.495 277.477C427.571 278.492 425.706 279 423.899 279C420.335 279 418.553 277.55 418.553 274.649ZM424.646 271.383C421.609 271.383 420.091 272.457 420.091 274.605C420.091 276.656 421.36 277.682 423.899 277.682C425.774 277.682 427.557 277.184 429.246 276.188V271.676C427.615 271.48 426.082 271.383 424.646 271.383ZM435.486 279V263.619H436.585L436.775 265.582C438.738 264.273 440.662 263.619 442.547 263.619C446.287 263.619 448.157 265.235 448.157 268.468V279H446.619V268.424C446.619 266.139 445.237 264.996 442.474 264.996C440.628 264.996 438.812 265.646 437.024 266.944V279H435.486ZM451.98 274.649C451.98 271.593 454.012 270.064 458.074 270.064C459.51 270.064 461.043 270.162 462.674 270.357V268.468C462.674 266.114 461.194 264.938 458.235 264.938C456.653 264.938 455.032 265.182 453.372 265.67V264.352C455.032 263.863 456.653 263.619 458.235 263.619C462.22 263.619 464.212 265.211 464.212 268.395V279H463.274L462.923 277.477C460.999 278.492 459.134 279 457.327 279C453.763 279 451.98 277.55 451.98 274.649ZM458.074 271.383C455.037 271.383 453.519 272.457 453.519 274.605C453.519 276.656 454.788 277.682 457.327 277.682C459.202 277.682 460.984 277.184 462.674 276.188V271.676C461.043 271.48 459.51 271.383 458.074 271.383ZM470.745 258.053V279H469.207V258.053H470.745ZM473.909 263.619H475.682L481.395 277.506L487.02 263.619H488.719L482.039 279.454C480.906 282.247 479.207 283.99 476.941 284.684L476.487 283.453C478.265 282.809 479.622 281.402 480.56 279.234L473.909 263.619ZM491.531 261.129H492.615L492.894 263.619H497.508V264.938H493.025V274.649C493.025 276.671 493.768 277.682 495.252 277.682H497.508V279H495.281C492.781 279 491.531 277.618 491.531 274.854V261.129ZM502.767 258.053V259.811H500.936V258.053H502.767ZM502.62 263.619V279H501.082V263.619H502.62ZM518.748 278.561C517.479 278.854 516.111 279 514.646 279C509.471 279 506.883 276.339 506.883 271.017C506.883 266.085 509.471 263.619 514.646 263.619C516.111 263.619 517.479 263.766 518.748 264.059V265.377C517.381 265.084 516.062 264.938 514.793 264.938C510.643 264.938 508.567 266.964 508.567 271.017C508.567 275.46 510.643 277.682 514.793 277.682C516.062 277.682 517.381 277.535 518.748 277.242V278.561ZM522.059 278.268V276.803C523.768 277.389 525.447 277.682 527.098 277.682C530.33 277.682 531.946 276.656 531.946 274.605C531.946 272.945 530.75 272.115 528.357 272.115H526.395C523.172 272.115 521.561 270.748 521.561 268.014C521.561 265.084 523.694 263.619 527.962 263.619C529.603 263.619 531.277 263.863 532.986 264.352V265.816C531.277 265.23 529.603 264.938 527.962 264.938C524.72 264.938 523.099 265.963 523.099 268.014C523.099 269.771 524.197 270.65 526.395 270.65H528.357C531.775 270.65 533.484 271.969 533.484 274.605C533.484 277.535 531.355 279 527.098 279C525.447 279 523.768 278.756 522.059 278.268Z" fill="black"/>
<path d="M274.972 366.414V353.553H276.51V366.414C276.51 371.023 278.805 373.328 283.395 373.328C287.984 373.328 290.279 371.023 290.279 366.414V353.553H291.817V366.414C291.817 371.902 289.01 374.646 283.395 374.646C277.779 374.646 274.972 371.902 274.972 366.414ZM298.043 372.244C299.596 372.771 301.026 373.035 302.335 373.035C306.31 373.035 308.297 370.823 308.297 366.399C308.297 362.464 306.319 360.496 302.364 360.496C300.997 360.496 299.557 360.613 298.043 360.848V372.244ZM296.505 359.749C298.253 359.329 300.216 359.119 302.394 359.119C307.325 359.119 309.791 361.556 309.791 366.429C309.791 371.81 307.311 374.5 302.35 374.5C301.119 374.5 299.684 374.256 298.043 373.768V380.066H296.505V359.749ZM320.353 366.15V367.469H313.028V366.15H320.353ZM324.249 356.629H325.333L325.611 359.119H330.226V360.438H325.743V370.149C325.743 372.171 326.485 373.182 327.97 373.182H330.226V374.5H327.999C325.499 374.5 324.249 373.118 324.249 370.354V356.629ZM334.312 366.751C334.312 371.136 336.192 373.328 339.952 373.328C343.712 373.328 345.592 371.136 345.592 366.751C345.592 362.444 343.712 360.291 339.952 360.291C336.192 360.291 334.312 362.444 334.312 366.751ZM332.774 366.81C332.774 361.585 335.167 358.973 339.952 358.973C344.737 358.973 347.13 361.585 347.13 366.81C347.13 372.024 344.737 374.632 339.952 374.632C335.187 374.632 332.794 372.024 332.774 366.81ZM357.677 366.15V367.469H350.353V366.15H357.677ZM372.838 361.375C371.354 360.848 369.811 360.584 368.209 360.584C364.43 360.584 362.54 362.522 362.54 366.399C362.54 370.882 364.43 373.123 368.209 373.123C369.811 373.123 371.354 372.933 372.838 372.552V361.375ZM374.376 373.577C372.706 374.192 370.602 374.5 368.062 374.5C363.287 374.5 360.899 371.834 360.899 366.502C360.899 361.58 363.331 359.119 368.194 359.119C369.718 359.119 371.266 359.363 372.838 359.852V353.553H374.376V373.577ZM378.185 370.149C378.185 367.093 380.216 365.564 384.278 365.564C385.714 365.564 387.247 365.662 388.878 365.857V363.968C388.878 361.614 387.398 360.438 384.439 360.438C382.857 360.438 381.236 360.682 379.576 361.17V359.852C381.236 359.363 382.857 359.119 384.439 359.119C388.424 359.119 390.416 360.711 390.416 363.895V374.5H389.479L389.127 372.977C387.203 373.992 385.338 374.5 383.531 374.5C379.967 374.5 378.185 373.05 378.185 370.149ZM384.278 366.883C381.241 366.883 379.723 367.957 379.723 370.105C379.723 372.156 380.992 373.182 383.531 373.182C385.406 373.182 387.188 372.684 388.878 371.688V367.176C387.247 366.98 385.714 366.883 384.278 366.883ZM395.06 356.629H396.144L396.422 359.119H401.036V360.438H396.554V370.149C396.554 372.171 397.296 373.182 398.78 373.182H401.036V374.5H398.81C396.31 374.5 395.06 373.118 395.06 370.354V356.629ZM410.514 359.119C414.723 359.119 416.827 361.448 416.827 366.106C416.827 366.438 416.817 366.785 416.798 367.146H405.123C405.123 371.17 407.252 373.182 411.51 373.182C413.258 373.182 414.811 372.938 416.168 372.449V373.768C414.811 374.256 413.258 374.5 411.51 374.5C406.227 374.5 403.585 371.878 403.585 366.634C403.585 361.624 405.895 359.119 410.514 359.119ZM405.123 365.77H415.348C415.289 362.195 413.678 360.408 410.514 360.408C407.096 360.408 405.299 362.195 405.123 365.77ZM438.814 359.119V374.5H437.276V360.438H429.645V374.5H428.106V358.079C428.106 354.358 430.021 352.498 433.849 352.498C435.304 352.498 436.666 352.84 437.936 353.523V354.842C436.725 354.158 435.357 353.816 433.834 353.816C431.041 353.816 429.645 355.198 429.645 357.962V359.119H438.814ZM443.663 374.5V359.119H444.762L444.952 361.082C446.915 359.773 448.839 359.119 450.724 359.119C454.464 359.119 456.334 360.735 456.334 363.968V374.5H454.796V363.924C454.796 361.639 453.414 360.496 450.65 360.496C448.805 360.496 446.988 361.146 445.201 362.444V374.5H443.663ZM460.157 370.149C460.157 367.093 462.188 365.564 466.251 365.564C467.687 365.564 469.22 365.662 470.851 365.857V363.968C470.851 361.614 469.371 360.438 466.412 360.438C464.83 360.438 463.209 360.682 461.549 361.17V359.852C463.209 359.363 464.83 359.119 466.412 359.119C470.396 359.119 472.389 360.711 472.389 363.895V374.5H471.451L471.1 372.977C469.176 373.992 467.311 374.5 465.504 374.5C461.939 374.5 460.157 373.05 460.157 370.149ZM466.251 366.883C463.214 366.883 461.695 367.957 461.695 370.105C461.695 372.156 462.965 373.182 465.504 373.182C467.379 373.182 469.161 372.684 470.851 371.688V367.176C469.22 366.98 467.687 366.883 466.251 366.883ZM477.091 374.5V359.119H478.189L478.38 361.082C480.343 359.773 482.267 359.119 484.151 359.119C487.892 359.119 489.762 360.735 489.762 363.968V374.5H488.224V363.924C488.224 361.639 486.842 360.496 484.078 360.496C482.232 360.496 480.416 361.146 478.629 362.444V374.5H477.091ZM505.597 374.061C504.327 374.354 502.96 374.5 501.495 374.5C496.319 374.5 493.731 371.839 493.731 366.517C493.731 361.585 496.319 359.119 501.495 359.119C502.96 359.119 504.327 359.266 505.597 359.559V360.877C504.229 360.584 502.911 360.438 501.642 360.438C497.491 360.438 495.416 362.464 495.416 366.517C495.416 370.96 497.491 373.182 501.642 373.182C502.911 373.182 504.229 373.035 505.597 372.742V374.061ZM511.178 353.553V355.311H509.347V353.553H511.178ZM511.031 359.119V374.5H509.493V359.119H511.031ZM515.147 370.149C515.147 367.093 517.179 365.564 521.241 365.564C522.677 365.564 524.21 365.662 525.841 365.857V363.968C525.841 361.614 524.361 360.438 521.402 360.438C519.82 360.438 518.199 360.682 516.539 361.17V359.852C518.199 359.363 519.82 359.119 521.402 359.119C525.387 359.119 527.379 360.711 527.379 363.895V374.5H526.441L526.09 372.977C524.166 373.992 522.301 374.5 520.494 374.5C516.93 374.5 515.147 373.05 515.147 370.149ZM521.241 366.883C518.204 366.883 516.686 367.957 516.686 370.105C516.686 372.156 517.955 373.182 520.494 373.182C522.369 373.182 524.151 372.684 525.841 371.688V367.176C524.21 366.98 522.677 366.883 521.241 366.883ZM533.912 353.553V374.5H532.374V353.553H533.912ZM546.231 374.5V359.119H547.33L547.521 361.082C549.483 359.773 551.407 359.119 553.292 359.119C557.032 359.119 558.902 360.735 558.902 363.968V374.5H557.364V363.924C557.364 361.639 555.982 360.496 553.219 360.496C551.373 360.496 549.557 361.146 547.77 362.444V374.5H546.231ZM569.801 359.119C574.01 359.119 576.114 361.448 576.114 366.106C576.114 366.438 576.104 366.785 576.085 367.146H564.41C564.41 371.17 566.539 373.182 570.797 373.182C572.545 373.182 574.098 372.938 575.455 372.449V373.768C574.098 374.256 572.545 374.5 570.797 374.5C565.514 374.5 562.872 371.878 562.872 366.634C562.872 361.624 565.182 359.119 569.801 359.119ZM564.41 365.77H574.635C574.576 362.195 572.965 360.408 569.801 360.408C566.383 360.408 564.586 362.195 564.41 365.77ZM578.604 359.119H580.172L583.482 372.64L588.36 359.119H589.488L594.498 372.347L597.882 359.119H599.391L595.377 374.5H593.78L588.932 361.39L584.156 374.5H582.501L578.604 359.119ZM602.335 373.768V372.303C604.044 372.889 605.724 373.182 607.374 373.182C610.606 373.182 612.223 372.156 612.223 370.105C612.223 368.445 611.026 367.615 608.634 367.615H606.671C603.448 367.615 601.837 366.248 601.837 363.514C601.837 360.584 603.971 359.119 608.238 359.119C609.879 359.119 611.554 359.363 613.263 359.852V361.316C611.554 360.73 609.879 360.438 608.238 360.438C604.996 360.438 603.375 361.463 603.375 363.514C603.375 365.271 604.474 366.15 606.671 366.15H608.634C612.052 366.15 613.761 367.469 613.761 370.105C613.761 373.035 611.632 374.5 607.374 374.5C605.724 374.5 604.044 374.256 602.335 373.768Z" fill="black"/>
<path d="M262.813 538H261.173L270.65 517.053H272.481L282.003 538H280.172L277.066 530.969H267.677L268.131 529.65H276.495L271.471 518.254L262.813 538ZM286.837 517.053V518.811H285.006V517.053H286.837ZM286.69 522.619V538H285.152V522.619H286.69ZM300.548 535.744C302.101 536.271 303.531 536.535 304.84 536.535C308.814 536.535 310.802 534.323 310.802 529.899C310.802 525.964 308.824 523.996 304.869 523.996C303.502 523.996 302.062 524.113 300.548 524.348V535.744ZM299.01 523.249C300.758 522.829 302.721 522.619 304.898 522.619C309.83 522.619 312.296 525.056 312.296 529.929C312.296 535.31 309.815 538 304.854 538C303.624 538 302.188 537.756 300.548 537.268V543.566H299.01V523.249ZM317.071 530.251C317.071 534.636 318.951 536.828 322.711 536.828C326.471 536.828 328.351 534.636 328.351 530.251C328.351 525.944 326.471 523.791 322.711 523.791C318.951 523.791 317.071 525.944 317.071 530.251ZM315.533 530.31C315.533 525.085 317.926 522.473 322.711 522.473C327.496 522.473 329.889 525.085 329.889 530.31C329.889 535.524 327.496 538.132 322.711 538.132C317.945 538.132 315.553 535.524 315.533 530.31ZM332.379 522.619H333.946L337.257 536.14L342.135 522.619H343.263L348.272 535.847L351.656 522.619H353.165L349.151 538H347.555L342.706 524.89L337.931 538H336.275L332.379 522.619ZM362.599 522.619C366.808 522.619 368.912 524.948 368.912 529.606C368.912 529.938 368.902 530.285 368.883 530.646H357.208C357.208 534.67 359.337 536.682 363.595 536.682C365.343 536.682 366.896 536.438 368.253 535.949V537.268C366.896 537.756 365.343 538 363.595 538C358.312 538 355.67 535.378 355.67 530.134C355.67 525.124 357.979 522.619 362.599 522.619ZM357.208 529.27H367.433C367.374 525.695 365.763 523.908 362.599 523.908C359.181 523.908 357.384 525.695 357.208 529.27ZM372.867 538V522.619H373.966L374.156 525.168C375.699 523.469 377.418 522.619 379.312 522.619V523.85C377.477 523.85 375.841 524.743 374.405 526.53V538H372.867ZM388.38 522.619C392.589 522.619 394.693 524.948 394.693 529.606C394.693 529.938 394.684 530.285 394.664 530.646H382.989C382.989 534.67 385.118 536.682 389.376 536.682C391.124 536.682 392.677 536.438 394.034 535.949V537.268C392.677 537.756 391.124 538 389.376 538C384.093 538 381.451 535.378 381.451 530.134C381.451 525.124 383.761 522.619 388.38 522.619ZM382.989 529.27H393.214C393.155 525.695 391.544 523.908 388.38 523.908C384.962 523.908 383.165 525.695 382.989 529.27ZM409.854 524.875C408.37 524.348 406.827 524.084 405.226 524.084C401.446 524.084 399.557 526.022 399.557 529.899C399.557 534.382 401.446 536.623 405.226 536.623C406.827 536.623 408.37 536.433 409.854 536.052V524.875ZM411.393 537.077C409.723 537.692 407.618 538 405.079 538C400.304 538 397.916 535.334 397.916 530.002C397.916 525.08 400.348 522.619 405.211 522.619C406.734 522.619 408.282 522.863 409.854 523.352V517.053H411.393V537.077ZM434.112 522.619V538H432.574V523.938H424.942V538H423.404V521.579C423.404 517.858 425.318 515.998 429.146 515.998C430.602 515.998 431.964 516.34 433.233 517.023V518.342C432.022 517.658 430.655 517.316 429.132 517.316C426.339 517.316 424.942 518.698 424.942 521.462V522.619H434.112ZM438.961 538V522.619H440.06L440.25 524.582C442.213 523.273 444.137 522.619 446.021 522.619C449.762 522.619 451.632 524.235 451.632 527.468V538H450.094V527.424C450.094 525.139 448.712 523.996 445.948 523.996C444.103 523.996 442.286 524.646 440.499 525.944V538H438.961ZM455.455 533.649C455.455 530.593 457.486 529.064 461.549 529.064C462.984 529.064 464.518 529.162 466.148 529.357V527.468C466.148 525.114 464.669 523.938 461.71 523.938C460.128 523.938 458.507 524.182 456.847 524.67V523.352C458.507 522.863 460.128 522.619 461.71 522.619C465.694 522.619 467.687 524.211 467.687 527.395V538H466.749L466.397 536.477C464.474 537.492 462.608 538 460.802 538C457.237 538 455.455 536.55 455.455 533.649ZM461.549 530.383C458.512 530.383 456.993 531.457 456.993 533.605C456.993 535.656 458.263 536.682 460.802 536.682C462.677 536.682 464.459 536.184 466.148 535.188V530.676C464.518 530.48 462.984 530.383 461.549 530.383ZM472.389 538V522.619H473.487L473.678 524.582C475.641 523.273 477.564 522.619 479.449 522.619C483.189 522.619 485.06 524.235 485.06 527.468V538H483.521V527.424C483.521 525.139 482.14 523.996 479.376 523.996C477.53 523.996 475.714 524.646 473.927 525.944V538H472.389ZM500.895 537.561C499.625 537.854 498.258 538 496.793 538C491.617 538 489.029 535.339 489.029 530.017C489.029 525.085 491.617 522.619 496.793 522.619C498.258 522.619 499.625 522.766 500.895 523.059V524.377C499.527 524.084 498.209 523.938 496.939 523.938C492.789 523.938 490.714 525.964 490.714 530.017C490.714 534.46 492.789 536.682 496.939 536.682C498.209 536.682 499.527 536.535 500.895 536.242V537.561ZM510.694 522.619C514.903 522.619 517.008 524.948 517.008 529.606C517.008 529.938 516.998 530.285 516.979 530.646H505.304C505.304 534.67 507.433 536.682 511.69 536.682C513.438 536.682 514.991 536.438 516.349 535.949V537.268C514.991 537.756 513.438 538 511.69 538C506.407 538 503.766 535.378 503.766 530.134C503.766 525.124 506.075 522.619 510.694 522.619ZM505.304 529.27H515.528C515.47 525.695 513.858 523.908 510.694 523.908C507.276 523.908 505.479 525.695 505.304 529.27ZM539.42 537.561C538.15 537.854 536.783 538 535.318 538C530.143 538 527.555 535.339 527.555 530.017C527.555 525.085 530.143 522.619 535.318 522.619C536.783 522.619 538.15 522.766 539.42 523.059V524.377C538.053 524.084 536.734 523.938 535.465 523.938C531.314 523.938 529.239 525.964 529.239 530.017C529.239 534.46 531.314 536.682 535.465 536.682C536.734 536.682 538.053 536.535 539.42 536.242V537.561ZM543.023 538V517.053H544.562V524.289C546.358 523.176 548.199 522.619 550.084 522.619C553.824 522.619 555.694 524.528 555.694 528.347V538H554.156V527.717C554.156 525.236 552.774 523.996 550.011 523.996C548.165 523.996 546.349 524.646 544.562 525.944V538H543.023ZM559.518 533.649C559.518 530.593 561.549 529.064 565.611 529.064C567.047 529.064 568.58 529.162 570.211 529.357V527.468C570.211 525.114 568.731 523.938 565.772 523.938C564.19 523.938 562.569 524.182 560.909 524.67V523.352C562.569 522.863 564.19 522.619 565.772 522.619C569.757 522.619 571.749 524.211 571.749 527.395V538H570.812L570.46 536.477C568.536 537.492 566.671 538 564.864 538C561.3 538 559.518 536.55 559.518 533.649ZM565.611 530.383C562.574 530.383 561.056 531.457 561.056 533.605C561.056 535.656 562.325 536.682 564.864 536.682C566.739 536.682 568.521 536.184 570.211 535.188V530.676C568.58 530.48 567.047 530.383 565.611 530.383ZM576.393 520.129H577.477L577.755 522.619H582.369V523.938H577.887V533.649C577.887 535.671 578.629 536.682 580.113 536.682H582.369V538H580.143C577.643 538 576.393 536.618 576.393 533.854V520.129ZM587.188 536.198C588.761 536.481 590.182 536.623 591.451 536.623C595.455 536.623 597.457 534.382 597.457 529.899C597.457 526.022 595.616 524.084 591.935 524.084C590.528 524.084 588.946 524.348 587.188 524.875V536.198ZM585.65 517.053H587.188V523.352C589.034 522.863 590.621 522.619 591.949 522.619C596.617 522.619 598.951 525.08 598.951 530.002C598.951 535.334 596.495 538 591.583 538C589.376 538 587.398 537.79 585.65 537.37V517.053ZM603.712 530.251C603.712 534.636 605.592 536.828 609.352 536.828C613.111 536.828 614.991 534.636 614.991 530.251C614.991 525.944 613.111 523.791 609.352 523.791C605.592 523.791 603.712 525.944 603.712 530.251ZM602.174 530.31C602.174 525.085 604.566 522.473 609.352 522.473C614.137 522.473 616.529 525.085 616.529 530.31C616.529 535.524 614.137 538.132 609.352 538.132C604.586 538.132 602.193 535.524 602.174 530.31ZM620.426 520.129H621.51L621.788 522.619H626.402V523.938H621.92V533.649C621.92 535.671 622.662 536.682 624.146 536.682H626.402V538H624.176C621.676 538 620.426 536.618 620.426 533.854V520.129Z" fill="black"/>
<path d="M246.272 680.553V700.182H258.401V701.5H244.734V680.553H246.272ZM263.47 680.553V682.311H261.639V680.553H263.47ZM263.323 686.119V701.5H261.785V686.119H263.323ZM268.318 701.5V686.119H269.417L269.607 688.082C271.57 686.773 273.494 686.119 275.379 686.119C279.119 686.119 280.989 687.735 280.989 690.968V701.5H279.451V690.924C279.451 688.639 278.069 687.496 275.306 687.496C273.46 687.496 271.644 688.146 269.856 689.444V701.5H268.318ZM285.545 701.5V680.553H287.083V687.467C288.87 686.568 290.838 686.119 292.986 686.119C296.619 686.119 298.436 687.599 298.436 690.558C298.436 692.804 296.824 694.337 293.602 695.157L298.816 701.5H296.561L291.668 695.128V694.205C295.154 693.805 296.897 692.584 296.897 690.543C296.897 688.473 295.481 687.438 292.649 687.438C290.765 687.438 288.909 687.896 287.083 688.814V701.5H285.545ZM308.338 697.149C308.338 694.093 310.369 692.564 314.432 692.564C315.867 692.564 317.4 692.662 319.031 692.857V690.968C319.031 688.614 317.552 687.438 314.593 687.438C313.011 687.438 311.39 687.682 309.729 688.17V686.852C311.39 686.363 313.011 686.119 314.593 686.119C318.577 686.119 320.569 687.711 320.569 690.895V701.5H319.632L319.28 699.977C317.356 700.992 315.491 701.5 313.685 701.5C310.12 701.5 308.338 700.05 308.338 697.149ZM314.432 693.883C311.395 693.883 309.876 694.957 309.876 697.105C309.876 699.156 311.146 700.182 313.685 700.182C315.56 700.182 317.342 699.684 319.031 698.688V694.176C317.4 693.98 315.867 693.883 314.432 693.883ZM327.103 680.553V701.5H325.564V680.553H327.103ZM333.929 680.553V701.5H332.391V680.553H333.929ZM344.417 686.119H346.189L351.902 700.006L357.527 686.119H359.227L352.547 701.954C351.414 704.747 349.715 706.49 347.449 707.184L346.995 705.953C348.772 705.309 350.13 703.902 351.067 701.734L344.417 686.119ZM362.903 693.751C362.903 698.136 364.783 700.328 368.543 700.328C372.303 700.328 374.183 698.136 374.183 693.751C374.183 689.444 372.303 687.291 368.543 687.291C364.783 687.291 362.903 689.444 362.903 693.751ZM361.365 693.81C361.365 688.585 363.758 685.973 368.543 685.973C373.328 685.973 375.721 688.585 375.721 693.81C375.721 699.024 373.328 701.632 368.543 701.632C363.777 701.632 361.385 699.024 361.365 693.81ZM392.347 686.119V701.5H391.219L391.043 699.537C389.275 700.846 387.303 701.5 385.125 701.5C381.492 701.5 379.676 699.591 379.676 695.772V686.119H381.214V695.816C381.214 698.688 382.542 700.123 385.198 700.123C387.142 700.123 389.012 699.474 390.809 698.175V686.119H392.347ZM397.049 701.5V686.119H398.147L398.338 688.668C399.881 686.969 401.6 686.119 403.494 686.119V687.35C401.658 687.35 400.022 688.243 398.587 690.03V701.5H397.049ZM424.397 686.119V701.5H422.859V687.438H415.228V701.5H413.689V685.079C413.689 681.358 415.604 679.498 419.432 679.498C420.887 679.498 422.249 679.84 423.519 680.523V681.842C422.308 681.158 420.94 680.816 419.417 680.816C416.624 680.816 415.228 682.198 415.228 684.962V686.119H424.397ZM429.246 701.5V686.119H430.345L430.535 688.082C432.498 686.773 434.422 686.119 436.307 686.119C440.047 686.119 441.917 687.735 441.917 690.968V701.5H440.379V690.924C440.379 688.639 438.997 687.496 436.233 687.496C434.388 687.496 432.571 688.146 430.784 689.444V701.5H429.246ZM445.74 697.149C445.74 694.093 447.771 692.564 451.834 692.564C453.27 692.564 454.803 692.662 456.434 692.857V690.968C456.434 688.614 454.954 687.438 451.995 687.438C450.413 687.438 448.792 687.682 447.132 688.17V686.852C448.792 686.363 450.413 686.119 451.995 686.119C455.979 686.119 457.972 687.711 457.972 690.895V701.5H457.034L456.683 699.977C454.759 700.992 452.894 701.5 451.087 701.5C447.522 701.5 445.74 700.05 445.74 697.149ZM451.834 693.883C448.797 693.883 447.278 694.957 447.278 697.105C447.278 699.156 448.548 700.182 451.087 700.182C452.962 700.182 454.744 699.684 456.434 698.688V694.176C454.803 693.98 453.27 693.883 451.834 693.883ZM462.674 701.5V686.119H463.772L463.963 688.082C465.926 686.773 467.85 686.119 469.734 686.119C473.475 686.119 475.345 687.735 475.345 690.968V701.5H473.807V690.924C473.807 688.639 472.425 687.496 469.661 687.496C467.815 687.496 465.999 688.146 464.212 689.444V701.5H462.674ZM491.18 701.061C489.91 701.354 488.543 701.5 487.078 701.5C481.902 701.5 479.314 698.839 479.314 693.517C479.314 688.585 481.902 686.119 487.078 686.119C488.543 686.119 489.91 686.266 491.18 686.559V687.877C489.812 687.584 488.494 687.438 487.225 687.438C483.074 687.438 480.999 689.464 480.999 693.517C480.999 697.96 483.074 700.182 487.225 700.182C488.494 700.182 489.812 700.035 491.18 699.742V701.061ZM496.761 680.553V682.311H494.93V680.553H496.761ZM496.614 686.119V701.5H495.076V686.119H496.614ZM500.73 697.149C500.73 694.093 502.762 692.564 506.824 692.564C508.26 692.564 509.793 692.662 511.424 692.857V690.968C511.424 688.614 509.944 687.438 506.985 687.438C505.403 687.438 503.782 687.682 502.122 688.17V686.852C503.782 686.363 505.403 686.119 506.985 686.119C510.97 686.119 512.962 687.711 512.962 690.895V701.5H512.024L511.673 699.977C509.749 700.992 507.884 701.5 506.077 701.5C502.513 701.5 500.73 700.05 500.73 697.149ZM506.824 693.883C503.787 693.883 502.269 694.957 502.269 697.105C502.269 699.156 503.538 700.182 506.077 700.182C507.952 700.182 509.734 699.684 511.424 698.688V694.176C509.793 693.98 508.26 693.883 506.824 693.883ZM519.495 680.553V701.5H517.957V680.553H519.495ZM530.936 697.149C530.936 694.093 532.967 692.564 537.029 692.564C538.465 692.564 539.998 692.662 541.629 692.857V690.968C541.629 688.614 540.149 687.438 537.19 687.438C535.608 687.438 533.987 687.682 532.327 688.17V686.852C533.987 686.363 535.608 686.119 537.19 686.119C541.175 686.119 543.167 687.711 543.167 690.895V701.5H542.229L541.878 699.977C539.954 700.992 538.089 701.5 536.282 701.5C532.718 701.5 530.936 700.05 530.936 697.149ZM537.029 693.883C533.992 693.883 532.474 694.957 532.474 697.105C532.474 699.156 533.743 700.182 536.282 700.182C538.157 700.182 539.939 699.684 541.629 698.688V694.176C539.998 693.98 538.465 693.883 537.029 693.883ZM559.002 701.061C557.732 701.354 556.365 701.5 554.9 701.5C549.725 701.5 547.137 698.839 547.137 693.517C547.137 688.585 549.725 686.119 554.9 686.119C556.365 686.119 557.732 686.266 559.002 686.559V687.877C557.635 687.584 556.316 687.438 555.047 687.438C550.896 687.438 548.821 689.464 548.821 693.517C548.821 697.96 550.896 700.182 555.047 700.182C556.316 700.182 557.635 700.035 559.002 699.742V701.061ZM573.738 701.061C572.469 701.354 571.102 701.5 569.637 701.5C564.461 701.5 561.873 698.839 561.873 693.517C561.873 688.585 564.461 686.119 569.637 686.119C571.102 686.119 572.469 686.266 573.738 686.559V687.877C572.371 687.584 571.053 687.438 569.783 687.438C565.633 687.438 563.558 689.464 563.558 693.517C563.558 697.96 565.633 700.182 569.783 700.182C571.053 700.182 572.371 700.035 573.738 699.742V701.061ZM578.147 693.751C578.147 698.136 580.027 700.328 583.787 700.328C587.547 700.328 589.427 698.136 589.427 693.751C589.427 689.444 587.547 687.291 583.787 687.291C580.027 687.291 578.147 689.444 578.147 693.751ZM576.609 693.81C576.609 688.585 579.002 685.973 583.787 685.973C588.572 685.973 590.965 688.585 590.965 693.81C590.965 699.024 588.572 701.632 583.787 701.632C579.021 701.632 576.629 699.024 576.609 693.81ZM607.591 686.119V701.5H606.463L606.287 699.537C604.52 700.846 602.547 701.5 600.369 701.5C596.736 701.5 594.92 699.591 594.92 695.772V686.119H596.458V695.816C596.458 698.688 597.786 700.123 600.442 700.123C602.386 700.123 604.256 699.474 606.053 698.175V686.119H607.591ZM612.293 701.5V686.119H613.392L613.582 688.082C615.545 686.773 617.469 686.119 619.354 686.119C623.094 686.119 624.964 687.735 624.964 690.968V701.5H623.426V690.924C623.426 688.639 622.044 687.496 619.28 687.496C617.435 687.496 615.618 688.146 613.831 689.444V701.5H612.293ZM629.607 683.629H630.691L630.97 686.119H635.584V687.438H631.102V697.149C631.102 699.171 631.844 700.182 633.328 700.182H635.584V701.5H633.357C630.857 701.5 629.607 700.118 629.607 697.354V683.629ZM638.572 700.768V699.303C640.281 699.889 641.961 700.182 643.611 700.182C646.844 700.182 648.46 699.156 648.46 697.105C648.46 695.445 647.264 694.615 644.871 694.615H642.908C639.686 694.615 638.074 693.248 638.074 690.514C638.074 687.584 640.208 686.119 644.476 686.119C646.116 686.119 647.791 686.363 649.5 686.852V688.316C647.791 687.73 646.116 687.438 644.476 687.438C641.233 687.438 639.612 688.463 639.612 690.514C639.612 692.271 640.711 693.15 642.908 693.15H644.871C648.289 693.15 649.998 694.469 649.998 697.105C649.998 700.035 647.869 701.5 643.611 701.5C641.961 701.5 640.281 701.256 638.572 700.768ZM325.799 714.553V716.311H323.968V714.553H325.799ZM325.652 720.119V735.5H324.114V720.119H325.652ZM330.647 735.5V720.119H331.746L331.937 722.082C333.899 720.773 335.823 720.119 337.708 720.119C341.448 720.119 343.318 721.735 343.318 724.968V735.5H341.78V724.924C341.78 722.639 340.398 721.496 337.635 721.496C335.789 721.496 333.973 722.146 332.186 723.444V735.5H330.647ZM356.15 727.751C356.15 732.136 358.03 734.328 361.79 734.328C365.55 734.328 367.43 732.136 367.43 727.751C367.43 723.444 365.55 721.291 361.79 721.291C358.03 721.291 356.15 723.444 356.15 727.751ZM354.612 727.81C354.612 722.585 357.005 719.973 361.79 719.973C366.575 719.973 368.968 722.585 368.968 727.81C368.968 733.024 366.575 735.632 361.79 735.632C357.024 735.632 354.632 733.024 354.612 727.81ZM372.923 735.5V720.119H374.021L374.212 722.082C376.175 720.773 378.099 720.119 379.983 720.119C383.724 720.119 385.594 721.735 385.594 724.968V735.5H384.056V724.924C384.056 722.639 382.674 721.496 379.91 721.496C378.064 721.496 376.248 722.146 374.461 723.444V735.5H372.923ZM396.492 720.119C400.701 720.119 402.806 722.448 402.806 727.106C402.806 727.438 402.796 727.785 402.776 728.146H391.102C391.102 732.17 393.23 734.182 397.488 734.182C399.236 734.182 400.789 733.938 402.146 733.449V734.768C400.789 735.256 399.236 735.5 397.488 735.5C392.205 735.5 389.563 732.878 389.563 727.634C389.563 722.624 391.873 720.119 396.492 720.119ZM391.102 726.77H401.326C401.268 723.195 399.656 721.408 396.492 721.408C393.074 721.408 391.277 723.195 391.102 726.77ZM413.792 734.768V733.303C415.501 733.889 417.181 734.182 418.831 734.182C422.063 734.182 423.68 733.156 423.68 731.105C423.68 729.445 422.483 728.615 420.091 728.615H418.128C414.905 728.615 413.294 727.248 413.294 724.514C413.294 721.584 415.428 720.119 419.695 720.119C421.336 720.119 423.011 720.363 424.72 720.852V722.316C423.011 721.73 421.336 721.438 419.695 721.438C416.453 721.438 414.832 722.463 414.832 724.514C414.832 726.271 415.931 727.15 418.128 727.15H420.091C423.509 727.15 425.218 728.469 425.218 731.105C425.218 734.035 423.089 735.5 418.831 735.5C417.181 735.5 415.501 735.256 413.792 734.768ZM435.369 720.119C439.578 720.119 441.683 722.448 441.683 727.106C441.683 727.438 441.673 727.785 441.653 728.146H429.979C429.979 732.17 432.107 734.182 436.365 734.182C438.113 734.182 439.666 733.938 441.023 733.449V734.768C439.666 735.256 438.113 735.5 436.365 735.5C431.082 735.5 428.44 732.878 428.44 727.634C428.44 722.624 430.75 720.119 435.369 720.119ZM429.979 726.77H440.203C440.145 723.195 438.533 721.408 435.369 721.408C431.951 721.408 430.154 723.195 429.979 726.77ZM456.771 735.061C455.501 735.354 454.134 735.5 452.669 735.5C447.493 735.5 444.905 732.839 444.905 727.517C444.905 722.585 447.493 720.119 452.669 720.119C454.134 720.119 455.501 720.266 456.771 720.559V721.877C455.403 721.584 454.085 721.438 452.815 721.438C448.665 721.438 446.59 723.464 446.59 727.517C446.59 731.96 448.665 734.182 452.815 734.182C454.085 734.182 455.403 734.035 456.771 733.742V735.061ZM473.045 720.119V735.5H471.917L471.741 733.537C469.974 734.846 468.001 735.5 465.823 735.5C462.19 735.5 460.374 733.591 460.374 729.772V720.119H461.912V729.816C461.912 732.688 463.24 734.123 465.896 734.123C467.84 734.123 469.71 733.474 471.507 732.175V720.119H473.045ZM477.747 735.5V720.119H478.846L479.036 722.668C480.579 720.969 482.298 720.119 484.192 720.119V721.35C482.356 721.35 480.721 722.243 479.285 724.03V735.5H477.747ZM493.26 720.119C497.469 720.119 499.573 722.448 499.573 727.106C499.573 727.438 499.563 727.785 499.544 728.146H487.869C487.869 732.17 489.998 734.182 494.256 734.182C496.004 734.182 497.557 733.938 498.914 733.449V734.768C497.557 735.256 496.004 735.5 494.256 735.5C488.973 735.5 486.331 732.878 486.331 727.634C486.331 722.624 488.641 720.119 493.26 720.119ZM487.869 726.77H498.094C498.035 723.195 496.424 721.408 493.26 721.408C489.842 721.408 488.045 723.195 487.869 726.77ZM512.391 733.244C513.943 733.771 515.374 734.035 516.683 734.035C520.657 734.035 522.645 731.823 522.645 727.399C522.645 723.464 520.667 721.496 516.712 721.496C515.345 721.496 513.904 721.613 512.391 721.848V733.244ZM510.853 720.749C512.601 720.329 514.563 720.119 516.741 720.119C521.673 720.119 524.139 722.556 524.139 727.429C524.139 732.81 521.658 735.5 516.697 735.5C515.467 735.5 514.031 735.256 512.391 734.768V741.066H510.853V720.749ZM529.939 714.553V735.5H528.401V714.553H529.939ZM534.056 731.149C534.056 728.093 536.087 726.564 540.149 726.564C541.585 726.564 543.118 726.662 544.749 726.857V724.968C544.749 722.614 543.27 721.438 540.311 721.438C538.729 721.438 537.107 721.682 535.447 722.17V720.852C537.107 720.363 538.729 720.119 540.311 720.119C544.295 720.119 546.287 721.711 546.287 724.895V735.5H545.35L544.998 733.977C543.074 734.992 541.209 735.5 539.402 735.5C535.838 735.5 534.056 734.05 534.056 731.149ZM540.149 727.883C537.112 727.883 535.594 728.957 535.594 731.105C535.594 733.156 536.863 734.182 539.402 734.182C541.277 734.182 543.06 733.684 544.749 732.688V728.176C543.118 727.98 541.585 727.883 540.149 727.883ZM562.122 735.061C560.853 735.354 559.485 735.5 558.021 735.5C552.845 735.5 550.257 732.839 550.257 727.517C550.257 722.585 552.845 720.119 558.021 720.119C559.485 720.119 560.853 720.266 562.122 720.559V721.877C560.755 721.584 559.437 721.438 558.167 721.438C554.017 721.438 551.941 723.464 551.941 727.517C551.941 731.96 554.017 734.182 558.167 734.182C559.437 734.182 560.755 734.035 562.122 733.742V735.061ZM571.922 720.119C576.131 720.119 578.235 722.448 578.235 727.106C578.235 727.438 578.226 727.785 578.206 728.146H566.531C566.531 732.17 568.66 734.182 572.918 734.182C574.666 734.182 576.219 733.938 577.576 733.449V734.768C576.219 735.256 574.666 735.5 572.918 735.5C567.635 735.5 564.993 732.878 564.993 727.634C564.993 722.624 567.303 720.119 571.922 720.119ZM566.531 726.77H576.756C576.697 723.195 575.086 721.408 571.922 721.408C568.504 721.408 566.707 723.195 566.531 726.77Z" fill="black"/>
<path d="M28.9834 109V88.0527H33.0117L40.1162 103.946L47.0742 88.0527H50.9561V109H47.3672V94.4102L41.6836 109H38.373L32.5723 94.4102V109H28.9834ZM54.252 104.21C54.252 101.153 56.4785 99.625 60.9316 99.625C61.9766 99.625 63.0215 99.7227 64.0664 99.918V98.7607C64.0664 97.3838 63.0752 96.6953 61.0928 96.6953C59.4131 96.6953 57.5479 96.9395 55.4971 97.4277V94.3516C57.5479 93.8633 59.4131 93.6191 61.0928 93.6191C65.6631 93.6191 67.9482 95.3086 67.9482 98.6875V109H65.6924L64.3154 107.623C62.9775 108.541 61.5029 109 59.8916 109C56.1318 109 54.252 107.403 54.252 104.21ZM64.0664 102.555C63.0898 102.359 62.0449 102.262 60.9316 102.262C59.0664 102.262 58.1338 102.896 58.1338 104.166C58.1338 105.533 58.915 106.217 60.4775 106.217C61.7666 106.217 62.9629 105.816 64.0664 105.016V102.555ZM71.625 109V88.0527H75.5068V94.8203C77.0986 94.0195 78.7734 93.6191 80.5312 93.6191C84.457 93.6191 86.4199 95.0986 86.4199 98.0576C86.4199 100.206 85.0527 101.886 82.3184 103.097L87.0938 109H82.3477L78.334 103.507V101.705C81.1367 101.109 82.5381 100.133 82.5381 98.7754C82.5381 97.3887 81.6104 96.6953 79.7549 96.6953C78.4561 96.6953 77.04 97.1055 75.5068 97.9258V109H71.625ZM95.7803 93.6191C100.448 93.6191 102.782 96.002 102.782 100.768C102.782 101.402 102.738 102.037 102.65 102.672H92.4404C92.4404 104.84 94.0322 105.924 97.2158 105.924C98.7686 105.924 100.321 105.777 101.874 105.484V108.561C100.517 108.854 98.8662 109 96.9229 109C91.3467 109 88.5586 106.378 88.5586 101.134C88.5586 96.124 90.9658 93.6191 95.7803 93.6191ZM92.4404 99.9766H99.0029V99.8594C99.0029 97.7305 97.9287 96.666 95.7803 96.666C93.7295 96.666 92.6162 97.7695 92.4404 99.9766ZM112.289 109V93.6191H115.292L115.746 95.8457C117.123 94.3613 118.778 93.6191 120.712 93.6191C122.646 93.6191 123.969 94.3223 124.682 95.7285C126.254 94.3223 127.899 93.6191 129.618 93.6191C133.153 93.6191 134.921 95.5674 134.921 99.4639V109H131.039V99.3174C131.039 97.6084 130.268 96.7539 128.725 96.7539C127.572 96.7539 126.464 97.2715 125.399 98.3066V109H121.518V99.3613C121.518 97.623 120.805 96.7539 119.379 96.7539C118.246 96.7539 117.177 97.2715 116.171 98.3066V109H112.289ZM141.747 101.251C141.747 104.464 142.992 106.07 145.482 106.07C147.973 106.07 149.218 104.464 149.218 101.251C149.218 98.1162 147.973 96.5488 145.482 96.5488C142.992 96.5488 141.747 98.1162 141.747 101.251ZM137.865 101.31C137.865 96.1533 140.404 93.5752 145.482 93.5752C150.561 93.5752 153.1 96.1533 153.1 101.31C153.1 106.456 150.561 109.029 145.482 109.029C140.424 109.029 137.885 106.456 137.865 101.31ZM156.029 109V93.6191H159.032L159.516 95.582C160.863 94.2734 162.289 93.6191 163.793 93.6191V96.7539C162.348 96.7539 161.054 97.3545 159.911 98.5557V109H156.029ZM172.479 93.6191C177.147 93.6191 179.481 96.002 179.481 100.768C179.481 101.402 179.438 102.037 179.35 102.672H169.14C169.14 104.84 170.731 105.924 173.915 105.924C175.468 105.924 177.021 105.777 178.573 105.484V108.561C177.216 108.854 175.565 109 173.622 109C168.046 109 165.258 106.378 165.258 101.134C165.258 96.124 167.665 93.6191 172.479 93.6191ZM169.14 99.9766H175.702V99.8594C175.702 97.7305 174.628 96.666 172.479 96.666C170.429 96.666 169.315 97.7695 169.14 99.9766ZM192.87 88.0527V91.1289H188.988V88.0527H192.87ZM192.87 93.6191V109H188.988V93.6191H192.87ZM196.547 109V93.6191H199.55L200.033 95.875C201.508 94.3711 203.188 93.6191 205.072 93.6191C208.715 93.6191 210.536 95.5137 210.536 99.3027V109H206.654V99.3027C206.654 97.6035 205.81 96.7539 204.12 96.7539C202.86 96.7539 201.63 97.2568 200.429 98.2627V109H196.547ZM214.213 109V93.6191C214.213 89.4004 216.518 87.291 221.127 87.291C222.387 87.291 223.529 87.4863 224.555 87.877V90.9531C223.588 90.5625 222.538 90.3672 221.405 90.3672C219.198 90.3672 218.095 91.4512 218.095 93.6191H222.709V96.6953H218.095V109H214.213ZM228.231 101.251C228.231 104.464 229.477 106.07 231.967 106.07C234.457 106.07 235.702 104.464 235.702 101.251C235.702 98.1162 234.457 96.5488 231.967 96.5488C229.477 96.5488 228.231 98.1162 228.231 101.251ZM224.35 101.31C224.35 96.1533 226.889 93.5752 231.967 93.5752C237.045 93.5752 239.584 96.1533 239.584 101.31C239.584 106.456 237.045 109.029 231.967 109.029C226.908 109.029 224.369 106.456 224.35 101.31ZM242.514 109V93.6191H245.517L246 95.582C247.348 94.2734 248.773 93.6191 250.277 93.6191V96.7539C248.832 96.7539 247.538 97.3545 246.396 98.5557V109H242.514ZM252.475 109V93.6191H255.478L255.932 95.8457C257.309 94.3613 258.964 93.6191 260.897 93.6191C262.831 93.6191 264.154 94.3223 264.867 95.7285C266.439 94.3223 268.085 93.6191 269.804 93.6191C273.339 93.6191 275.106 95.5674 275.106 99.4639V109H271.225V99.3174C271.225 97.6084 270.453 96.7539 268.91 96.7539C267.758 96.7539 266.649 97.2715 265.585 98.3066V109H261.703V99.3613C261.703 97.623 260.99 96.7539 259.564 96.7539C258.432 96.7539 257.362 97.2715 256.356 98.3066V109H252.475ZM285.272 93.6191C289.94 93.6191 292.274 96.002 292.274 100.768C292.274 101.402 292.23 102.037 292.143 102.672H281.933C281.933 104.84 283.524 105.924 286.708 105.924C288.261 105.924 289.813 105.777 291.366 105.484V108.561C290.009 108.854 288.358 109 286.415 109C280.839 109 278.051 106.378 278.051 101.134C278.051 96.124 280.458 93.6191 285.272 93.6191ZM281.933 99.9766H288.495V99.8594C288.495 97.7305 287.421 96.666 285.272 96.666C283.222 96.666 282.108 97.7695 281.933 99.9766ZM304.931 97.6328C304.13 97.1055 303.124 96.8418 301.913 96.8418C299.501 96.8418 298.295 98.1943 298.295 100.899C298.295 104.112 299.55 105.719 302.06 105.719C303.075 105.719 304.032 105.577 304.931 105.294V97.6328ZM308.812 108.077C306.459 108.692 304.159 109 301.913 109C296.942 109 294.457 106.334 294.457 101.002C294.457 96.0801 296.889 93.6191 301.752 93.6191C302.787 93.6191 303.847 93.8633 304.931 94.3516V88.0527H308.812V108.077ZM332.411 93.6191V109H328.529V96.6953H322.948V109H319.066V92.8721C319.066 88.9561 321.371 86.998 325.98 86.998C327.631 86.998 329.286 87.3398 330.946 88.0234V91.0996C329.442 90.416 327.88 90.0742 326.259 90.0742C324.052 90.0742 322.948 90.9678 322.948 92.7549V93.6191H332.411ZM336.088 109V93.6191H339.091L339.574 95.875C341.049 94.3711 342.729 93.6191 344.613 93.6191C348.256 93.6191 350.077 95.5137 350.077 99.3027V109H346.195V99.3027C346.195 97.6035 345.351 96.7539 343.661 96.7539C342.401 96.7539 341.171 97.2568 339.97 98.2627V109H336.088ZM353.021 104.21C353.021 101.153 355.248 99.625 359.701 99.625C360.746 99.625 361.791 99.7227 362.836 99.918V98.7607C362.836 97.3838 361.845 96.6953 359.862 96.6953C358.183 96.6953 356.317 96.9395 354.267 97.4277V94.3516C356.317 93.8633 358.183 93.6191 359.862 93.6191C364.433 93.6191 366.718 95.3086 366.718 98.6875V109H364.462L363.085 107.623C361.747 108.541 360.272 109 358.661 109C354.901 109 353.021 107.403 353.021 104.21ZM362.836 102.555C361.859 102.359 360.814 102.262 359.701 102.262C357.836 102.262 356.903 102.896 356.903 104.166C356.903 105.533 357.685 106.217 359.247 106.217C360.536 106.217 361.732 105.816 362.836 105.016V102.555ZM370.395 109V93.6191H373.397L373.881 95.875C375.355 94.3711 377.035 93.6191 378.92 93.6191C382.562 93.6191 384.384 95.5137 384.384 99.3027V109H380.502V99.3027C380.502 97.6035 379.657 96.7539 377.968 96.7539C376.708 96.7539 375.478 97.2568 374.276 98.2627V109H370.395ZM399.413 108.561C398.144 108.854 396.825 109 395.458 109C389.989 109 387.255 106.339 387.255 101.017C387.255 96.085 389.989 93.6191 395.458 93.6191C396.825 93.6191 398.144 93.7656 399.413 94.0586V97.1348C398.144 96.8418 396.923 96.6953 395.751 96.6953C392.675 96.6953 391.137 98.1357 391.137 101.017C391.137 104.288 392.675 105.924 395.751 105.924C396.923 105.924 398.144 105.777 399.413 105.484V108.561ZM408.466 93.6191C413.134 93.6191 415.468 96.002 415.468 100.768C415.468 101.402 415.424 102.037 415.336 102.672H405.126C405.126 104.84 406.718 105.924 409.901 105.924C411.454 105.924 413.007 105.777 414.56 105.484V108.561C413.202 108.854 411.552 109 409.608 109C404.032 109 401.244 106.378 401.244 101.134C401.244 96.124 403.651 93.6191 408.466 93.6191ZM405.126 99.9766H411.688V99.8594C411.688 97.7305 410.614 96.666 408.466 96.666C406.415 96.666 405.302 97.7695 405.126 99.9766ZM422.997 106.29L420.8 112.662H416.918L419.115 106.29H422.997ZM431.581 91.1289H434.452L435.038 93.6191H438.905V96.6953H435.463V103.771C435.463 105.206 436.083 105.924 437.323 105.924H438.905V109H435.448C432.87 109 431.581 107.618 431.581 104.854V91.1289ZM441.557 109V93.6191H444.56L445.043 95.582C446.391 94.2734 447.816 93.6191 449.32 93.6191V96.7539C447.875 96.7539 446.581 97.3545 445.438 98.5557V109H441.557ZM450.785 104.21C450.785 101.153 453.012 99.625 457.465 99.625C458.51 99.625 459.555 99.7227 460.6 99.918V98.7607C460.6 97.3838 459.608 96.6953 457.626 96.6953C455.946 96.6953 454.081 96.9395 452.03 97.4277V94.3516C454.081 93.8633 455.946 93.6191 457.626 93.6191C462.196 93.6191 464.481 95.3086 464.481 98.6875V109H462.226L460.849 107.623C459.511 108.541 458.036 109 456.425 109C452.665 109 450.785 107.403 450.785 104.21ZM460.6 102.555C459.623 102.359 458.578 102.262 457.465 102.262C455.6 102.262 454.667 102.896 454.667 104.166C454.667 105.533 455.448 106.217 457.011 106.217C458.3 106.217 459.496 105.816 460.6 105.016V102.555ZM477.899 97.6328C477.099 97.1055 476.093 96.8418 474.882 96.8418C472.47 96.8418 471.264 98.1943 471.264 100.899C471.264 104.112 472.519 105.719 475.028 105.719C476.044 105.719 477.001 105.577 477.899 105.294V97.6328ZM481.781 108.077C479.428 108.692 477.128 109 474.882 109C469.911 109 467.426 106.334 467.426 101.002C467.426 96.0801 469.857 93.6191 474.721 93.6191C475.756 93.6191 476.815 93.8633 477.899 94.3516V88.0527H481.781V108.077ZM489.325 88.0527V91.1289H485.443V88.0527H489.325ZM489.325 93.6191V109H485.443V93.6191H489.325ZM493.002 109V93.6191H496.005L496.488 95.875C497.963 94.3711 499.643 93.6191 501.527 93.6191C505.17 93.6191 506.991 95.5137 506.991 99.3027V109H503.109V99.3027C503.109 97.6035 502.265 96.7539 500.575 96.7539C499.315 96.7539 498.085 97.2568 496.884 98.2627V109H493.002ZM520.512 97.1055C519.877 96.8711 518.974 96.7539 517.802 96.7539C515.116 96.7539 513.773 98.2334 513.773 101.192C513.773 104.054 514.931 105.484 517.245 105.484C518.358 105.484 519.447 105.221 520.512 104.693V97.1055ZM524.394 107.828C524.394 112.32 521.693 114.566 516.293 114.566C514.398 114.566 512.719 114.322 511.254 113.834V110.758C512.748 111.246 514.438 111.49 516.322 111.49C519.115 111.49 520.512 110.318 520.512 107.975C519.359 108.463 518.119 108.707 516.791 108.707C512.221 108.707 509.936 106.212 509.936 101.222C509.936 96.1533 512.597 93.6191 517.919 93.6191C519.706 93.6191 521.864 93.8291 524.394 94.249V107.828ZM532.685 106.29L530.487 112.662H526.605L528.803 106.29H532.685ZM540.756 104.21C540.756 101.153 542.982 99.625 547.436 99.625C548.48 99.625 549.525 99.7227 550.57 99.918V98.7607C550.57 97.3838 549.579 96.6953 547.597 96.6953C545.917 96.6953 544.052 96.9395 542.001 97.4277V94.3516C544.052 93.8633 545.917 93.6191 547.597 93.6191C552.167 93.6191 554.452 95.3086 554.452 98.6875V109H552.196L550.819 107.623C549.481 108.541 548.007 109 546.396 109C542.636 109 540.756 107.403 540.756 104.21ZM550.57 102.555C549.594 102.359 548.549 102.262 547.436 102.262C545.57 102.262 544.638 102.896 544.638 104.166C544.638 105.533 545.419 106.217 546.981 106.217C548.271 106.217 549.467 105.816 550.57 105.016V102.555ZM558.129 109V93.6191H561.132L561.615 95.875C563.09 94.3711 564.77 93.6191 566.654 93.6191C570.297 93.6191 572.118 95.5137 572.118 99.3027V109H568.236V99.3027C568.236 97.6035 567.392 96.7539 565.702 96.7539C564.442 96.7539 563.212 97.2568 562.011 98.2627V109H558.129ZM585.536 97.6328C584.735 97.1055 583.729 96.8418 582.519 96.8418C580.106 96.8418 578.9 98.1943 578.9 100.899C578.9 104.112 580.155 105.719 582.665 105.719C583.681 105.719 584.638 105.577 585.536 105.294V97.6328ZM589.418 108.077C587.064 108.692 584.765 109 582.519 109C577.548 109 575.062 106.334 575.062 101.002C575.062 96.0801 577.494 93.6191 582.357 93.6191C583.393 93.6191 584.452 93.8633 585.536 94.3516V88.0527H589.418V108.077ZM603.554 88.0527V91.1289H599.672V88.0527H603.554ZM603.554 93.6191V109H599.672V93.6191H603.554ZM607.23 109V93.6191H610.233L610.717 95.875C612.191 94.3711 613.871 93.6191 615.756 93.6191C619.398 93.6191 621.22 95.5137 621.22 99.3027V109H617.338V99.3027C617.338 97.6035 616.493 96.7539 614.804 96.7539C613.544 96.7539 612.313 97.2568 611.112 98.2627V109H607.23ZM623.065 93.6191H627.167L630.902 104.371L634.784 93.6191H638.886L632.631 109H628.939L623.065 93.6191ZM647.206 93.6191C651.874 93.6191 654.208 96.002 654.208 100.768C654.208 101.402 654.164 102.037 654.076 102.672H643.866C643.866 104.84 645.458 105.924 648.642 105.924C650.194 105.924 651.747 105.777 653.3 105.484V108.561C651.942 108.854 650.292 109 648.349 109C642.772 109 639.984 106.378 639.984 101.134C639.984 96.124 642.392 93.6191 647.206 93.6191ZM643.866 99.9766H650.429V99.8594C650.429 97.7305 649.354 96.666 647.206 96.666C645.155 96.666 644.042 97.7695 643.866 99.9766ZM657.123 108.268V105.045C658.832 105.729 660.805 106.07 663.041 106.07C664.711 106.07 665.546 105.533 665.546 104.459C665.546 103.434 664.984 102.921 663.861 102.921H661.078C657.953 102.921 656.391 101.383 656.391 98.3066C656.391 95.084 658.671 93.4727 663.231 93.4727C665.165 93.4727 666.986 93.7656 668.695 94.3516V97.5742C666.986 96.8906 665.131 96.5488 663.129 96.5488C661.029 96.5488 659.979 97.0859 659.979 98.1602C659.979 99.1855 660.59 99.6982 661.811 99.6982H664.301C667.719 99.6982 669.428 101.236 669.428 104.312C669.428 107.535 667.25 109.146 662.895 109.146C660.756 109.146 658.832 108.854 657.123 108.268ZM671.933 91.1289H674.804L675.39 93.6191H679.257V96.6953H675.814V103.771C675.814 105.206 676.435 105.924 677.675 105.924H679.257V109H675.8C673.222 109 671.933 107.618 671.933 104.854V91.1289ZM681.908 109V93.6191H684.911L685.365 95.8457C686.742 94.3613 688.397 93.6191 690.331 93.6191C692.265 93.6191 693.588 94.3223 694.301 95.7285C695.873 94.3223 697.519 93.6191 699.237 93.6191C702.772 93.6191 704.54 95.5674 704.54 99.4639V109H700.658V99.3174C700.658 97.6084 699.887 96.7539 698.344 96.7539C697.191 96.7539 696.083 97.2715 695.019 98.3066V109H691.137V99.3613C691.137 97.623 690.424 96.7539 688.998 96.7539C687.865 96.7539 686.796 97.2715 685.79 98.3066V109H681.908ZM714.706 93.6191C719.374 93.6191 721.708 96.002 721.708 100.768C721.708 101.402 721.664 102.037 721.576 102.672H711.366C711.366 104.84 712.958 105.924 716.142 105.924C717.694 105.924 719.247 105.777 720.8 105.484V108.561C719.442 108.854 717.792 109 715.849 109C710.272 109 707.484 106.378 707.484 101.134C707.484 96.124 709.892 93.6191 714.706 93.6191ZM711.366 99.9766H717.929V99.8594C717.929 97.7305 716.854 96.666 714.706 96.666C712.655 96.666 711.542 97.7695 711.366 99.9766ZM724.623 109V93.6191H727.626L728.109 95.875C729.584 94.3711 731.264 93.6191 733.148 93.6191C736.791 93.6191 738.612 95.5137 738.612 99.3027V109H734.73V99.3027C734.73 97.6035 733.886 96.7539 732.196 96.7539C730.937 96.7539 729.706 97.2568 728.505 98.2627V109H724.623ZM742.069 91.1289H744.94L745.526 93.6191H749.394V96.6953H745.951V103.771C745.951 105.206 746.571 105.924 747.812 105.924H749.394V109H745.937C743.358 109 742.069 107.618 742.069 104.854V91.1289ZM336.132 131.633C335.331 131.105 334.325 130.842 333.114 130.842C330.702 130.842 329.496 132.194 329.496 134.899C329.496 138.112 330.751 139.719 333.261 139.719C334.276 139.719 335.233 139.577 336.132 139.294V131.633ZM340.014 142.077C337.66 142.692 335.36 143 333.114 143C328.144 143 325.658 140.334 325.658 135.002C325.658 130.08 328.09 127.619 332.953 127.619C333.988 127.619 335.048 127.863 336.132 128.352V122.053H340.014V142.077ZM350.165 127.619C354.833 127.619 357.167 130.002 357.167 134.768C357.167 135.402 357.123 136.037 357.035 136.672H346.825C346.825 138.84 348.417 139.924 351.601 139.924C353.153 139.924 354.706 139.777 356.259 139.484V142.561C354.901 142.854 353.251 143 351.308 143C345.731 143 342.943 140.378 342.943 135.134C342.943 130.124 345.351 127.619 350.165 127.619ZM346.825 133.977H353.388V133.859C353.388 131.73 352.313 130.666 350.165 130.666C348.114 130.666 347.001 131.77 346.825 133.977ZM371.435 142.561C370.165 142.854 368.847 143 367.479 143C362.011 143 359.276 140.339 359.276 135.017C359.276 130.085 362.011 127.619 367.479 127.619C368.847 127.619 370.165 127.766 371.435 128.059V131.135C370.165 130.842 368.944 130.695 367.772 130.695C364.696 130.695 363.158 132.136 363.158 135.017C363.158 138.288 364.696 139.924 367.772 139.924C368.944 139.924 370.165 139.777 371.435 139.484V142.561ZM377.88 122.053V125.129H373.998V122.053H377.88ZM377.88 127.619V143H373.998V127.619H377.88ZM381.557 142.268V139.045C383.266 139.729 385.238 140.07 387.475 140.07C389.145 140.07 389.979 139.533 389.979 138.459C389.979 137.434 389.418 136.921 388.295 136.921H385.512C382.387 136.921 380.824 135.383 380.824 132.307C380.824 129.084 383.104 127.473 387.665 127.473C389.599 127.473 391.42 127.766 393.129 128.352V131.574C391.42 130.891 389.564 130.549 387.562 130.549C385.463 130.549 384.413 131.086 384.413 132.16C384.413 133.186 385.023 133.698 386.244 133.698H388.734C392.152 133.698 393.861 135.236 393.861 138.312C393.861 141.535 391.684 143.146 387.328 143.146C385.189 143.146 383.266 142.854 381.557 142.268ZM400.468 122.053V125.129H396.586V122.053H400.468ZM400.468 127.619V143H396.586V127.619H400.468ZM407.294 135.251C407.294 138.464 408.539 140.07 411.029 140.07C413.52 140.07 414.765 138.464 414.765 135.251C414.765 132.116 413.52 130.549 411.029 130.549C408.539 130.549 407.294 132.116 407.294 135.251ZM403.412 135.31C403.412 130.153 405.951 127.575 411.029 127.575C416.107 127.575 418.646 130.153 418.646 135.31C418.646 140.456 416.107 143.029 411.029 143.029C405.971 143.029 403.432 140.456 403.412 135.31ZM421.576 143V127.619H424.579L425.062 129.875C426.537 128.371 428.217 127.619 430.102 127.619C433.744 127.619 435.565 129.514 435.565 133.303V143H431.684V133.303C431.684 131.604 430.839 130.754 429.149 130.754C427.89 130.754 426.659 131.257 425.458 132.263V143H421.576ZM439.242 142.268V139.045C440.951 139.729 442.924 140.07 445.16 140.07C446.83 140.07 447.665 139.533 447.665 138.459C447.665 137.434 447.104 136.921 445.98 136.921H443.197C440.072 136.921 438.51 135.383 438.51 132.307C438.51 129.084 440.79 127.473 445.351 127.473C447.284 127.473 449.105 127.766 450.814 128.352V131.574C449.105 130.891 447.25 130.549 445.248 130.549C443.148 130.549 442.099 131.086 442.099 132.16C442.099 133.186 442.709 133.698 443.93 133.698H446.42C449.838 133.698 451.547 135.236 451.547 138.312C451.547 141.535 449.369 143.146 445.014 143.146C442.875 143.146 440.951 142.854 439.242 142.268Z" fill="black"/>
<defs>
<clipPath id="clip0_18_73">
<rect width="110.658" height="110.658" fill="white" transform="translate(64.8481 665.62)"/>
</clipPath>
</defs>
</svg>
