<svg width="80" height="80" viewBox="0 0 80 80" fill="none" xmlns="http://www.w3.org/2000/svg">
<g clip-path="url(#clip0_15_79)">
<path d="M50.0157 39.5938C48.672 39.3594 47.2657 39.3906 45.8907 39.4688C42.7657 39.6406 39.6407 39.9375 36.5157 39.6563C35.0314 39.5156 33.5314 39.375 32.0314 39.4063C29.3126 39.4531 27.0314 40.3438 25.6876 42.9375C25.0157 44.2188 24.8595 45.5938 24.9064 47.0156C25.0157 51.0156 26.7501 53.2969 30.5626 54.4375C33.6251 55.3438 36.7657 55.4688 39.922 55.4063C41.0939 55.4063 42.2657 55.4688 43.4376 55.3906C45.8595 55.25 48.2345 54.8906 50.5314 54.0469C52.9064 53.1719 54.3282 51.5 54.8439 49.0781C55.047 48.1406 55.1407 47.1563 55.1251 46.2031C55.0939 42.9688 52.9064 40.0781 50.0157 39.5938ZM34.6407 50.1719C33.6251 51.2813 32.1564 51.2969 31.1095 50.2188C30.3439 49.4375 29.9064 48.2344 29.9064 46.7344C29.9376 45.7188 30.2345 44.6094 31.1095 43.7188C32.1564 42.6406 33.6251 42.6563 34.6407 43.75C36.172 45.4063 36.172 48.5156 34.6407 50.1719ZM48.8439 50.25C47.8907 51.2344 46.5157 51.2656 45.5001 50.3594C43.7501 48.7656 43.7501 45.2188 45.5001 43.6094C46.5001 42.6875 47.8751 42.7188 48.8439 43.7031C49.7345 44.6094 50.0314 45.75 50.0782 46.9688C50.0314 48.2031 49.7189 49.3281 48.8439 50.25Z" fill="black"/>
<path d="M73.75 0H6.25C2.79688 0 0 2.79688 0 6.25V73.75C0 77.2031 2.79688 80 6.25 80H73.75C77.2031 80 80 77.2031 80 73.75V6.25C80 2.79688 77.2031 0 73.75 0ZM60.5 43.5C60.2813 45.2812 59.9062 47.1094 59.2656 48.7812C57.3906 53.5781 53.6406 56.2188 48.6719 57.0156C45.8281 57.4688 42.9062 57.4844 39.75 57.7188C36.9219 57.4688 33.8125 57.4375 30.7969 56.9062C24.9531 55.875 20.9844 51.7812 19.8281 45.9219C19.2344 42.9375 19.0625 39.9375 19.9844 36.9688C20.4688 35.4375 21.2656 34.0781 22.2969 32.8438C22.4375 32.6875 22.5625 32.4531 22.5469 32.25C22.375 29.5625 22.6875 26.9062 23.4844 24.3437C24.1406 22.2031 23.6563 22.3281 26.0312 22.9531C28.8906 23.7031 31.3906 25.25 33.8438 26.8594C34.125 27.0469 34.5625 27.125 34.9062 27.0625C38.375 26.5313 41.8281 26.5 45.2969 27.1094C45.5469 27.1562 45.875 27.0625 46.1094 26.9219C48.2188 25.5469 50.3906 24.3125 52.7656 23.4531C53.625 23.1406 54.5312 22.9375 55.4062 22.6719C55.7969 22.5625 55.9688 22.7031 56.1094 23.0781C57.1719 26.0469 57.6094 29.0937 57.4531 32.2344C57.4375 32.4062 57.5312 32.6406 57.6406 32.7812C60.3125 35.875 60.9844 39.5625 60.5 43.5Z" fill="black"/>
</g>
<defs>
<clipPath id="clip0_15_79">
<rect width="80" height="80" fill="white"/>
</clipPath>
</defs>
</svg>
