<svg width="80" height="80" viewBox="0 0 80 80" fill="none" xmlns="http://www.w3.org/2000/svg">
<g clip-path="url(#clip0_15_83)">
<path d="M68 0H12C5.37258 0 0 5.37258 0 12V68C0 74.6274 5.37258 80 12 80H68C74.6274 80 80 74.6274 80 68V12C80 5.37258 74.6274 0 68 0Z" fill="white"/>
<path d="M24.6875 61.0938V38.9062L11.875 29.0625V56.4062C11.875 59.5312 13.4375 61.0938 16.5625 61.0938" fill="#4285F4"/>
<path d="M24.0625 38.75L40 50.7812L55.9375 38.75V23.4375L40 35.4688L24.0625 23.4375" fill="#EA4335"/>
<path d="M55.3125 61.0938V38.9062L68.125 29.0625V56.4062C68.125 59.5312 66.5625 61.0938 63.4375 61.0938" fill="#34A853"/>
<path d="M11.875 29.375L24.6875 39.2187V23.9062L20 20.3125C15.7812 17.0312 11.875 20.3125 11.875 24.375" fill="#C5221F"/>
<path d="M68.125 29.375L55.3125 39.2187V23.9062L60 20.3125C64.2188 17.0312 68.125 20.3125 68.125 24.375" fill="#FBBC04"/>
</g>
<path d="M0.5 10C0.5 4.7533 4.7533 0.5 10 0.5H70C75.2467 0.5 79.5 4.75329 79.5 10V70C79.5 75.2467 75.2467 79.5 70 79.5H10C4.75329 79.5 0.5 75.2467 0.5 70V10Z" stroke="#69747C" stroke-opacity="0.46"/>
<defs>
<clipPath id="clip0_15_83">
<path d="M0 10C0 4.47715 4.47715 0 10 0H70C75.5229 0 80 4.47715 80 10V70C80 75.5229 75.5229 80 70 80H10C4.47715 80 0 75.5229 0 70V10Z" fill="white"/>
</clipPath>
</defs>
</svg>
